<svg xmlns="http://www.w3.org/2000/svg" width="1522" height="1528"><g fill="#fff"><path fill-rule="evenodd" d="M1522 1452.5v67h-211.2v-229.9h82.1v162.9zm-539.6-49.3c0-69.9 57.8-121.1 150.1-121.1 91.3 0 149.4 51.2 149.4 121.1 0 68.7-58.1 123.8-149.7 123.8-92 0-149.8-55.5-149.8-123.8m211.2 1.3c0-30.8-27.6-55.8-61.6-55.8-34.1 0-61.6 25-61.6 55.8 0 30.9 27.5 55.9 61.6 55.9 34 0 61.6-25 61.6-55.9M964.3 1374c0 49.9-35.1 85.7-104.1 85.7h-64v59.8h-82.1v-230.2H873c60.8 0 91.3 34.1 91.3 84.7m-84.1 2.3c0-18.7-13.1-30.2-36.7-30.2h-47.3v61.4h42.7c26.9 0 41.3-11.8 41.3-31.2m-286 143.2-13.5-158.3-46.6 158.3h-82.5l-43.7-157.3-11.4 157.3h-81.2l22.4-229.9h123.5l35.1 126.4 36.5-126.4h122.1l22.4 229.9zm-315.7-229.9v229.9h-80.8V1482h-80.4l-23 37.5H0l155.4-229.9zm-80.8 143.2v-81.4l-50.3 81.4z"/><path d="M1297.8 0H1522v1065.4h-224.2zM577.5 1065.5H306.9L1027.1 0h270.7z"/></g></svg>