<?xml version="1.0" encoding="UTF-8"?>
<svg id="Layer_1" xmlns="http://www.w3.org/2000/svg" version="1.1" viewBox="0 0 800 376">
  <!-- Generator: Adobe Illustrator 30.3.0, SVG Export Plug-In . SVG Version: 2.1.3 Build 182)  -->
  <defs>
    <style>
      .st0 {
        fill: #fff;
      }
    </style>
  </defs>
  <path class="st0" d="M139.75,73.21c16.49,13.08,34.13,18.57,37.22,46.43,5.1,46.04-25.4,76.42-64.88,95.33l-34.47,109.35c-9.12,28.94-37.66,46.5-67.52,39.35L111.95,41.75c3.45-10.91,10.68-19.11,20.49-24.62,16.84-9.44,37.83-8.34,53.52,2.78,10.57,7.49,16.92,18.63,17.81,31.38.47,6.64-3.52,11.67-9.6,11.96-6.71.31-10.54-4.81-10.85-11.62-.46-10.05-9.05-17.23-18.55-19.62-12.01-3.01-25.41.72-31.76,11.85-5.59,9.8-1.93,22.48,6.74,29.36Z"/>
  <path class="st0" d="M237.27,326.43l-28.27-89.33-71.2-.24,10.09-32.1,105.72-.02,50.29,158.97c-28.27,6.64-57.6-8.76-66.63-37.28Z"/>
  <path class="st0" d="M707.36,172.01c-16.28,5.11-33.6-5.02-33.7-18.38l-.34-45.42-22.17.04.02,41.24c0,1.89,1.3,5.35,2.6,6.36s4.72,1.5,6.54,1.46l6.72-.13.02,14.72c-6.45,1.77-12.75,1.8-18.85-.15-10.08-3.23-15.42-12.05-15.39-22.39l.09-41.07-10.01-.38-.04-15.51,9.79-.37.48-20.11h17.86s.26,20.13.26,20.13l21.98-.06.24-19.99h18.02s.18,19.9.18,19.9l15.53.25.16,15.89-15.78.27.12,41.64c0,1.6,1.18,4.7,2.26,5.66,1.23,1.1,4.7,1.82,6.53,1.73l6.89-.32v14.99Z"/>
  <path class="st0" d="M645.77,310.29h-17.75s-.04-105.02-.04-105.02l14.26-.56,2.64,8.41c6.58-5.94,14.94-8.64,23.75-9.1,24.5-1.28,43.34,17.99,42.58,42.4-.62,19.79-13.57,36.67-33.16,39.97-11.98,2.02-21.83-1.06-32.03-9.33l-.25,33.22ZM693,245.85c.11-7.64-2.35-14.58-7.67-19.28-8.47-7.47-21.19-7.83-30.03-1.31-8.69,6.41-12.39,18.08-8.58,28.63,4.18,11.59,15.1,18.15,26.73,16.16,11.21-1.92,19.38-11.52,19.56-24.21Z"/>
  <path class="st0" d="M370.2,155.04l-38.69-.04-7.36,17.67-18.76-.36,37.69-93.87,15.41-.43,37.75,94.13c-7.02,1.05-12.37.95-18.85.42l-7.19-17.53ZM364.2,138.53l-13.32-35.17-13.51,35.16h26.84Z"/>
  <path class="st0" d="M614.59,158.92c-12.68,15.05-32.95,19.36-50.61,10.96-16.04-7.63-26.13-25.69-23.02-44.53,2.87-17.4,16.94-32.13,35.73-34.5,17.18-2.17,33.48,6,41.88,20.25,8.86,15.02,7.79,33.87-3.96,47.83ZM605.95,134.87c1.49-15.2-9.41-27.33-23.68-27.41-13.71-.07-23.96,11.32-23.54,25.6.38,13.04,9.6,23.48,22.4,24.07,12.54.58,23.47-8.54,24.81-22.26Z"/>
  <path class="st0" d="M492.04,286.23c-18.5-3.06-31.95-17.33-34.78-34.05-3.18-18.82,6.19-36.59,23.17-44.85s35.84-4.34,48.28,8.45,15.55,32.47,6.95,48.85c-7.94,15.11-25.2,24.65-43.62,21.6ZM522.19,242.82c-1.07-13.74-11.48-23.07-24.07-22.77-12.55.3-22.4,10.22-23.19,23.26-.89,14.72,9.92,26.62,24.19,26.41,13.74-.2,24.24-11.94,23.07-26.91Z"/>
  <path class="st0" d="M373.76,266.39l.46-22.61h16.12s.02,33.31.02,33.31c-13.41,9.56-29.84,12.94-45.59,7.93-29.57-9.39-42.79-42.93-28.1-69.98,14-25.78,49.79-33.74,73.03-13.93l-9.9,14.5c-11.81-9.19-26.25-10.2-37.93-2.29s-16.32,23.67-10.74,37.27c6.9,16.81,25.3,24.54,42.63,15.8Z"/>
  <path class="st0" d="M517.38,172.62l-.3-48.32c-.06-9.55-9.16-16.66-17.9-16.39-8.46.26-17.37,7.29-17.44,16.76l-.36,47.26c-6.15,1.48-11.6,1.37-17.99.24v-80.71s13.4-.26,13.4-.26c1.33,2.41,1.9,4.78,2.98,9.34,10.31-9.5,25.2-13.29,38.52-6.68,10.24,5.08,16.84,15.82,16.86,27.5l.08,51.3-17.87-.06Z"/>
  <path class="st0" d="M617.51,204.76v80.96s-14.15-.15-14.15-.15l-2.01-9.5c-10.77,11.21-27.91,14.26-41.32,5.77-8.48-5.36-14.11-15.12-14.14-25.45l-.15-51.65,17.9.02.37,48.64c.07,9.19,8.95,15.82,17.09,15.86,8.31.04,17.87-6.4,17.97-15.92l.5-48.37,17.95-.21Z"/>
  <path class="st0" d="M777.07,169.87c-17.1,8.61-40.76,3.63-47.86-14.25l8.73-6.97c.6-.48,2.26-1.16,2.94-.98s2.01,1.35,2.41,1.99c5.84,9.22,17.65,11.68,26.31,4.54,1.7-1.4,2.69-4.93,2.25-7.2-.39-1.99-3.37-4.25-5.88-5.12l-20.65-7.15c-7.79-2.7-12.11-10.12-13.03-17.38-1.05-8.28,2.18-16.11,9.39-21.03,14.94-10.2,35.93-6.66,46.22,9.22l-11.44,9.65c-5.96-8.05-14.18-10.89-23.03-6.91-1.93.87-3.65,4.44-3.42,6.51.21,1.83,2.64,4.9,4.63,5.5l13.24,4.03c14.92,4.54,24.1,14.79,21.59,29.37-1.13,6.57-5.57,12.73-12.41,16.18Z"/>
  <path class="st0" d="M418.84,172.3c-6.11.89-11.27.85-18.13.13l-.06-80.77,14.6-.26,2.12,5.86c12.89-10.81,31.08-8.29,41.75,3.53l-8.38,11.88-9.5-4.19c-4.51-1.99-10.39-1.51-14.71,1.12-3.48,2.12-7.48,7.44-7.5,12.73l-.18,49.98Z"/>
  <path class="st0" d="M418.87,285.52l-18.18.25-.03-81.02,14.64-.26,1.73,6.18c12.27-10.63,30.05-9.17,41.98,2.79l-8.32,12.29-10.3-4.4c-4.53-1.94-10.58-.83-14.42,1.75-3.77,2.54-7.01,7.86-7.02,13.2l-.09,49.22Z"/>
  <path class="st0" d="M153.68,41.14c7.31-1.93,13.86,2.48,15.48,8.94s-2.04,13.64-9.44,15.46c-5.94,1.46-12.59-1.87-14.81-8.76-1.87-5.81,1.3-13.67,8.77-15.64Z"/>
  <path class="st0" d="M722.02,72.98c6.83-1.67,13.12,2.57,14.84,8.55,1.97,6.84-2.14,13.58-8.19,15.36-7.15,2.1-13.86-1.92-15.65-8.29-1.95-6.93,1.85-13.87,9.01-15.62Z"/>
</svg>