<?xml version="1.0" encoding="UTF-8"?>
<svg id="Layer_1" xmlns="http://www.w3.org/2000/svg" version="1.1" viewBox="0 0 2500 1159">
  <!-- Generator: Adobe Illustrator 30.3.0, SVG Export Plug-In . SVG Version: 2.1.3 Build 182)  -->
  <defs>
    <style>
      .st0 {
        fill: #fff;
      }
    </style>
  </defs>
  <path class="st0" d="M428.67,228.01c36.82-14.28,69.49-39.11,69.49-108.13,0-89.31-81.91-111.85-123.32-111.85h-140.37c-67.63,0-103.54,32.67-103.54,71.31s35.91,52.01,53.83,52.01,40.97-10.6,47.42-27.17c6.44-16.54-2.34-22.55-15.19-17.01-12.85,5.54-25.31-2.77-25.31-16.57s18.43-23.49,34.52-23.49,33.15,5.97,33.15,30.84v134.36c-10.72,4.19-18.79-.08-27.17-2.77-10.13-3.16-14.08,8.78-10.56,18.91,7.12,20.72,26.69,28.2,37.73,30.85v152.31c0,14.27-4.15,20.25-13.37,24.4-9.18,4.11-16.1,12.42-16.1,19.77v17.01h115.53c80.53,0,161.05-32.19,161.05-127.47s-77.79-117.31-77.79-117.31ZM346.32,69.21c0-8.26,5.97-13.8,14.75-13.8s52.45,7.79,52.45,74.99c-.04,67.2-42.84,75.5-67.2,73.17V69.21ZM360.6,418.49c-7.4,0-15.19-2.3-15.19-9.18v-149.1s69.49-9.69,69.49,71.31-46.94,86.97-54.3,86.97ZM1596.13,228.01c36.82-14.28,69.49-39.11,69.49-108.13,0-89.31-81.91-111.85-123.36-111.85h-145.43c0,17.4.4,27.09,13.49,34.61,13.09,7.47,16.45,16.45,16.45,35.35v134.4c-10.72,4.15-18.74-.08-27.17-2.77-10.12-3.2-14.04,8.74-10.6,18.87,7.12,20.72,26.7,28.2,37.73,30.85v152.31c0,14.27-4.11,20.25-13.33,24.4-9.17,4.11-16.09,12.42-16.09,19.77v17.01h115.49c80.56,0,161.05-32.19,161.05-127.47.04-95.28-77.72-117.35-77.72-117.35ZM1513.78,69.21c0-8.26,5.98-13.8,14.72-13.8s52.48,7.79,52.48,74.99c-.04,67.2-42.83,75.5-67.2,73.17V69.21ZM1528.02,418.49c-7.35,0-15.18-2.3-15.18-9.18v-149.1s69.49-9.69,69.49,71.31-46.95,86.97-54.31,86.97ZM715.17,0c-74.55,0-135.93,92.91-143.76,212.19-10.92,4.47-19.07.08-27.57-2.61-10.13-3.2-14.04,8.74-10.6,18.87,7.16,20.8,26.93,28.27,37.89,30.89,6.56,121.46,68.5,216.69,144,216.69,79.9,0,144.64-106.55,144.64-238.01.04-131.47-64.7-238.02-144.6-238.02ZM715.17,431.62c-32.27,0-58.45-86.7-58.45-193.64s26.18-193.6,58.45-193.6c29.03,0,53.12,70.2,57.67,162.15-11.95,11.75-23.06,6.06-32.55,3.05-10.13-3.2-14.08,8.74-10.6,18.87,8.7,25.27,35.95,30.89,43.5,31.95-3.32,96.35-28.04,171.22-58.02,171.22ZM1315.6,434.39c-11.59-6.29-14.6-11.91-14.6-24.17V64.43c0-13.92,4.31-16.26,14.24-20.53,7.77-3.47,12.92-11.03,13.29-19.54V7.99h-140.8v13.68c0,9.61,3.64,13.93,11.27,17.88,7.63,4,11.27,9.93,5.65,25.83l-78.19,219.58s-68.86-207.32-73.21-221.24c-4.27-13.93-1.97-20.85,6.65-24.17,8.58-3.28,11.27-10.24,11.27-16.89V7.95h-151.04v15.03c0,6.64,1.97,12.93,12.57,19.22,10.6,6.29,15.59,13.92,15.59,28.48v141.08c-11.39,5.1-19.74.55-28.48-2.26-10.13-3.2-14.08,8.74-10.6,18.87,7.44,21.55,28.36,28.79,39.08,31.16v145.99c0,12.26-1.35,22.86-14.91,29.5-13.57,6.61-15.86,13.92-15.86,20.84v16.89h124.15v-16.89c0-8.62-3.33-13.25-16.22-21.51-12.93-8.27-13.25-18.2-13.25-29.78v-197.05s91.4,249.69,95.71,259.66c4.31,9.96,9.26,2.65,9.26,2.65l102-263.65v201.71c0,15.58-4.94,23.18-13.57,26.5-8.62,3.28-17.2,10.28-17.2,18.55v19.85h142.03v-16.21c.08-10.29-3.25-15.9-14.83-22.19ZM2005.88,433.56c-15.86-9.02-20.13-17.13-24.45-34.29-4.27-17.13-92.94-355.53-98.52-377.79-5.57-22.27-17.56-21.84-25.7-19.27-8.15,2.58-26.98,8.15-41.14,13.29-14.12,5.15-13.29,13.69-8.15,24.84,5.15,11.12,6.45,19.26,3.88,29.55-1.19,4.74-18.75,72.02-37.81,144.99-12.18,4.07-22.11-2.53-30.85-5.34-10.12-3.2-13.92,8.7-10.6,18.87,5.62,17.16,17.96,29.74,28.04,37.73-17.72,67.91-33.73,129.29-35.75,137.4-4.71,18.86-11.55,27.01-22.27,30.41-10.72,3.4-18.63,9.42-18.63,20.57v18.23h117.15v-16.53c0-7.28-1.3-11.98-8.15-17.56-6.84-5.58-10.28-13.73-7.27-26.97.79-3.56,5.18-21.99,11.15-47.11h89.62l11.87,49.68c3.87,15.42-.83,22.26-8.98,25.7-8.15,3.41-10.92,9.85-10.92,17.56v15.23h145.39v-13.96c.08-10.24-2.09-16.25-17.91-25.23ZM1809.9,309.8l31.92-133.64,31.64,133.64h-63.56ZM2305.24,8.03h-127.51v11.55c0,7.08,3.83,12.54,10.67,18.03,6.81,5.46,12.54,15.59,4.91,31.68-7.63,16.1-47.22,97.73-47.22,97.73,0,0-39.87-86.81-45.05-99.39-5.18-12.58-3.01-24.28,5.73-30.57,8.74-6.29,10.56-10.09,10.56-14.99v-14.04h-157.41v11.82c0,9.02,4.11,13.65,12.3,18.87,10.76,6.8,20.72,13.65,29.46,28.4,6.73,11.35,56.8,99.75,79.34,139.65-8.29,4.18-17.83,5.18-26.81,2.81-10.36-2.37-14.67,8.98-10.6,18.87,9.45,22.94,33.38,35.39,48.45,41.21v139.81c0,15.58-4.95,19.93-15.82,25.39-10.92,5.46-15.11,12.82-15.11,20.73v17.24h143.13v-17.76c0-9.57-1.66-11.19-15.3-20.72-13.65-9.57-14.2-18.04-14.2-25.67v-168.45s62.77-123.4,79.42-156.98c16.65-33.57,30.85-45.6,43.42-45.6s23.5,7.64,23.5,21.32-22.39,24.28-38.76,13.65c-8.7-5.66-13.92,5.22-11.71,13.4,8.46,31.96,29.74,36.59,45.88,36.59s54.03-9.85,54.03-58.18c-.04-48.41-47.98-56.4-65.3-56.4ZM1782.41,1034.14c-9.17-4.16-13.32-10.13-13.32-24.41v-333.65c0-18.9,3.36-27.88,16.45-35.36,13.09-7.47,13.49-17.2,13.49-34.56h-142.03c0,17.36.39,27.09,13.45,34.56,13.09,7.48,16.49,16.46,16.49,35.4v134.36c-10.72,4.19-18.75-.08-27.17-2.77-10.13-3.24-14.04,8.74-10.6,18.86,7.12,20.69,26.69,28.2,37.73,30.81v152.35c0,14.28-4.11,20.25-13.33,24.41-9.22,4.11-16.1,12.42-16.1,19.77v17.01h141.04v-17.01c0-7.39-6.88-15.66-16.1-19.77ZM943.94,735.65c.07-105.37-91.68-129.49-133.09-129.49h-145.47c0,17.36.39,27.09,13.49,34.56,13.09,7.48,16.45,16.46,16.45,35.4v134.36c-10.72,4.19-18.75-.08-27.17-2.77-10.13-3.24-14.04,8.74-10.6,18.86,7.12,20.69,26.69,28.2,37.73,30.81v152.35c0,14.28-4.11,20.25-13.33,24.41-9.22,4.11-16.1,12.42-16.1,19.77v17.01h141.44v-15.15c0-16.06-5.42-21.39-12.74-25.35-12.06-6.53-14.67-17.32-14.67-30.65v-128.07c25.35,0,164.06-3.99,164.06-136.05ZM782.29,667.38c0-9.13,6.61-15.23,16.26-15.23s57.9,8.63,57.9,82.79-47.23,83.25-74.16,80.72v-148.28ZM1248.32,735.65c.08-105.37-91.72-129.49-133.13-129.49h-145.43c0,17.36.36,27.09,13.45,34.56,13.09,7.48,16.45,16.46,16.45,35.4v134.36c-10.72,4.19-18.74-.08-27.17-2.77-10.12-3.24-14.04,8.74-10.6,18.86,7.12,20.69,26.74,28.2,37.73,30.81v152.35c0,14.28-4.11,20.25-13.33,24.41-9.21,4.11-16.09,12.42-16.09,19.77v17.01h141.43v-15.15c0-16.06-5.42-21.39-12.69-25.35-12.11-6.53-14.68-17.32-14.68-30.65v-128.07c25.35,0,164.06-3.99,164.06-136.05ZM1086.67,667.38c0-9.13,6.61-15.23,16.26-15.23s57.86,8.63,57.86,82.79-47.22,83.25-74.12,80.72v-148.28ZM1581.1,1034.14c-9.18-4.16-13.33-10.13-13.33-24.41v-333.65c-.04-18.9,3.32-27.88,16.41-35.36h.01c13.09-7.47,13.44-17.2,13.44-34.56h-141.98c0,17.36.35,27.09,13.44,34.56,13.09,7.48,16.5,16.46,16.5,35.4v136.45h-82.03v-136.45c0-18.94,3.36-27.92,16.45-35.4,13.09-7.47,13.49-17.2,13.49-34.56h-142.03c0,17.36.39,27.09,13.45,34.56,13.09,7.48,16.49,16.46,16.49,35.4v134.36c-10.72,4.19-18.75-.08-27.17-2.77-10.13-3.24-14.04,8.74-10.6,18.86,7.12,20.69,26.69,28.2,37.73,30.81v152.35c0,14.28-4.11,20.25-13.33,24.41-9.21,4.11-16.1,12.42-16.1,19.77v17.01h141.04v-17.01c0-7.39-6.88-15.66-16.1-19.77-9.17-4.16-13.32-10.13-13.32-24.41v-151.75h82.02v151.75c0,14.28-4.15,20.25-13.32,24.41-9.22,4.11-16.1,12.42-16.1,19.77v17.01h141.04v-17.01c0-7.39-6.88-15.66-16.1-19.77ZM614.44,1031.69c-15.86-8.98-20.13-17.13-24.41-34.26-4.27-17.12-92.98-355.52-98.52-377.79-5.53-22.26-17.56-21.83-25.67-19.3-8.14,2.57-27.01,8.15-41.13,13.29s-13.29,13.73-8.15,24.84c5.15,11.15,6.45,19.26,3.88,29.58-1.19,4.75-18.75,72.03-37.81,145-12.18,4.07-22.11-2.53-30.81-5.34-10.13-3.24-13.92,8.7-10.6,18.86,5.62,17.17,17.95,29.75,28.04,37.74-12.01,45.77-23.93,91.57-35.75,137.4-4.71,18.86-11.55,26.97-22.27,30.41-10.72,3.4-18.63,9.41-18.63,20.57v18.23h117.15v-16.53c0-7.28-1.3-11.99-8.15-17.56-6.84-5.58-10.28-13.73-7.27-27.02.79-3.52,5.18-21.99,11.15-47.1h89.66c6.17,26.1,10.8,45.52,11.87,49.67,3.87,15.43-.83,22.27-8.98,25.71-8.15,3.44-10.92,9.85-10.92,17.56v15.23h145.39v-13.96c0-10.28-2.21-16.22-18.07-25.23ZM418.5,907.93l31.92-133.64,31.64,133.64h-63.56ZM2148.73,1034.73c-12.14-6.56-18.7-13.17-23.76-25.79-4.24-10.67-51.18-123.83-65.9-159.31,34.89-18.43,65.26-52.16,65.26-113.94,0-105.41-91.76-129.49-133.17-129.49h-145.42c0,17.36.35,27.09,13.44,34.56,13.09,7.48,16.5,16.46,16.5,35.4v134.36c-10.72,4.19-18.75-.08-27.18-2.77-10.12-3.24-14.08,8.74-10.6,18.86,7.12,20.69,26.7,28.2,37.74,30.81v152.35c0,14.28-4.16,20.25-13.33,24.41-9.22,4.11-16.1,12.42-16.1,19.77v17.01h141.43v-15.15c0-16.06-5.41-21.4-12.69-25.35-12.1-6.53-14.68-17.32-14.68-30.65v-128.07c6.74-.01,13.47-.29,20.18-.83,13.6,34.92,50.03,128.3,54.54,140.6,5.57,15.15-.52,22.23-9.1,26.82-8.58,4.55-11.23,8.11-11.23,17.68v14.99h148.83v-16.49c-.08-10.17-2.61-13.21-14.76-19.78ZM1962.61,815.66v-148.28c0-9.13,6.6-15.23,16.25-15.23s57.87,8.63,57.87,82.79-47.19,83.25-74.12,80.72ZM2437.34,1036.95l26.77-97.3s-7.95-2.53-16.8-4.11c-8.86-1.58-17.17,3.16-28.88,24.76-11.74,21.55-37.45,57.54-80.64,57.54h-22.86c-.44-2.66-.65-5.36-.63-8.07v-149.38h35.83c20.92,0,26.02,9.49,31.4,21.56,5.42,12.06,9.85,17.12,19.7,17.12h16.81v-137.08h-16.18c-10.76,0-16.49,10.12-23.49,22.82-6.96,12.69-14.91,19.7-29.82,19.7h-34.25v-128.39c0-12.46,1.54-20.56,6.24-26.81h17.21c43.15,0,60.63,27.6,72.38,49.2,11.74,21.59,19.97,26.34,28.87,24.72,8.9-1.58,16.81-4.12,16.81-4.12l-15.78-112.95h-237.82c0,17.36.39,27.09,13.45,34.56,13.09,7.48,16.49,16.46,16.49,35.4v134.36c-10.72,4.19-18.75-.08-27.17-2.77-10.13-3.24-14.04,8.74-10.6,18.86,7.12,20.69,26.69,28.2,37.73,30.81v152.35c0,14.28-4.11,20.25-13.33,24.41-9.22,4.11-16.1,12.42-16.1,19.77v17.01h219.15c9.69,6.49,15.75,14.95,15.75,25.15,0,16.06-17.13,28.28-33.9,22.35-9.25-3.28-14-.51-9.41,9.06,11.55,24.08,29.34,31.44,44.37,31.44s61.11-9.81,61.11-60.43-43.63-59.45-62.41-61.54ZM213.11,808.54c-61.5-72.42-77.87-100.42-77.87-119.68s10.16-43.31,44.02-43.31,41.84,27.65,49.48,58.22c7.63,30.53,14.55,34.17,22.54,34.17h18.19v-141.16h-13.48c-5.82,0-10.21,3.01-16.73,7.28-23.3,15.27-28.76-3.64-81.16-3.64s-99.31,42.6-99.31,112.8c0,30.34,14.83,61.94,35.87,92.95-5.54,1.92-11.56,1.96-17.13.12-12.06-4.32-14.95,8.58-10.64,17,15.07,29.63,48.34,32.87,65.94,32.31,7.98,9.46,16.13,18.79,24.16,27.85,46.95,53.12,49.83,79.3,49.83,95.67s-10.56,49.84-49.83,49.84-48.41-40.38-57.86-76.77-38.92-28.4-38.92-28.4v113.87c-31.21,8.82-59.96,24.44-59.96,65.57s32.39,54.58,54.94,54.58,40.02-14.55,45.12-25.47c5.11-10.91-1.66-13.25-7.63-11.98-24.01,5.06-38.21-7.28-38.21-25.47s15.67-31.29,33.82-31.29,44.02,13.85,80.76,13.85c76.42,0,117.15-70.96,117.15-116.09s-11.62-80.44-73.09-152.82Z"/>
</svg>