<?xml version="1.0" encoding="UTF-8"?>
<svg id="Layer_1" xmlns="http://www.w3.org/2000/svg" version="1.1" viewBox="0 0 1209.38 728">
  <!-- Generator: Adobe Illustrator 29.8.5, SVG Export Plug-In . SVG Version: 2.1.1 Build 2)  -->
  <defs>
    <style>
      .st0 {
        fill: #fff;
      }
    </style>
  </defs>
  <path class="st0" d="M0,339.83l5.66-33.23c17.04-68.68,73.1-126.2,143.71-138.73,23.34-4.14,47.19-3.08,70.39,1.29v-12.08c4.02-.79,7.25-4.32,11.33-4.53v20.39c50.4,15.25,91.69,58.63,97.41,112.15,5.12,47.94-21.66,90.2-57.78,118.92-5.47,4.35-11.19,8.21-16.97,12.09,49.36,13.51,88.45,61.73,92.12,112.92,5.42,75.52-45.76,142.67-114.68,168.12l-.07,25.07-10.6,5.79h-1.51l.75-26.43c-14.77,4.14-29.73,7.93-45.03,9.72-10.69,1.25-24.79,2.43-35.43,1.64-14.61-1.09-30.78-8.06-44.53-12.81-10.25,4.65-20.9,8.89-32.07,10.92s-28.84,2.87-39.87-.21c-15.46-4.32-22.12-15.61-18.88-31.36,6.19-30.09,51.51-32.88,75.34-25.85,13.58,4,25.3,12.5,38.03,18.39,20.57-21.29,32.61-52.08,39.39-80.68,5.9-24.9,7-46.06,7.13-71.34.42-81.58-.21-163.17,0-244.75,2.08-28.94,17.12-59.9,44.96-71.34l-4.93,28.3c-2.26,86.39,3.11,174.4.06,260.6-1.99,56.1-21.06,111.56-53.48,157.21-6.88,9.68-14.97,18.16-22.83,27.01,26.73,11.54,56.64,26.04,86.26,16.78,1.48-.46,5.32-1.17,5.78-2.53l-.26-510.04c-.81-1.36-7.4-2.47-9.3-2.79-42.75-7.15-88.26,6.06-120.24,34.89-54.81,49.4-64.85,134.42-50.22,203.54,5.33,25.15,15.3,50.08,31.35,70.22-38.06-11.38-59.35-53.39-66.85-89.84l-4.14-26.45v-30.96ZM231.09,412.33c17.52-.86,32.63-13.21,41.39-27.71,20.62-34.14,22.44-107.75,10.16-145.05-8.36-25.39-25.82-46.48-51.55-55.31v228.07ZM231.09,687.22c32.53-15.82,54.15-46.01,64.39-80.23,13.38-44.68,13.77-117.77-13.77-157.3-11.4-16.37-30.13-29.77-50.62-30.57v268.09ZM83.07,694.78c-9.62-3.93-18.79-8.93-28.51-12.66-11.18-4.3-21.4-8.71-33.4-4.33-8.75,3.19-12.86,11.41-6.45,19.26,11.01,13.47,46.81,6.84,61.39,1.7,1.67-.59,4.61-1.52,6-2.3.86-.47,1.28.05.96-1.67Z"/>
  <path class="st0" d="M1171.29,0l37,28.7c-2.55,53.68,3.41,110.56,0,163.88-2.69,42.03-21.32,92.27-53.22,120.85-6.86,6.14-11.97,12.35-19.15,2.49-11.72-16.1-9.65-54.75,1.07-71.17.89-1.36,4.83-6.38,5.99-6.86,1.62-.68.97,1.15,1.1,1.89,1.96,11.11,3.6,24.04,8.96,34.1,1.65,3.09,5.09,8.13,9.19,6.69,5.45-2.69,10.24-32.09,11.2-38.67,1.33-9.03,2.68-18.72,3.14-27.82.98-19.23-.7-39.22,0-58.52-7.74,7.42-13.3,18.33-20.41,26.03-2.38,2.58-4.07,4.87-7.97,2.72l-27.84-21.25c-.82-1.51-1.12-6.67-1.21-8.6-1.34-28.13-1.7-65.74,0-93.71.36-5.87.98-13.21,4.93-17.72L1166.76,0h4.53ZM1155.63,31.91c-1.19,1.13-2.32,5.89-2.49,7.7-2.75,30.21,2.12,64.54.03,95.18-.64,4.21,9.02,12.6,12.34,12.3,3.56-.32,11.28-13.2,11.74-16.92,2.17-17.72-.31-42.78-.71-61.05-.16-7.55.84-16.15.52-23.33-.07-1.47-.62-3.16-1.56-4.33-.59-.74-11.87-9.08-13-9.65-1.91-.96-5.22-1.49-6.88.09Z"/>
  <path class="st0" d="M934.17,503.71v-62.68l-33.99,71.74-36.24-55.13v74.76l-54.37,21.15v-177.09l51.75-21.43,34.34,61.08,30.41-86.66,60.6-24.34c1.87,1.17.37,1.58.37,1.87v173.69c0,1.36,1.01,1.95-1.28,3.26l-51.58,19.78Z"/>
  <path class="st0" d="M470.48,513.9c.25-.79,4.22-2.52,5.3-3.01,20.91-9.53,46.8-19.4,68.51-27.4,13.68-5.04,25.5-8.81,40.19-4.29,28.1,8.64,31.3,39.82,25.34,64.53-3.38,13.99-11.86,23.47-20.66,34.23l43.69,47.7-57.79,23.54-32.2-40.42-18.29,6.61-.86,53.73-53.22,21.87v-177.09ZM523.34,565.63c7.86-2.96,17.5-5.7,24.91-9.45,9.07-4.59,14.49-11.79,12.67-22.46-1.81-10.58-12.51-7.57-19.85-5.11-5.72,1.92-12.45,5.09-17.73,7.95v29.07Z"/>
  <path class="st0" d="M692.51,424.41v110.63c0,2.59,3.39,7.92,5.78,9.33,10.91,6.42,22.25-6.92,23.49-17.06l.27-114.9,53.16-21.21,1.16,2.59c-1.07,36.83,1.29,74.33,0,111.08-1.41,39.83-7.23,67.28-44.57,86.83-38.17,19.99-85,21.62-92.89-30.24l.11-114.65,53.5-22.4Z"/>
  <path class="st0" d="M641.15,151.41c-.83-4.65-15.91-11.82-15.91-14.34l16.68-23.04,25.67,19.24,3.58,6.24.14,201.49c.53,4.05,10.92,9.93,14.38,12.43l-18.89,26.42c-1.03.69-16.69-14.18-20.06-14.36-.65-.04-1.25.02-1.81.38-4.63,3.87-27.62,38.2-29.99,38.82-1.58.41-3.66-1.42-5.01-2.31-8.99-5.92-16.78-14-25.94-19.74l-1.79-5.39c1.99-32.66-2.51-68.18.01-100.5.33-4.29,1.45-9.82,4.16-13.21l41.96-42.62c5.5-3.46,8.09.72,12.8,2.61v-72.12ZM617.51,250.11c-2.7.83-3.38,6.79-3.57,9.27-2.47,31.58,1.91,66.31.01,98.22-.29,3.91,8.59,10.52,11.69,10.2,2.73-.28,12.08-12.85,12.42-16.32l-.51-89.23c-3.81-3.89-14.54-13.81-20.05-12.13Z"/>
  <path class="st0" d="M837.5,154.06c8.15-5.18,26.26-30.99,34.56-32.35,7.75-1.26,14.86,12.92,17.01,18.92,7.59,21.13,8.61,52.05,3.95,73.85-7.85,36.65-28.44,70.41-52.98,98.05l-33.1-24.07-.4-204.25c-.38-8.38-10.21-11.08-15.06-16.63l17.81-22.97,28.23,21.46v87.98ZM847.1,164.78c-3.3.99-8.05,10.63-9.56,13.87,1.87,27.64-2.62,58.86-.07,86.08.43,4.6,2.5,7.01,6.14,9.72,4.88,3.64,7.23,3.18,10.65-2.05,13.99-21.35,13.39-54.19,9.45-78.47-1.13-6.96-5.9-32.38-16.61-29.15Z"/>
  <path class="st0" d="M444.28,437.79l14.11,10.41-19.24,24.61-1.13.35c-8.42-5.71-20.02-17.98-29.86-7.98-7.61,7.75-14.04,21.32-21.51,28.87-1.11,1.12-2.95,2.66-4.5,1.75l-28.03-21.87-.86-95.8c-.18-1.32-.99-1.87-1.84-2.69-2.39-2.3-19.77-12.19-19.96-13.38l19.03-26.65,2.6.6,33.43,23.97.13,89.74c.75,6.41,3.85,14.81,11.33,9.08,7.9-6.04,11.46-16.06,12.1-25.66,1.45-21.64.64-50.16-.72-71.85-.17-2.69,1.5-3.53-.52-7.03-2.32-4.03-22.18-14.19-22.2-15.54l21.5-27.38,33.26,23.19c2.71,2.98,1.04,3.85,1.06,7.17.2,27.63-1.5,57.36,0,84.65.12,2.21.86,10.32,1.77,11.46Z"/>
  <path class="st0" d="M522.37,269.01c1.53-.35,3.27-.44,4.72.25l29.33,25.04.31,88.8c.79,3.59,18.44,13.65,18.58,15.25l-19.9,26.82-31.35-23.75-.76-3.02v-80.8c-.55-3.54-4.73-7.04-7.57-9.05-9.92-7.05-12.05-2.29-12.81,8.22-1.96,27.29,1.46,56.98.11,84.52.24,1.22.45,2.47.9,3.63,1.74,4.44,17.25,12.93,17.03,15.21l-22.03,27.59-29.06-23.84.63-34.55c-1.94-16.47,2.62-39.1-.37-54.83-.34-1.78-.6-2.79-1.89-4.15-2.86-3.03-22.7-15.9-22.69-17.33l19.32-25.24c.71-.17,1.45.48,2.06.82,4.4,2.47,20.21,17.22,23.41,17.07,2.01-.09,5.12-2.52,6.54-3.98,8.15-8.37,15.16-22.23,23.09-31.28.62-.75,1.43-1.18,2.37-1.4Z"/>
  <path class="st0" d="M782.97,199.52l.17,96.87c.91,3.21,15.37,10.96,14.99,13.47l-18.47,24.63-19.22-13.89-3.73-.03-30.45,38.04c-1.91-.88-3.81-1.65-5.62-2.74-6.02-3.65-16.5-11.81-22.03-16.48-1.43-1.21-4.25-3.52-4.58-5.24l-.04-106.49c.63-7.28,2.52-10.27,7.57-15.09,13.19-12.59,29.03-23.52,41.99-36.52,2.11-1.28,3.82-1.14,6.04-.15,5.69,2.51,18.14,13.7,24.24,18.04,2.91,2.07,6.01,3.89,9.14,5.58ZM748.16,214.69c-.65-.82-12.6-9.36-13.86-9.92-5.35-2.34-7.55.46-8.5,5.61v104.11c.33,3.11,8.33,8.46,11.02,8.53,3.09.08,11.81-11.57,12.28-14.58-1.78-29.02,2.53-61.2.08-89.85-.12-1.41-.07-2.72-1.01-3.9Z"/>
  <path class="st0" d="M1002.72,106.64l-.23,57.98-56.88,26.19c.43,9.17-1,19.59-.15,28.6.29,3.05.98,5.19,3.13,7.44.92.96,10.34,7.98,11.27,8.36,7.52,3.09,16.06-9.8,19.46-15.22,6.2-9.86,10.56-20.98,13.68-32.2l9.87-4.28c-3.56,26.58-16.31,52.73-34.71,72.14-3.14,3.31-12.96,13.18-17.23,11.96l-35.59-25.64-1.41-2.36.36-110.34,2.12-3.92,49.25-42.89,3.57-.12,33.49,24.29ZM945.49,178.22c10.6-1.58,22.44-9.24,23.44-20.74.98-11.3-.46-24.49-.42-35.88-4-3.49-15.41-14.29-20.72-10.17-.59.46-2.3,4.05-2.3,4.49v62.3Z"/>
  <path class="st0" d="M1090.5,118.56c-2.14-11.55-3.57-25.32-9.18-35.76-7.63-14.21-13.3-7.47-19.17,3.27-.5,27.56-.56,55.18-.31,82.75.03,3.77-1.59,6.34,1.04,10.21,1.92,2.81,16.96,11.93,16.97,13.16l-22.17,28.3-28.95-23.92-.33-90.29c-.47-1.45-1.11-2.75-2.16-3.89-4.57-4.99-14.69-9.78-19.92-14.81-.68-.65-1.98-1.35-1.81-2.48l19.27-24.57,29.34,21,35.35-45.79c5.32-4.69,10.4,3.78,12.38,7.9,8.4,17.51,7.34,46.65-1.28,63.98-2.08,4.18-4.96,8.65-9.06,10.94Z"/>
  <path class="st0" d="M105.73,644.93c3.46-14.25,5.41-28.78,6.82-43.39l-.07-290.81c2.25-37.2,21.44-75.59,56.67-90.96-8.43,18.9-16.27,38.41-18.11,59.29-.96,82.99,1.6,166.32-.79,249.17-.77,26.61-1.01,50.71-8.83,76.5-5.19,17.09-15.46,38.79-35.69,40.2Z"/>
</svg>