<?xml version="1.0" encoding="UTF-8"?>
<svg id="Layer_1" xmlns="http://www.w3.org/2000/svg" version="1.1" viewBox="0 0 170 24">
  <!-- Generator: Adobe Illustrator 29.8.5, SVG Export Plug-In . SVG Version: 2.1.1 Build 2)  -->
  <defs>
    <style>
      .st0 {
        fill: #fff;
      }
    </style>
  </defs>
  <g id="Page-1">
    <g id="cathaypacific-en-green">
      <path id="Fill-4" class="st0" d="M73.59,21.92c0-1.38,0-7.21,0-8.59s.78-1.48.78-1.48l.08-.08h-4.19l.08.08s.78.1.78,1.48,0,3.37,0,3.37h-5.77v-3.37c0-1.38.79-1.48.79-1.48l.08-.08h-4.19l.08.08s.78.1.78,1.48v8.59c0,1.39-.78,1.5-.78,1.5l-.08.08h4.19l-.08-.08s-.79-.12-.79-1.5v-4.07h5.77v4.07c0,1.39-.78,1.5-.78,1.5l-.08.08h4.19l-.08-.08s-.78-.12-.78-1.5h0ZM51.59,11.76c-1.38,0-1.58-.13-1.58-.13v2.34s.08-.06.08-.06c0,0,.63-1.01,2.01-1.01h1.97v9.02c0,1.39-.78,1.5-.78,1.5l-.08.08h4.19l-.08-.08s-.79-.12-.79-1.5v-9.02h1.93c1.38,0,2.05,1.01,2.05,1.01l.08.06v-2.34s-.19.13-1.57.13h-7.43ZM79.33,19.02l1.81-3.81,1.65,3.81h-3.46ZM86.83,21.91l-5.16-10.74-5.12,10.74c-.77,1.47-1.61,1.5-1.61,1.5l-.08.08h3.5l-.08-.08s-.98-.19-.36-1.5l.92-1.89h4.39l.89,1.89c.62,1.31-.36,1.5-.36,1.5l-.08.08h4.83l-.08-.08s-.89,0-1.61-1.5h0ZM95.11,11.76l.08.08s1.04.29.26,1.51c-.38.59-1.54,2.24-2.59,3.84-1.06-1.6-2.19-3.26-2.57-3.85-.78-1.22.26-1.5.26-1.5l.08-.08h-4.83l.08.08s.7.12,1.62,1.5c.38.58,2.34,3.33,3.4,4.93v3.65c0,1.39-.78,1.5-.78,1.5l-.08.08h4.19l-.08-.08s-.78-.12-.78-1.5c0-.58,0-2.05,0-3.65,1.06-1.6,3.02-4.33,3.41-4.92.91-1.38,1.95-1.51,1.95-1.51l.08-.08h-3.68ZM33.49,22.38c-2.52,0-4.26-1.65-4.26-4.67s1.69-4.99,4.35-4.99,3.76,2.15,3.76,2.15l.07.06v-2.54s-1.65-.81-4.01-.81c-4.25,0-6.92,2.62-6.92,6.15,0,2.84,2.2,5.96,6.75,5.96,1.72,0,3.72-.68,3.72-.68l.92-3.14-.1.07s-1.49,2.45-4.26,2.45h0ZM42.4,19.02l1.81-3.81,1.65,3.81h-3.46ZM49.91,21.91l-5.16-10.74-5.12,10.74c-.77,1.47-1.61,1.5-1.61,1.5l-.08.08h3.51l-.08-.08s-.98-.19-.36-1.5l.92-1.89h4.39l.89,1.89c.62,1.31-.36,1.5-.36,1.5l-.08.08h4.83l-.08-.08s-.89,0-1.61-1.5h0Z"/>
      <path id="Fill-6" class="st0" d="M115.11,19.02l1.81-3.81,1.65,3.81h-3.46ZM122.61,21.91l-5.16-10.74-5.12,10.74c-.77,1.47-1.61,1.5-1.61,1.5l-.08.08h3.5l-.07-.08s-.98-.19-.36-1.5l.92-1.89h4.39l.89,1.89c.62,1.31-.36,1.5-.36,1.5l-.08.08h4.83l-.08-.08s-.89,0-1.61-1.5h0Z"/>
      <path id="Fill-8" class="st0" d="M156.86,11.84l.08-.08h-4.19l.08.08s.78.12.78,1.5v8.59c0,1.38-.78,1.5-.78,1.5l-.08.08h4.19l-.08-.08s-.78-.12-.78-1.5v-8.59c0-1.38.78-1.5.78-1.5"/>
      <path id="Fill-10" class="st0" d="M130.74,22.38c-2.52,0-4.26-1.65-4.26-4.67s1.69-4.99,4.36-4.99,3.75,2.15,3.75,2.15l.07.06v-2.54s-1.66-.81-4.01-.81c-4.26,0-6.93,2.62-6.93,6.15,0,2.84,2.2,5.96,6.75,5.96,1.72,0,3.72-.68,3.72-.68l.92-3.14-.1.07s-1.49,2.45-4.27,2.45"/>
      <path id="Fill-12" class="st0" d="M142.99,11.76l.08.08s.78.12.78,1.5v8.59c0,1.38-.78,1.5-.78,1.5l-.08.08h4.19l-.08-.08s-.78-.12-.78-1.5h0v-4.16h2.47c1.38,0,1.5.61,1.5.61l.08.08v-2.52l-.08.08s-.12.6-1.5.6h-2.47v-3.75h2.97c1.38,0,1.96.79,1.96.79l.08.06v-2.1s-.2.13-1.58.13h-6.75Z"/>
      <path id="Fill-14" class="st0" d="M140.74,11.84l.08-.08h-4.19l.08.08s.78.12.78,1.5v8.59c0,1.38-.78,1.5-.78,1.5l-.08.08h4.19l-.08-.08s-.79-.12-.79-1.5v-8.59c0-1.38.79-1.5.79-1.5"/>
      <path id="Fill-16" class="st0" d="M169.41,19.93s-1.49,2.45-4.27,2.45c-2.52,0-4.26-1.65-4.26-4.67s1.69-4.99,4.36-4.99,3.76,2.15,3.76,2.15l.07.06v-2.54s-1.66-.81-4.01-.81c-4.25,0-6.93,2.63-6.93,6.15,0,2.84,2.2,5.96,6.75,5.96,1.71,0,3.71-.68,3.71-.68l.92-3.15-.1.07Z"/>
      <path id="Fill-18" class="st0" d="M106.21,13.34v-.45h.55c.67,0,1.37,0,1.79.14,1.11.33,1.66,1.17,1.66,2.5,0,1.08-.69,2.7-2.6,2.7-.55,0-1.12-.22-1.41-.35v-4.53ZM108.44,19.35c2.59,0,4.13-1.96,4.13-3.85,0-1.05-.39-2.91-3-3.57-.58-.15-1.23-.16-2.09-.16h-4.6s.08.07.08.07c0,0,.78.12.78,1.5v8.59c0,1.38-.78,1.5-.78,1.5l-.08.08h4.19l-.08-.08s-.78-.12-.78-1.5v-2.99c.37.16,1.1.41,2.23.41h0Z"/>
      <path id="Brush-wing" class="st0" d="M7.22,11.39c-.08.01-.16-.1-.2-.15-.01-.02-.05-.11-.04-.12.02-.01.1.02.13.04.06.05.1.11.13.22,0,.01,0,.02-.02.02M5.35,10.36c-.05.02-.18-.13-.22-.18-.07-.1-.13-.21-.2-.31-.06-.09-.14-.15-.15-.3,0-.02-.01-.06,0-.06.07,0,.14.13.18.18.03.03.06.07.08.11.03.05.05.12.09.17.04.06.1.12.15.18.03.03.06.06.08.11,0,.02.03.11.01.12M4.82,10.34s-.06-.03-.08-.05c-.07-.05-.12-.13-.12-.24,0-.01,0-.02.01-.02.08,0,.16.12.19.18,0,.02.03.06.03.09,0,.02,0,.03-.02.03M3.04,10.7s0,.02-.02.02c-.08,0-.11-.13-.15-.19-.03-.05-.06-.1-.09-.15-.02-.03-.05-.07-.07-.11-.02-.05-.03-.1-.06-.14-.01-.02-.04-.04-.06-.06-.05-.06-.09-.13-.12-.21,0-.03-.01-.06-.02-.08-.02-.05-.04-.1-.05-.15,0-.03-.01-.08,0-.09,0,0,0-.01.01-.01.06.01.13.17.16.22.03.06.09.11.12.18.03.06.04.13.07.19.02.04.06.08.09.12.04.05.06.12.09.18.03.07.07.12.1.18.01.03.02.08,0,.1M2.71,8.27s-.03-.06-.05-.1c-.01-.04-.01-.07-.03-.1-.05-.11-.11-.23-.16-.34-.02-.05-.05-.13-.03-.19,0,0,.02,0,.03,0,.02.02.03.02.04.04.01.02.01.03.02.05.02.04.06.08.08.12.04.09.05.19.09.28.03.06.07.11.1.17.01.03.02.06.03.1,0,.03,0,.06,0,.08,0,.03,0,.05-.01.05-.08,0-.1-.1-.13-.16M19.59,15.76c-.1-.36-1.16-.21-2.03-.29-.79-.07-1.81-.21-3.03-.64-1.14-.4-2.25-.85-3.22-1.38,0,0-.39-.21-.43-.23-.08-.05-.14-.08-.22-.13-.05-.03-.12-.07-.17-.09-.07-.03-.11-.06-.17-.1-.06-.04-.14-.08-.2-.11-.09-.05-.14-.1-.23-.16-.05-.04-.08-.05-.15-.09-.04-.03-.12-.07-.15-.09-.08-.05-.13-.09-.2-.15-.05-.03-.08-.05-.14-.09-.06-.03-.11-.08-.16-.11-.03-.02-.07-.04-.09-.07-.06-.05-.11-.1-.17-.15-.06-.04-.11-.09-.16-.13-.03-.03-.09-.07-.13-.1-.09-.06-.14-.11-.23-.17-.06-.04-.1-.1-.16-.14-.06-.05-.12-.1-.18-.15-.04-.03-.09-.07-.12-.1-.04-.05-.08-.08-.12-.13-.03-.04-.09-.07-.13-.11-.05-.07-.13-.14-.2-.19-.04-.04-.06-.06-.07-.08-.01-.02-.03-.04-.06-.07-.03-.04-.05-.05-.06-.06-.02-.01-.03-.03-.08-.08-.02-.02-.04-.05-.06-.08-.02-.03-.04-.06-.06-.07-.04-.05-.07-.08-.1-.11-.02-.02-.04-.05-.07-.08-.02-.02-.03-.04-.04-.06-.01-.02-.03-.04-.04-.06-.03-.03-.04-.02-.05-.01-.02.01-.02.04,0,.08.02.04.05.09.07.12,0,0,0,.01.01.01,0,.01.02.03.02.04.01.02.02.04.04.06.03.04.07.08.1.11.01.01.02.02.03.03.02.02.04.05.06.08.02.03.04.06.06.08.01.01.02.03.03.04.01.02.02.03.04.04.02.02.04.04.06.06.03.03.07.07.1.09.02.02.05.05.08.07.07.08.14.15.19.23.03.04.09.07.13.1.04.03.07.09.11.13.03.03.08.08.11.11.07.08.11.13.19.19.05.04.09.07.13.12.02.03.1.1.12.14.07.09.1.17.09.18-.05.01-.17-.09-.23-.14-.06-.04-.07-.05-.12-.09-.01-.01-.1-.07-.13-.11-.02-.02-.09-.09-.11-.11-.1-.12-.13-.13-.24-.24-.08-.08-.18-.15-.26-.22-.02-.03-.05-.05-.07-.08-.03-.03-.06-.05-.08-.08-.04-.05-.09-.14-.13-.17-.05-.03-.08-.07-.13-.1-.02-.01-.03-.03-.05-.05-.02-.02-.05-.04-.07-.06-.05-.07-.11-.14-.16-.21-.03-.03-.06-.06-.09-.1-.05-.07-.1-.15-.15-.22-.08-.1-.18-.17-.26-.27-.07-.1-.12-.22-.19-.33-.03-.05-.08-.08-.11-.12-.02-.03-.03-.06-.05-.08-.04-.06-.08-.11-.12-.17-.05-.07-.08-.15-.13-.23,0-.01-.03-.06-.06-.1-.03-.04-.06-.08-.09-.14-.03-.05-.05-.09-.08-.13-.02-.04-.04-.07-.06-.1-.02-.03-.05-.08-.06-.09-.05-.07-.06-.1-.11-.17-.03-.04-.06-.07-.09-.06-.02.01-.01.04,0,.06.02.06.02.05.04.09.04.07.05.1.09.16.02.03.05.1.08.14.03.04.05.08.07.11.02.03.05.12.08.16.02.03.05.08.07.12.04.08.09.14.13.2.03.05.05.1.08.15.05.08.12.16.17.24.03.06.06.12.1.18.03.05.08.09.11.14.04.06.06.12.1.18.03.05.07.09.1.13.05.08.1.15.15.23.03.04.07.07.1.11.04.06.07.12.12.17.05.05.07.08.1.12.06.07.21.28.18.28-.09.01-.25-.18-.32-.25-.05-.05-.11-.09-.15-.14-.06-.08-.1-.16-.15-.23-.02-.03-.05-.05-.07-.07-.04-.05-.07-.1-.12-.15-.02-.02-.04-.03-.06-.05-.07-.09-.12-.18-.19-.27-.03-.04-.06-.07-.09-.11-.02-.03-.03-.06-.05-.09-.03-.04-.06-.08-.09-.12-.02-.03-.03-.06-.05-.09-.04-.05-.08-.1-.12-.16-.03-.04-.04-.1-.07-.15-.07-.11-.16-.23-.23-.34-.02-.03-.03-.06-.04-.09-.06-.09-.11-.19-.17-.29-.02-.03-.03-.07-.05-.11-.03-.04-.07-.07-.1-.11-.02-.03-.03-.07-.05-.1-.02-.05-.05-.1-.08-.14-.02-.03-.02-.06-.04-.08-.07-.11-.13-.23-.19-.35-.03-.06-.08-.12-.1-.19-.03-.07-.07-.14-.1-.21-.02-.05-.03-.09-.05-.14-.03-.07-.09-.14-.12-.21-.02-.05-.04-.1-.06-.14-.01-.03-.04-.05-.06-.04-.02.01-.02.04,0,.08.02.08.07.17.09.21.04.09.06.18.1.27.02.05.05.1.08.15.04.08.08.17.11.25.02.05.04.09.07.14.01.02.03.05.04.08.03.06.03.12.06.17.03.06.07.1.1.16.13.29.27.56.43.82.05.07.07.16.11.23.05.07.11.13.16.2.04.06.05.14.08.21.05.1.12.18.18.27.02.03.02.05.04.08.02.03.05.07.07.1.03.05.04.1.08.14.03.05.08.09.12.13.04.06.07.13.12.19.03.04.08.07.11.11.05.07.22.29.27.35.08.1.21.24.27.36.02.04.09.13.07.15-.04.02-.21-.16-.23-.19-.07-.07-.13-.16-.19-.24-.01-.02-.18-.18-.19-.19-.02-.02-.03-.04-.05-.06-.04-.07-.07-.15-.12-.21-.02-.03-.05-.05-.07-.07-.04-.05-.06-.11-.1-.16-.06-.08-.13-.15-.19-.23-.06-.09-.11-.19-.17-.27-.03-.04-.07-.08-.1-.13-.01-.02-.02-.04-.03-.06-.02-.04-.05-.08-.07-.11-.02-.04-.03-.07-.05-.1-.07-.1-.13-.22-.2-.32-.03-.05-.05-.1-.08-.14-.05-.08-.11-.15-.16-.23-.06-.09-.09-.2-.15-.3-.04-.06-.08-.12-.12-.18-.04-.07-.06-.14-.1-.21-.03-.06-.08-.12-.11-.18-.03-.07-.05-.13-.09-.2-.02-.04-.04-.07-.06-.11-.02-.05-.03-.09-.05-.14-.06-.13-.15-.25-.21-.38-.04-.09-.08-.19-.12-.28-.02-.05-.03-.1-.05-.15-.05-.12-.12-.24-.17-.36-.02-.06-.04-.12-.07-.19,0-.02,0-.03-.01-.05-.02-.05-.06-.11-.08-.16-.02-.06-.04-.13-.06-.19-.08-.21-.16-.44-.23-.65-.01-.04-.01-.09-.03-.13-.04-.11-.08-.22-.12-.33-.02-.06-.08-.04-.06.02.02.08.03.09.04.15,0,.03.01.06.02.09,0,.04.03.08.04.11.02.07.02.13.05.19.03.09.06.17.09.27,0,.05.02.09.03.14.01.04.03.09.05.13.05.11.09.22.13.33.02.06.03.13.05.19.02.04.04.07.06.11.01.03.02.06.03.09.03.07.05.14.09.22.03.06.06.12.08.18.01.03.01.06.02.09.07.19.14.39.22.56.02.04.03.09.05.14.02.04.04.08.06.11,0,.02.02.05.03.07.03.05.07.1.09.15.07.15.13.29.22.41.08.12.12.27.18.41.03.07.07.12.1.18.02.03.03.06.04.1.04.07.06.14.11.2.04.05.03.06.07.14,0,.02.04.16.04.16-.01,0-.08-.03-.1-.06-.03-.03-.08-.08-.11-.16-.02-.04-.05-.1-.07-.14-.04-.09-.11-.17-.17-.25-.03-.05-.05-.1-.07-.16-.05-.1-.1-.19-.14-.29-.02-.04-.05-.08-.07-.12-.02-.04-.04-.08-.06-.12-.05-.08-.11-.18-.16-.27-.03-.07-.05-.14-.08-.2,0-.02-.03-.04-.04-.06-.02-.03-.03-.07-.05-.11-.02-.05-.06-.1-.08-.15-.05-.1-.08-.21-.12-.32-.02-.05-.06-.09-.08-.14-.03-.07-.04-.17-.07-.24-.09-.2-.19-.41-.27-.63-.01-.04-.02-.08-.03-.11-.03-.09-.08-.18-.11-.27-.01-.04-.02-.08-.03-.12-.02-.06-.05-.13-.08-.19,0-.02,0-.04-.02-.06-.03-.06-.04-.13-.07-.19-.01-.03-.04-.06-.05-.1-.02-.06-.02-.14-.04-.2-.03-.09-.07-.18-.1-.27-.02-.05-.02-.1-.04-.15-.02-.06-.04-.12-.06-.18-.02-.06-.02-.12-.04-.19-.01-.05-.03-.1-.05-.14-.03-.08-.04-.17-.07-.25,0-.01-.01-.03-.02-.04,0-.02-.02-.04-.04-.04-.02,0-.02.04-.02.06,0,.06.03.12.05.17.02.05.03.11.04.16,0,.03,0,.07.01.1.01.05.03.1.04.14.01.05,0,.09.02.13.03.1.07.22.1.32.01.05.02.11.03.16.02.05.04.11.06.16.02.04.02.09.04.13.02.04.04.09.06.14.02.06.02.13.04.19.04.1.08.19.12.29.01.03.01.07.03.11.03.08.05.17.08.25.04.12.1.23.14.35.04.12.05.25.1.36.02.05.08.09.1.14.02.03.01.07.02.11.01.04.03.09.05.13,0,.04.02.07.03.11.01.04.05.09.06.13.03.07.05.14.09.2.03.05.07.09.09.14.03.06.04.12.06.18.04.09.09.17.12.26.03.08.04.17.08.24.04.07.09.14.13.21.02.05.05.11.07.16.02.04.06.08.08.13.03.05.06.11.08.17.02.04.03.08.05.12.04.06.06.1.1.16.03.05.07.11.09.17.02.04.04.09.06.13.03.04.06.07.09.11.02.04.06.18.04.18-.03.01-.11-.07-.13-.1-.07-.08-.1-.19-.16-.27-.06-.09-.1-.14-.15-.25-.03-.06-.08-.17-.11-.22-.03-.05-.08-.1-.1-.15-.02-.05-.03-.1-.05-.15-.03-.07-.1-.11-.13-.18-.04-.08-.05-.16-.09-.23-.02-.03-.04-.07-.06-.11-.02-.05-.03-.09-.05-.14-.04-.09-.11-.17-.15-.27-.05-.1-.07-.2-.12-.3-.02-.05-.07-.1-.09-.15-.03-.07-.05-.14-.08-.21-.02-.04-.05-.08-.07-.13-.03-.06-.04-.13-.07-.19-.06-.14-.13-.29-.19-.43-.02-.05-.03-.11-.05-.17-.02-.05-.05-.1-.07-.14-.06-.13-.08-.27-.13-.4-.03-.06-.06-.12-.09-.19-.04-.11-.06-.22-.09-.33-.06-.17-.11-.35-.17-.51-.02-.05-.02-.1-.04-.15-.02-.05-.04-.1-.05-.15-.01-.04-.02-.1-.03-.15-.04-.14-.09-.28-.14-.43,0-.03-.01-.1-.02-.14,0-.02-.02-.05-.03-.08-.01-.03-.01-.06-.02-.09-.03-.1-.06-.23-.09-.33,0-.03-.01-.08-.02-.12-.05-.15-.07-.33-.13-.47-.01-.03-.03-.05-.05-.05-.03,0-.02.04-.02.06,0,.07.03.13.04.18,0,.03,0,.06,0,.09,0,.03,0,.06.01.08.03.09.06.19.09.28,0,.04,0,.11.01.16.04.14.07.31.12.44.05.12.06.25.09.38.01.05.01.11.02.16,0,.05.04.09.05.13.01.03.01.06.02.09.03.09.05.18.08.27.02.06.06.12.08.18,0,.03,0,.05.01.08.01.06.03.12.04.19.04.12.09.26.13.38.02.07.03.14.06.2.1.27.2.53.29.79.02.06.03.12.05.17.02.06.06.11.08.16.03.07.04.14.07.21.03.09.07.15.1.24.02.04.03.09.05.13.02.03.04.06.06.09.03.05.03.12.05.17.03.05.07.1.1.14.03.05.03.1.05.16.04.08.08.15.12.24.01.04.02.07.04.1.02.04.05.08.07.12,0,0,0,0,0,0,0,0,0,.01,0,.02,0,.02,0,.04.02.05,0,.02.03.06.04.08,0,0,.02.03.04.05,0,0,.01.02.02.03.03.05.04.13.07.19.03.06.08.11.11.17.02.05.03.16,0,.17-.12,0-.13-.17-.17-.26-.03-.07-.08-.12-.12-.19,0-.01-.02-.04-.03-.07,0-.02-.02-.05-.03-.07-.02-.03-.02-.03-.03-.05-.01-.02-.04-.06-.06-.08,0,0,0,0,0,0-.05-.07-.08-.18-.11-.23-.02-.03-.04-.06-.06-.08-.03-.05-.05-.1-.07-.16-.02-.05-.06-.09-.08-.15-.03-.06-.03-.13-.06-.19-.01-.03-.04-.06-.06-.1-.03-.07-.05-.14-.09-.21-.02-.03-.04-.06-.06-.1-.03-.06-.04-.12-.07-.17-.06-.11-.13-.24-.18-.36-.03-.07-.04-.14-.07-.21-.03-.06-.06-.12-.09-.18-.02-.04-.02-.08-.04-.12-.02-.07-.05-.14-.08-.2-.01-.05-.03-.15-.04-.19-.02-.05-.04-.1-.07-.15-.03-.07-.04-.15-.08-.22-.02-.06-.05-.12-.07-.17-.02-.05-.02-.09-.04-.14-.01-.03-.04-.07-.05-.11-.02-.04-.03-.11-.04-.17-.02-.06-.05-.12-.07-.19-.01-.05-.01-.15-.02-.18-.07-.19-.13-.4-.19-.59-.03-.09-.04-.18-.07-.27,0-.03,0-.08-.02-.11-.02-.06-.04-.11-.06-.17,0-.04-.02-.08-.02-.12,0-.04-.03-.08-.05-.12-.04-.12-.06-.24-.09-.35-.01-.05-.01-.11-.02-.15-.04-.14-.05-.3-.1-.45,0-.04-.02-.09-.03-.13-.07-.28-.1-.59-.18-.85-.02-.05,0-.12,0-.17-.02-.06-.03-.12-.05-.17,0-.03,0-.05-.01-.08-.01-.04-.03-.08-.06-.08-.03,0-.02.04-.02.07,0,.06,0,.11.02.16.01.04,0,.08.02.11.03.09.03.21.05.28,0,.03,0,.08,0,.11,0,.04.04.09.05.13,0,.06,0,.13.02.19.01.05.03.1.04.15.01.04,0,.08.02.12.01.04.03.08.04.13,0,.05,0,.12,0,.16.06.24.08.53.15.76,0,.03.01.07.02.1.06.2.1.42.17.62,0,.03,0,.06.01.1.02.07.04.15.05.22,0,.03,0,.06.02.09.02.07.05.15.07.22,0,.04.01.07.02.11,0,.03.02.06.03.09.01.04,0,.08.02.12,0,.02.03.05.03.07,0,.04.01.09.03.13.02.05.04.1.07.15.02.04.01.09.03.13.03.07.06.16.09.23.02.06.03.13.05.19.02.04.03.09.05.13,0,.03.01.06.03.1.01.03.04.08.06.12.02.04,0,.1.02.15.01.05.04.09.06.13.02.05.01.09.03.14.01.04.04.07.05.1.01.04.03.08.04.12.01.03.03.05.04.08.02.05.04.09.06.14.03.07.03.15.05.22,0,.02,0,.07,0,.08-.03,0-.06-.04-.09-.07-.04-.05-.07-.11-.1-.17,0-.02-.01-.05-.02-.07-.02-.05-.04-.11-.06-.16-.01-.03-.03-.07-.04-.1-.02-.05,0-.11-.03-.15-.02-.04-.04-.06-.06-.1-.01-.03-.02-.07-.03-.1-.02-.04-.04-.07-.06-.11-.02-.04-.01-.07-.03-.11-.01-.05-.03-.1-.05-.14-.02-.05-.05-.09-.07-.14,0-.03-.01-.05-.02-.08-.01-.04-.03-.07-.05-.11,0-.03-.01-.05-.03-.08-.02-.04-.04-.08-.05-.13-.01-.04-.01-.07-.03-.11-.02-.06-.04-.13-.06-.19-.01-.05-.02-.09-.03-.14-.02-.05-.04-.11-.06-.16-.02-.04-.02-.09-.03-.14-.02-.06-.05-.11-.07-.18-.01-.05-.01-.1-.02-.14-.03-.11-.07-.24-.11-.36-.04-.13-.04-.28-.08-.41-.03-.09-.06-.19-.09-.28-.01-.05-.01-.09-.02-.14-.03-.1-.06-.24-.1-.35-.02-.06-.01-.12-.03-.18-.02-.06-.02-.14-.04-.2-.01-.04-.03-.07-.04-.12-.01-.05,0-.11-.02-.15,0-.04-.08-.27-.08-.31,0-.04,0-.12-.01-.15,0-.02-.04-.12-.04-.14,0-.03,0-.06-.02-.11-.01-.05-.04-.16-.04-.2,0-.03,0-.1-.01-.13,0-.03-.03-.11-.04-.16-.02-.07,0-.14-.02-.2-.01-.05-.03-.09-.05-.13-.01-.04-.02-.09-.03-.11,0-.03,0-.11,0-.13,0-.04-.02-.1-.02-.15,0-.07-.02-.15-.03-.2,0-.03,0-.06-.01-.08C.36.06.34,0,.3,0c-.03,0-.04.03-.02.07.01.06.02.1.03.16,0,.03,0,.1,0,.13,0,.04,0,.05,0,.09,0,.02,0,.05.01.07,0,.03.01.06.01.08,0,.03,0,.05,0,.09,0,.02,0,.03,0,.06s.01.04.01.07c0,.02,0,.04,0,.07,0,.03,0,.05.01.07.01.05.05.11.03.19-.01.08,0,.15.03.21,0,.04,0,.09,0,.13.02.06.03.12.04.17.01.05,0,.09.02.14.02.06.06.15.07.18,0,.03,0,.11.01.16,0,.05.02.11.02.14,0,.03,0,.05,0,.07,0,.02.04.13.04.16,0,.03,0,.04.01.07,0,.03.03.15.04.19,0,.04,0,.06.01.1.01.06.04.11.05.17,0,.04,0,.07.01.1.01.05.03.1.04.15,0,.04,0,.08.02.12.02.09.03.17.05.26.01.05.04.1.06.14.01.04.02.09.03.14.01.04.04.07.05.11,0,.04,0,.07.01.11,0,.04.03.08.03.12,0,.03,0,.06.01.09.01.04.03.07.04.1,0,.04,0,.09.02.13.01.05.03.1.05.15.01.04,0,.09.02.14.03.1.06.22.1.32.02.05.01.11.03.16.01.04.03.06.05.09.01.03,0,.07.01.11.02.06.03.15.05.21.02.07.07.13.09.19.02.07.03.14.05.22.02.06.05.12.08.18.02.05.01.12.03.17.02.06.06.1.09.16.03.07.04.14.06.21,0,.03.01.06.02.09.03.09.07.16.1.25.01.04.02.07.03.11.02.06.05.12.07.18.02.05.06.1.08.16.02.05.03.1.05.15.02.05.04.1.06.15.01.03.01.06.03.09.06.14.13.27.2.4.03.07.05.15.08.22.03.06.06.11.09.17.02.04.02.08.04.11.03.07.08.15.11.22,0,.02.03.09.02.12,0,0,0,0,0,.01-.02,0-.07-.03-.09-.06-.09-.08-.1-.24-.16-.35-.02-.03-.04-.07-.05-.1,0-.02-.01-.05-.02-.07-.04-.07-.08-.13-.12-.21-.02-.05-.03-.12-.05-.17-.1-.21-.21-.42-.31-.63-.04-.1-.05-.21-.09-.31-.02-.06-.06-.11-.09-.17-.02-.05-.03-.09-.05-.14-.03-.06-.07-.12-.09-.18-.01-.04-.02-.09-.04-.13-.02-.05-.05-.08-.07-.13-.03-.07-.03-.13-.06-.21-.01-.04-.03-.08-.04-.12-.01-.04-.01-.07-.03-.11-.03-.08-.08-.15-.11-.23-.02-.06-.02-.13-.04-.18-.02-.04-.05-.08-.07-.13-.02-.05,0-.11-.02-.16-.01-.05-.04-.11-.05-.16-.01-.03-.01-.06-.02-.1-.02-.07-.05-.13-.07-.2-.01-.03-.01-.06-.03-.09-.02-.04-.05-.08-.06-.12-.02-.06-.02-.13-.04-.19-.03-.08-.06-.15-.08-.23,0-.03,0-.05-.01-.08-.02-.07-.03-.15-.05-.22,0-.03,0-.06-.01-.1-.02-.07-.04-.14-.06-.2-.01-.04-.01-.08-.02-.13-.03-.11-.06-.23-.1-.33,0-.03,0-.06-.01-.09-.03-.08-.06-.18-.08-.26,0-.05,0-.09-.02-.14-.01-.06-.03-.11-.04-.17,0-.03,0-.05,0-.07,0-.04,0-.07-.01-.11-.04-.15-.09-.33-.13-.48,0-.05-.01-.11-.02-.16,0-.04,0-.08-.02-.12-.01-.04-.03-.08-.03-.12,0-.06,0-.13-.02-.19,0,0,0,0,0-.01-.01-.08-.05-.23-.06-.29,0-.07-.02-.15-.03-.22,0-.05,0-.1-.02-.15-.01-.08-.03-.14-.04-.22,0-.05,0-.1,0-.14,0-.03,0-.08-.04-.08S0,.45,0,.49c0,.08.01.18.02.23.01.09,0,.18.01.27,0,.05.02.1.03.15.01.09.02.18.03.26,0,0,0,0,0,0,0,.04,0,.08.01.11,0,0,0,0,0,.01,0,0,0,0,0,0,0,0,0,0,0,0h0s0,.03.01.05c0,.03,0,.06.01.09.03.1.02.21.05.31.04.15.06.31.1.45.01.04,0,.08.01.13.01.05.02.09.03.14.01.06,0,.11.02.17.01.05.03.1.04.15.02.06.02.12.03.19.02.06.04.14.05.2.01.07.02.16.03.24.01.07.05.14.06.22,0,.02,0,.05,0,.07,0,.05.02.1.04.15,0,.02,0,.04.01.07.02.09.05.21.08.31,0,.03.01.05.02.08.02.07.04.12.05.15,0,.03.01.07.02.1.01.05.03.1.04.14,0,.03.01.07.02.1.01.04.03.08.05.12.03.09.03.18.06.26.02.05.04.1.06.15.01.05.02.11.03.16.03.08.06.18.09.26.03.1.06.2.09.3.01.04.01.07.02.11.03.09.06.2.09.29.02.05.02.1.04.14.03.08.08.14.11.22.02.07.03.14.06.2.03.09.07.17.11.26.02.06.03.12.06.18.02.05.05.1.07.15.02.04.03.09.05.13.01.03.05.09.07.14.03.06.03.13.06.19.04.1.08.2.13.3.02.04.02.07.03.11.02.07.07.12.1.18.03.06.03.12.06.18.04.08.07.13.07.25,0,.01,0,.02-.02.02-.02,0-.05-.03-.06-.04-.06-.06-.07-.12-.11-.21-.06-.13-.14-.26-.2-.38-.03-.07-.04-.14-.08-.21-.02-.04-.05-.08-.06-.13-.03-.06-.04-.12-.07-.18-.04-.08-.08-.17-.12-.26-.01-.03-.02-.07-.03-.1-.02-.03-.04-.07-.06-.1-.02-.06-.04-.12-.06-.18-.05-.11-.1-.22-.14-.33-.04-.1-.06-.2-.09-.31-.01-.04-.04-.09-.05-.13-.01-.04-.01-.07-.03-.11-.03-.09-.08-.19-.12-.29-.02-.04-.03-.09-.04-.14-.02-.06-.05-.12-.07-.18-.03-.08-.03-.16-.06-.24-.06-.17-.14-.35-.19-.53,0-.04,0-.08-.02-.13-.03-.09-.06-.19-.09-.29-.03-.11-.03-.22-.06-.32-.04-.13-.09-.27-.13-.41-.01-.04,0-.08-.02-.12-.03-.1-.06-.22-.1-.32-.02-.05-.02-.1-.04-.14-.02-.05-.08-.03-.07.03,0,.06.02.13.03.16,0,.04,0,.08.02.12.02.07.04.13.06.2.02.07.02.13.04.2.01.03.02.07.03.11.02.07.02.15.04.21.02.05.03.11.05.16.01.04,0,.06.02.1.02.06.04.13.06.19,0,.04,0,.07.01.1.01.05.03.1.04.15.01.05.01.11.03.16.03.09.06.18.09.26.03.09.04.19.07.28.06.16.11.35.17.52.02.04.01.09.02.13.02.07.03.14.06.21.01.03.03.07.05.1.02.04.02.08.04.13.01.03.04.07.05.1.02.05.01.12.03.17.02.04.04.08.05.13.02.05.02.09.04.14.02.04.04.07.06.11.02.04.02.07.03.11.01.04.04.08.05.12.02.04.02.09.04.13.02.04.04.07.06.11.01.04.02.09.03.13.03.06.07.12.09.18.02.05.02.1.04.14.02.05.06.11.08.16.03.07.06.15.09.21.05.12.07.25.13.37.04.09.09.17.13.26.02.05.03.1.05.14.02.05.07.1.09.15.02.05.03.11.06.16.03.07.07.13.1.19.02.04.02.07.04.11.03.07.09.13.12.2.02.05.03.09.05.14.04.08.09.14.13.22.03.06.04.12.08.17.05.08.09.13.13.22.03.05.08.13.1.19.03.06.07.1.1.16.03.05.06.11.09.17.03.06.07.1.1.16.06.09.1.19.16.28.04.06.09.13.13.19.12.16.29.46.36.56.06.08.11.18.17.26.04.06.1.13.14.19.04.05.07.1.11.16l.03.04c1.53,1.95,3.11,3.24,4.44,4.09h0c.7.44,1.08.57,1.08.57.09.04.03.1-.02.13l-7.91,5.06s-.09.06-.06.11c.02.04.1.02.12,0,6.35-2.23,10.95-4.06,13.76-5.4,2.85-1.36,3.81-2.13,3.71-2.52"/>
    </g>
  </g>
</svg>