<?xml version="1.0" encoding="UTF-8"?>
<svg id="Layer_1" xmlns="http://www.w3.org/2000/svg" version="1.1" viewBox="0 0 923.07 363.8">
  <!-- Generator: Adobe Illustrator 29.8.5, SVG Export Plug-In . SVG Version: 2.1.1 Build 2)  -->
  <defs>
    <style>
      .st0 {
        fill: #fff;
      }
    </style>
  </defs>
  <path class="st0" d="M522.07,160.04h-29v-69.5c0-.47-1.18-6.61-1.44-7.56-3.13-11.74-14.63-15.67-25.55-11.42-9.31,3.62-10.49,15.17-11.06,23.95-1.35,20.98,1.09,43.41.04,64.54h-29v-71.5c0-2.91-3.37-11.1-5.47-13.53-5.68-6.57-19.59-6.58-25.88-.83-1.49,1.36-5.64,8.91-5.64,10.36v74l-1.5,1.5h-28.5V44.04h28.5l2,8c15.36-15.89,43.34-12.6,56,4.99,15.08-18.82,53.45-21.27,67.73-.71,3.8,5.47,8.77,19.79,8.77,26.23v77.5Z"/>
  <path class="st0" d="M302.87,205.34c102.62-7.24,95.51,179.96-12,156.4-70.03-15.35-68.85-150.7,12-156.4ZM304.87,235.34c-50.29,4.09-42.18,111.48,12.26,97.26,40.16-10.49,36.82-101.26-12.26-97.26Z"/>
  <polygon class="st0" points="414.07 246.04 429.57 314.05 447.11 246.09 470.61 245.98 489.57 314.04 506.57 246.04 534.07 246.04 500.61 361.11 477.21 360.91 460.06 290.04 442.03 361 417.03 360.58 384.07 246.04 414.07 246.04"/>
  <path class="st0" d="M166.07.04v49.5c0,.13-1.96,2.65.5,2.48.28-.02,2.92-3.08,4.16-3.82,25.22-14.81,55.47-3.32,61.87,25.8,3.71,16.85,4.56,65.19,2.52,82.59-.17,1.46-.12,2.57-1.55,3.45h-28.5v-72.5c0-2.59-3.97-10.87-6.1-12.9-7.38-7.04-23.47-6.11-29.09,2.71-.91,1.43-3.81,7.97-3.81,9.19v72l-1.5,1.5h-28.5V14.04L166.07.04Z"/>
  <path class="st0" d="M121.94,127.19c2.2,3.77-13.37,20.45-16.95,23.27-19.74,15.52-53.1,15.58-73.83,2C-6.14,128.02-9.08,60.03,17.67,27.14,45.87-7.52,102.68-4.4,123.04,36.55l-27.97,13.06c-7.2-12.99-19.08-17.03-33.49-15.56-41.41,4.25-41.3,93.66,1,97.98,17.58,1.8,25.57-5.5,35.11-18.91l24.24,14.07Z"/>
  <path class="st0" d="M345.07,112.04h-69c2,22.73,28.44,29.35,43.49,14.17,2.95,2.67,20.6,15.41,20.36,18.15-.36,4.28-15.34,12.92-19.58,14.45-52,18.79-84.7-31.52-70.53-78.53,14.45-47.97,75.6-52.8,91.54-4.02.93,2.85,3.72,12.94,3.72,15.28v20.5ZM317.07,89.04c-3.11-27.56-38.11-28.76-40,0h40Z"/>
  <path class="st0" d="M642.07,361.04h-30v-71.5c0-1.12-2.95-8.76-3.79-10.21-2.35-4.01-6.17-6.57-10.8-7.21-11.59-1.6-20.26,1.24-23.73,13.09-.35,1.2-1.68,7.57-1.68,8.32v67.5h-29v-112.5c0-.35-1.77-1.11.5-2.5h28.5c.38,1.06-1.2,8.15,1.49,6.99.73-.31,1.93-2.11,3.18-2.83,25.86-15.02,56.5-4.3,62.85,25.83,5.64,26.78.88,57.64,2.49,85.01Z"/>
  <path class="st0" d="M587.14,149.96l9.02-22.85c6.86,1.61,12.74,5.63,19.91,7.43,8.22,2.08,35.35,6.87,36-6.09.32-6.46-7.56-9.56-12.45-11.46-17.03-6.61-45.8-10.09-49.3-32.7-7.68-49.63,56.62-49.04,86.34-31.28l-9.2,22.97c-5.73-1.55-10.78-4.79-16.6-6.23-7.33-1.82-38.21-6.13-31.04,9.05,2.2,4.66,28.77,11.93,35.23,14.76,15.39,6.76,26.84,16.5,26.03,34.94-1.93,44.18-67.48,37.75-93.93,21.45Z"/>
  <path class="st0" d="M864.06,77.04c-8.16-4.29-17.06-8.29-26.45-9.03-5.29-.42-19.57-1.33-22.02,4.05-2.7,5.93,1.63,8.61,6.11,10.86,21.29,10.71,56.29,11.53,55.39,44.58-1.23,45.31-66.61,38.87-94,22.49l9.07-22.88c6.86,1.61,12.74,5.63,19.91,7.43,7.87,1.99,34.5,6.55,35.98-5.1.94-7.36-5.97-9.95-11.7-12.18-17.92-6.99-46.77-10.12-50.02-33.98-6.67-48.99,57.85-48.16,86.61-29.64l-8.89,23.4Z"/>
  <path class="st0" d="M739.07.04v44h27v29c-6.56-.76-13,.14-19.54.04-1.57-.02-7.46-2.07-7.46.46v53c0,.56,2.7,4.74,3.62,5.38,4.79,3.41,9.88,2.07,14.73-.03,3.95-1.71,5.96-4.41,9.65-5.84l-4.5,28.99c-11.25,9.17-32.27,10.27-42.99,0-4.72-4.53-10.51-16.04-10.51-22.49v-59c0-2.92-16.22.71-19-.5v-29h19V15.54L739.07.04Z"/>
  <polygon class="st0" points="539.07 160.04 539.07 45.54 540.57 44.04 567.57 44.04 567.57 160.04 539.07 160.04"/>
  <polygon class="st0" points="923.07 6.04 906.07 67.04 885.07 67.04 888.07 6.04 923.07 6.04"/>
  <path class="st0" d="M550.81.29c25.48-4.14,27.66,38.23-1.18,33.69-16.51-2.6-16.8-30.77,1.18-33.69Z"/>
  <path class="st0" d="M683.71,264.68c-19.81,19.26-47.59-13.55-26.13-29.63,20.91-15.67,42.72,13.5,26.13,29.63ZM665.8,234.28c-16.53,3.07-17.07,29.6,1.01,32.52,25.93,4.2,25.77-37.5-1.01-32.52Z"/>
  <path class="st0" d="M662.07,240.04c4.85.75,13.1-2.15,15.88,2.62,3.54,6.08-2.22,7.48-2.71,10.02-.4,2.05,3.23,4.94,2.83,7.35-7.87,1.32-3.86-9.36-12-7v7.01s-4,0-4,0v-20ZM666.07,249.05c2.75-.14,10.08,1.34,8.87-3.35-1.67-3.59-5.54-2.65-8.87-2.66v6.01Z"/>
</svg>