<?xml version="1.0" encoding="UTF-8"?>
<svg id="Layer_1" xmlns="http://www.w3.org/2000/svg" version="1.1" viewBox="0 0 320.4 83.99">
  <!-- Generator: Adobe Illustrator 30.3.0, SVG Export Plug-In . SVG Version: 2.1.3 Build 182)  -->
  <defs>
    <style>
      .st0 {
        fill: #fff;
      }
    </style>
  </defs>
  <g>
    <path class="st0" d="M163.72,78.73c-7.93,5.19-17.7,7.13-26.73,2.26-8.88-4.79-13.91-14.33-13.85-24.58s5.19-19.25,13.21-23.61c9.13-4.96,19.82-4.11,27.92,2.85.26-8.2-.54-16.06.77-23.68S175.12.68,182.48,0v82.08c-6.46-.85-14.78,3.76-18.76-3.36h0ZM149.22,46.02c-6.79,2.11-8.7,9.48-6.81,14.97,2.18,6.34,9.06,8.34,14.9,6.7,6.34-1.78,8.72-8.48,7.2-14.24-1.7-6.48-8.32-9.61-15.29-7.44h0Z"/>
    <path class="st0" d="M57.11,31.56c-8.48-8.34-21.6-10.18-30.33-2.2-8.16,7.46-8.87,21.8-1.07,29.97,8.16,8.55,21.85,7.85,31.44-1.23l.07,22.54c-17.97,7.04-37.13,2.89-48.98-11.59-11.22-13.7-10.99-35.04.76-49.18C20.51,6.02,40.36,1.34,57.36,9.34l-.24,22.21h-.01Z"/>
    <path class="st0" d="M284.51,81.73c-5.79.06-14.98,3.4-18.8-2.91-7.64,4.7-16.87,7.15-26,2.54-8.53-4.31-13.93-12.99-14.52-22.96-.62-10.41,4.02-20.21,12.89-25.45s19.29-3.7,27.51,1.55c3.84-6.45,11.52-2.08,18.78-3.22l.14,50.44h0ZM251.22,46.03c-6.8,2.1-8.65,9.47-6.81,14.99,2.11,6.32,9.11,8.29,14.9,6.66,6.4-1.81,8.71-8.5,7.24-14.23-1.67-6.53-8.31-9.58-15.33-7.41h0Z"/>
    <path class="st0" d="M89.8,83.9c-17.21-.21-30.62-11.41-30.28-27.73s14.27-26.57,30.8-26.6c16.34-.03,30.32,10.38,30.69,26.42.39,16.93-13.68,28.13-31.21,27.92h0ZM86.23,45.98c-6.81,2.12-8.91,9.42-6.91,15.02,2.21,6.2,8.92,8.55,14.96,6.72,6.08-1.84,8.71-8.45,7.18-14.22-1.7-6.4-8.23-9.7-15.23-7.53h0Z"/>
    <path class="st0" d="M307.69,81.8l-18.14.49.02-70.14c2.88-7.59,9.91-11.28,18.1-12.13l.02,81.79h0Z"/>
    <path class="st0" d="M204.88,82.05l-18.03.25-.07-50.76,17.75-.32.62,7.95c4.92-6.95,11.06-9.18,19.76-8.5l.15,17.23c-8.93-3.57-16.68-1.4-19.8,6.58l-.39,27.57h.01Z"/>
  </g>
  <g>
    <path class="st0" d="M319.05,8.48c-1.89,1.97-5.03,2-6.96.07s-1.89-5.02.04-6.91,4.95-1.85,6.84.03,1.91,4.9.08,6.82h0ZM318.47,8.22c1.79-1.69,1.78-4.54,0-6.22-1.69-1.59-4.36-1.54-5.99.12s-1.63,4.28-.04,5.94,4.32,1.77,6.03.16Z"/>
    <path class="st0" d="M317.16,6.57l.7,1.11h-1.24l-.95-1.41c-.12-.16-.22-.32-.35-.47-.14-.16-.32-.24-.53-.26h-.52v2.14h-1.04V2.52h2.34c.28,0,.55.03.83.07.24.05.45.15.63.32.39.39.5.95.37,1.48-.18.63-.67.91-1.3,1.01.32.18.57.41.77.7l.31.46h-.02ZM316.33,4.28c.09-.3.01-.65-.28-.79-.12-.06-.24-.08-.37-.08h-1.42v1.3h.96c.21,0,.42-.01.63-.04.23-.03.42-.17.48-.4h0Z"/>
  </g>
</svg>