<?xml version="1.0" encoding="UTF-8"?>
<svg id="Layer_1" xmlns="http://www.w3.org/2000/svg" version="1.1" viewBox="0 0 211.44 130.53">
  <!-- Generator: Adobe Illustrator 30.3.0, SVG Export Plug-In . SVG Version: 2.1.3 Build 182)  -->
  <defs>
    <style>
      .st0, .st1 {
        fill: #fff;
      }

      .st1 {
        fill-rule: evenodd;
      }
    </style>
  </defs>
  <path class="st1" d="M211.44.15c-.01,13.58-4.01,23.2-12.96,28.8-9.1,5.69-23.29,7.2-36.96,7.2-18.83,0-37.46-2.36-54.48-3.84-17.97-1.56-36.77-3.65-54.96-3.84-20.22-.21-39.72,3.3-49.68,14.88-.7.82-1.1,1.64-1.92,2.4.01-.01-.48.95-.48,0C2.38,30.16,8,19.14,17.76,11.67,27.7,4.06,41.37.93,58.08.15c13.1-.61,27.37.73,40.56,1.92,12.93,1.16,25.91,2.6,38.4,3.84,22.08,2.18,47.45,2.88,66.72-3.36,2.62-.85,5.12-1.73,7.68-2.4Z"/>
  <path class="st1" d="M210.72,85.11c-1.64,11.25-4.63,20-10.56,27.12-9.37,11.25-24.15,16.22-41.28,17.76-17.6,1.58-36.57-.63-54.48-2.4-25.92-2.56-54.05-6.95-81.6-3.36-6.36.83-12.12,2.22-17.76,4.32-1.64.61-3.24,1.53-5.04,1.68.02-9.45,1.76-17.75,6.24-23.28,9.71-11.99,31.12-13.27,53.04-12.48,20.08.72,69.79,6.25,72.72,6.48,26.03,2.06,55.42,2.35,71.76-9.36,2.71-1.95,4.79-4.18,6.96-6.48Z"/>
  <g>
    <path class="st1" d="M169.25,62.33c.03-1.04,1.76-.71,2.4-1.68,2.41-3.64-1.09-3.2-1.68-5.76-1.53-7.84,8.09-9.12,8.16-1.68.04,3.89-2.48,8.71-6.72,9.84-.38.1-2.26.99-2.16-.72Z"/>
    <path class="st1" d="M39.17,52.97c5.79-.7,6.89-13.27-1.44-10.32-9.81,3.47-21.59,36.51-7.2,40.8,4.81,1.43,7.98-.51,11.28-2.88-2.11-12.41,8.76-23.96,21.6-20.64,6.41,1.66,8.97,7.88,8.4,17.04,7.28-1.19,6.76-13.91,9.45-20.4h-10.17l1.2-4.56h9.84l2.64-7.68,10.8-1.92-7.92,29.52s-2.62,8.36-.69,9.49c.66.9,3.88,0,4.69-1.56l9.68-35.52,10.88-1.92-2.24,9.6h21.12l-1.44,4.56h-20.88l-3.6,12.72s-2.71,9.19-2.08,12c.5,1.94,5.38.06,7.12-2.16-1.28-14.93,11.07-22.15,23.52-18.48,10.3,5.7-1.07,19.37-11.52,18.72.87,10.84,14.49,4.24,16.32-2.4.4-1.44.1-3.44.48-5.04,1.39-5.81,6.89-10.7,12.96-11.76,4.85-.84,12.62-.11,13.68,5.28.45,2.27-.13,4.79-.96,6.48-2.15,4.38-8.16,6.59-14.16,7.68.17,9.58,14.5,5.11,17.04.72.33-4.55,2.05-7.71,6.48-8.16,2.11-3.01,3.58-6.66,5.52-9.84,3.48-1.48,7.3-2.62,11.28-3.6,1.57,14.38,2.59,30.85-11.76,31.68-5.5.32-8.63-2.01-10.8-5.52-6.8,6.76-24.52,7.94-28.56-2.16-3.32,3.01-6.94,6.76-12.24,7.44-4.49.58-9.33-.46-12.48-2.88-.86-.66-2.76-3.78-3.36-3.84-.57-.06-2.93,2.71-3.84,3.36-2.57,1.84-8.63,4.88-12.72,2.64-1.39-.76-1.4-2.13-3.12-3.36-3.05,1.51-5.89,4.27-10.08,4.08-4.81-.22-7.06-4.3-6.96-9.36-1.63.45-3.16,1-5.04,1.2-3.01,5.22-10.32,9.14-17.76,7.92-3.38-.56-5.7-2.48-7.92-4.56-7.65,6.19-22.03,5.98-28.8.24-10.01-8.49-7.18-29.88,1.2-38.88,4.93-5.29,11.86-8.27,19.44-8.88,6.57-.53,13.89,1.26,15.84,6.24,4.04,10.32-8.54,17.87-12.72,8.88ZM62.69,71.93c.47-3.07.55-8.41-2.16-8.64-3.28-.29-5.7,6.67-6.72,10.32-.49,1.74-1.13,4.5-1.2,6.96-.12,4.1,2.26,6.98,5.04,4.08,2.25-2.34,4.34-8.2,5.04-12.72ZM129.41,71.21c.51-.6,1.55-1.61,1.68-1.92,1.57-3.79-.85-7.54-4.32-5.28-2.95,1.91-3.92,6.87-4.32,10.32,3.1.23,5.58-1.52,6.96-3.12ZM158.45,63.53c-4.17-1.18-6.86,6.08-7.68,10.56,5.77,1.02,12.88-6.86,7.68-10.56ZM177.65,86.09c5.76-1.14,5.99-13.68,3.36-18.48-.82,2.05-3.44,3.85-3.84,6.72-.38,2.73.59,5.11-.72,7.2-.79,1.25-3.74.82-3.42,2.14.69,1.64,2.37,2.87,4.62,2.42Z"/>
  </g>
  <g>
    <path class="st0" d="M200.89,50.7h-1.24l-.02-.86c0-.19-.02-.39-.03-.6,0-.21-.04-.43-.08-.63-.03-.21-.08-.4-.13-.59-.05-.19-.13-.35-.24-.49-.11-.14-.26-.25-.44-.33-.18-.08-.42-.12-.72-.12h-2.99v3.64h-1.22v-8.52h4.33c.88,0,1.56.2,2.06.6.49.4.74.94.74,1.63,0,.52-.13.97-.38,1.36-.25.39-.66.66-1.22.8v.02c.27.05.48.13.65.24.17.11.3.24.4.4.1.16.17.33.22.52.05.19.08.39.11.6.02.21.03.42.04.63,0,.21.03.43.06.63l.1,1.09ZM198.36,46.05c.26-.04.48-.12.68-.23.19-.12.35-.27.46-.47.12-.19.17-.45.17-.76,0-.43-.13-.78-.39-1.05-.26-.27-.67-.41-1.25-.41h-3.04v2.97h2.55c.28,0,.55-.02.81-.06Z"/>
    <path class="st0" d="M189.13,46.29c0-4.33,3.51-7.83,7.83-7.83h0c4.33,0,7.83,3.51,7.83,7.83h0c0,4.33-3.51,7.83-7.83,7.83h0c-4.32,0-7.83-3.51-7.83-7.83h0ZM190.13,46.29c0,3.77,3.06,6.83,6.83,6.83h0c3.78,0,6.83-3.06,6.84-6.83h0c0-3.77-3.06-6.83-6.84-6.83h0c-3.77,0-6.83,3.06-6.83,6.83h0Z"/>
  </g>
</svg>