<?xml version="1.0" encoding="UTF-8"?>
<svg id="Layer_1" xmlns="http://www.w3.org/2000/svg" version="1.1" viewBox="0 0 260.6 79.1">
  <!-- Generator: Adobe Illustrator 29.8.5, SVG Export Plug-In . SVG Version: 2.1.1 Build 2)  -->
  <defs>
    <style>
      .st0 {
        fill: #fff;
      }

      .st1 {
        isolation: isolate;
      }
    </style>
  </defs>
  <g class="st1">
    <g id="Warstwa_1">
      <path class="st0" d="M213.39,79.01c-17.13,0-28.2-11.78-28.2-30s11.6-29.6,28.2-29.6,28.2,11.62,28.2,29.6-11.33,30-28.2,30ZM213.39,29.76c-8.32,0-13.5,7.46-13.5,19.45s5.05,19.46,13.5,19.46,13.5-7.27,13.5-19.46-5.17-19.45-13.5-19.45ZM0,77.76V0h26.06c20.88,0,34.36,15.26,34.36,38.87s-13.48,38.87-34.36,38.87l-26.06.02ZM15.47,65.27h7.42c14,0,21.33-9.12,21.33-26.38s-7.38-26.39-21.33-26.39h-7.42v52.77ZM151.39,77.77v-10.76c-1.49.19-3,.29-4.5.3-6.74,0-6.74-4.75-6.74-10.76v-26.08h8.32l2.07-9.78h-10.39V1.69l-14.47,4.74v14.26h-6v9.78h6v29.87c0,9.52,2,18.32,16.29,18.32,3.16-.03,6.31-.34,9.42-.91v.02ZM185.52,77.77v-10.76c-1.49.19-3,.29-4.5.3-6.74,0-6.74-4.75-6.74-10.76v-26.08h11.11v-9.78h-11.11V1.69l-14.47,4.74v14.26h-4.84l-2.18,9.78h7v29.87c0,9.52,2,18.32,16.29,18.32,3.17-.03,6.33-.34,9.44-.91v.02ZM260.6,77.77V0h-14.47v77.74l14.47.03ZM92.87,79.1c-17.25,0-28-11.5-28-30s10.75-29.64,28.07-29.64c7.38,0,13.35,2.32,17.76,6.87,5.56,5.76,8.36,14.94,8.1,26.57h-39v.9c.18,4.37,1.79,14.53,12.68,14.53,5.89,0,9.77-3.53,11.08-7h14.17c-3.63,10.63-13.63,17.76-24.86,17.74v.03ZM91.87,29.38c-6.67,0-11,5-11.86,13.86l-.09,1h24v-.89c-.29-8.2-5.07-13.92-11.62-13.92l-.43-.05Z"/>
    </g>
  </g>
</svg>