<?xml version="1.0" encoding="UTF-8"?>
<svg id="Layer_1" xmlns="http://www.w3.org/2000/svg" version="1.1" viewBox="0 0 2500 609">
  <!-- Generator: Adobe Illustrator 30.3.0, SVG Export Plug-In . SVG Version: 2.1.3 Build 182)  -->
  <defs>
    <style>
      .st0 {
        fill: #fff;
      }
    </style>
  </defs>
  <path class="st0" d="M449.9.22H112.47L0,598.47h327.2c252.21.93,311.09-105.83,352.76-301.64C745.14-15.2,546.78,2.18,449.9.22ZM485.69,291.63c-23.86,126.79-65.27,194.36-163.6,194.28h-102.25l71.57-383.44h97.14c101.57,0,116.82,63.23,97.14,189.16ZM2500,168.93h-158.49l-86.91,107.37-40.9-107.37h-199.39l81.89,204.5-184.13,225.04h163.59l97.14-127.81,51.21,127.81h199.3l-92.02-225.04,168.71-204.5ZM1048.06,168.93l-56.24,281.19c-6.99,44.65-25.56,62.12-71.57,61.35-45.51.77-61.87-18.92-51.13-71.57l51.13-270.97h-173.83l-56.15,291.42c-13.8,64.92,7.92,148.77,204.41,148.26,65.1,1.62,143.58-15.85,179.02-25.57,20.11-2.21,60.42-5.45,71.58-5.11l81.8-409h-179.02ZM1794.56,168.93l-56.23,281.19c-7.16,44.65-25.65,62.12-71.58,61.35-45.58.77-61.94-18.92-51.12-71.57l51.12-270.97h-173.82l-56.32,291.42c-13.81,64.92,8,148.77,204.49,148.26,65.02,1.62,143.49-15.85,178.94-25.57,20.02-2.21,60.41-5.45,71.58-5.11l81.8-409h-178.86ZM1298.57.22l-112.48,598.25h184.05L1482.62.22h-184.05Z"/>
</svg>