<?xml version="1.0" encoding="UTF-8"?>
<svg id="Layer_2" xmlns="http://www.w3.org/2000/svg" version="1.1" viewBox="0 0 177.28 49.79">
  <!-- Generator: Adobe Illustrator 29.8.5, SVG Export Plug-In . SVG Version: 2.1.1 Build 2)  -->
  <defs>
    <style>
      .st0 {
        fill: #fff;
      }
    </style>
  </defs>
  <g id="Layer_1-2">
    <path id="Durex" class="st0" d="M95.11,18.86c-5.85.28-9.08,4.35-9.05,11.45v18.44h-6.81V12.61h.37c1.59,0,3.27.06,4.48.85,1.05.69,1.65,1.8,1.85,3.49,2.22-3.57,6.37-5.03,13.2-4.68h.31l.03.33c.01.1,0,.34,0,.81,0,.34-.02.73-.02,1.06,0,2.78-1.47,4.25-4.36,4.39ZM67.11,13.91c-.91.91-1.37,2.32-1.36,4.18v17.58c0,5.16-2.51,7.77-7.51,7.79h-.03c-4.96,0-7.48-2.61-7.51-7.76v-17.55c0-5.56-3.81-5.56-6.51-5.55h-.37v23.97c0,4.19,1.5,7.62,4.32,9.93,2.53,2.07,6.07,3.17,10.07,3.17h.05c4,0,7.58-1.12,10.1-3.2,2.8-2.32,4.28-5.76,4.27-9.95V12.6h-.73c-1.33,0-3.44-.02-4.78,1.3h0ZM127.68,33.88l-22.39.05c1.22,5.59,5.91,9.45,11.53,9.45h.02c4.21,0,7.62-1.97,9.87-5.66h7.08l-.07.17c-2.69,7.05-9.39,11.61-17.07,11.64h-.05c-5.06,0-9.72-1.84-13.08-5.19-3.41-3.39-5.28-8.09-5.29-13.25-.02-10.6,7.87-18.62,18.35-18.64h.05c8.38,0,15.01,4.89,17.29,12.75h0c.66,2.32.33,4.67-.91,6.32-.81,1.08-2.4,2.37-5.33,2.37h0ZM127.34,26.18c-1.25-4.48-5.49-7.48-10.57-7.48h-.02c-5.52.01-10.15,3.84-11.43,9.36l20.7-.05c.57,0,.97-.15,1.2-.45.23-.31.28-.81.13-1.37h-.01ZM36.88.03l.33.03v48.69h-6.71v-3.64c-3.3,3.01-7.52,4.67-12.07,4.68h-.05c-4.98,0-9.59-1.86-13-5.24C1.92,41.12.01,36.41,0,31.26c0-5.14,1.87-9.87,5.32-13.32,3.4-3.41,8.03-5.28,13.02-5.29h.05c4.81,0,9.25,1.69,12.11,4.55V5.14c0-1.61.47-2.87,1.45-3.76C33.83-.3,36.76.02,36.89.03h-.01ZM30.52,31.19c-.01-7.1-5.02-12.25-11.88-12.25h-.03c-6.55.01-11.87,5.53-11.86,12.3,0,3.28,1.26,6.35,3.5,8.67,2.25,2.3,5.21,3.57,8.38,3.57h.02c7.21-.01,11.88-4.84,11.86-12.3h.01ZM177.28,16.8c0,2.35-1.85,4.26-4.13,4.26s-4.13-1.91-4.13-4.26,1.85-4.26,4.13-4.26,4.13,1.91,4.13,4.26ZM176.58,16.8c0-1.97-1.54-3.55-3.43-3.55s-3.43,1.59-3.43,3.55,1.54,3.55,3.43,3.55,3.43-1.59,3.43-3.55ZM174.53,18.15l.7,1.08h-.81l-1.31-2.09h-.81v2.09h-.76v-4.86h1.89c.29,0,.54.03.76.09.21.06.38.14.52.26.07.06.13.12.19.2.15.22.24.5.24.86,0,.4-.1.7-.31.91-.02.02-.03.05-.06.06-.07.06-.16.09-.24.14-.16.09-.36.16-.57.19-.03,0-.07.02-.12.02l.7,1.08v-.02ZM173.75,16.47c.08-.01.15-.03.22-.07.06-.02.12-.06.16-.09s.08-.08.12-.14c0,0,0-.02.01-.03.06-.1.09-.24.09-.42,0-.14-.03-.24-.08-.34,0-.02-.01-.03-.02-.06-.01-.02-.03-.05-.06-.07-.06-.07-.12-.12-.19-.16-.02,0-.05-.02-.08-.03-.08-.03-.16-.06-.26-.07-.13-.02-.26-.02-.38-.02h-1.01v1.54h1.28c.07,0,.13-.01.2-.02h0ZM171.12,5.57h-4.03c-3.15,0-4.43.91-6,3.19-3.15,4.65-10.22,15.68-10.69,16.4-1.19-1.75-5.82-8.54-6.91-10.1-1.12-1.62-2.79-2.44-4.97-2.44h-4.81l12.87,18.07-12.29,18.07h7.84l8.25-12.44c1.77,2.58,2.57,3.79,8.48,12.44h7.83l-12.47-18.06,16.89-25.11h.01Z"/>
  </g>
</svg>