<?xml version="1.0" encoding="UTF-8"?>
<svg id="Layer_1" xmlns="http://www.w3.org/2000/svg" version="1.1" viewBox="0 0 151.75 25.12">
  <!-- Generator: Adobe Illustrator 30.3.0, SVG Export Plug-In . SVG Version: 2.1.3 Build 182)  -->
  <defs>
    <style>
      .st0, .st1 {
        fill: #fff;
      }

      .st1 {
        fill-rule: evenodd;
      }
    </style>
  </defs>
  <path class="st1" d="M30.78,18.97c-4.08,0-5.84-1.75-5.84-4.44,0-3.94,4.02-4.18,6.97-4.32,3.07-.15,3.81-.42,3.81-1.51,0-1.25-1.55-1.72-3.55-1.72-1.77,0-3.51.48-5.04,1.39l-1.36-2.29s2.54-1.66,6.49-1.66c3.69-.02,6.41,1.09,6.41,4.33v9.83h-2.9l-.06-1.27s-1.64,1.66-4.95,1.66ZM35.72,11.91s-.76.62-3.86.77c-2.74.12-3.86.51-3.86,1.95,0,1.25,1.03,1.87,3.23,1.87,2.56,0,4.48-.95,4.48-2.46v-2.14h0ZM75.74,4.41c5.14,0,7.7,2.43,7.7,7.28,0,4.85-2.57,7.28-7.7,7.28s-7.7-2.43-7.7-7.28c0-4.85,2.57-7.28,7.7-7.28ZM75.74,16.37c3.01,0,4.35-1.6,4.35-4.68s-1.34-4.71-4.35-4.71-4.35,1.63-4.35,4.71,1.34,4.68,4.35,4.68Z"/>
  <path class="st0" d="M21.74,0h-3.16v18.59h3.16V0ZM41.97,8.52c0-2.66,2.53-4.11,6.32-4.11s6.01,1.34,6.57,1.66l-1.36,2.29c-1.6-.92-3.41-1.4-5.26-1.39-2.35,0-3.2.71-3.2,1.45,0,3.08,10.67-.06,10.67,5.89,0,3.05-2.98,4.65-7,4.65-3.52,0-5.61-.83-7.09-1.67l1.42-2.39s2.25,1.45,5.79,1.45c2.2,0,3.82-.68,3.82-1.87,0-3.03-10.67.08-10.67-5.96h0ZM14.54,7.52v2.72H3.25v5.63h11.97v2.72H0V.12h14.93v2.72H3.25v4.68s11.3,0,11.3,0Z"/>
  <path class="st1" d="M116.42,18.97c-4.08,0-5.84-1.75-5.84-4.44,0-3.94,4.02-4.18,6.97-4.32,3.07-.15,3.81-.42,3.81-1.51,0-1.25-1.55-1.72-3.55-1.72-1.77,0-3.51.48-5.04,1.39l-1.36-2.29s2.54-1.66,6.49-1.66c3.7,0,6.41,1.1,6.41,4.35v9.83h-2.9l-.06-1.27s-1.64,1.64-4.95,1.64ZM121.37,11.91s-.76.62-3.86.77c-2.74.12-3.86.51-3.86,1.95,0,1.25,1.03,1.87,3.23,1.87,2.56,0,4.48-.95,4.48-2.46,0,0,0-2.14,0-2.14Z"/>
  <path class="st0" d="M107.39,0h-3.16v18.59h3.16V0ZM127.62,8.52c0-2.66,2.53-4.11,6.32-4.11s6.01,1.34,6.57,1.66l-1.36,2.29c-1.6-.92-3.41-1.4-5.26-1.39-2.35,0-3.2.71-3.2,1.45,0,3.08,10.67-.06,10.67,5.89,0,3.05-2.98,4.65-7.01,4.65-3.52,0-5.61-.83-7.09-1.67l1.42-2.39s2.25,1.45,5.79,1.45c2.2,0,3.82-.68,3.82-1.87,0-3.03-10.67.08-10.67-5.96h0ZM145.08,15.29c0,2.25.87,3.7,4.2,3.7.83,0,1.65-.07,2.47-.18v-2.62c-.71.1-1.43.16-2.15.18-1.1,0-1.37-.53-1.37-1.33v-7.67h3.51v-2.58h-3.51V.86h-3.16v3.94h-2.53v2.58h2.53v7.91ZM59.54,15.29c0,2.25.86,3.7,4.2,3.7.83,0,1.65-.07,2.47-.18v-2.62c-.71.1-1.43.16-2.15.18-1.1,0-1.37-.53-1.37-1.33v-7.67h3.51v-2.58h-3.51V.86h-3.16v3.94h-2.53v2.58h2.53s0,7.91,0,7.91Z"/>
  <path class="st0" d="M145.08,15.29c0,2.25.87,3.7,4.2,3.7.83,0,1.65-.07,2.47-.18v-2.62c-.71.1-1.43.16-2.15.18-1.1,0-1.37-.53-1.37-1.33v-7.67h3.51v-2.58h-3.51V.86h-3.16v3.94h-2.53v2.58h2.53v7.91ZM89.45,17.3h.05c.42.45,1.82,1.67,4.66,1.67,4.81,0,7.01-3.34,7.01-7.31s-2.18-7.25-7.01-7.25c-2.72,0-4.34,1.31-4.66,1.68h-.05v-1.29h-3.16v20.32h3.16v-7.82h0ZM89.45,9.59c0-1.54,1.82-2.6,4.23-2.6,2.98,0,4.13,1.95,4.13,4.74s-1.15,4.65-4.13,4.65c-2.42,0-4.23-.83-4.23-2.58v-4.2h0Z"/>
</svg>