<?xml version="1.0" encoding="UTF-8"?>
<svg id="Layer_1" xmlns="http://www.w3.org/2000/svg" version="1.1" xmlns:cc="http://creativecommons.org/ns#" xmlns:dc="http://purl.org/dc/elements/1.1/" xmlns:inkscape="http://www.inkscape.org/namespaces/inkscape" xmlns:rdf="http://www.w3.org/1999/02/22-rdf-syntax-ns#" xmlns:sodipodi="http://sodipodi.sourceforge.net/DTD/sodipodi-0.dtd" xmlns:svg="http://www.w3.org/2000/svg" viewBox="0 0 408.54 244.77">
  <!-- Generator: Adobe Illustrator 30.3.0, SVG Export Plug-In . SVG Version: 2.1.3 Build 182)  -->
  <defs>
    <style>
      .st0 {
        fill: #fff;
      }
    </style>
  </defs>
  <sodipodi:namedview id="namedview1257" bordercolor="#666666" borderopacity="1" gridtolerance="10" guidetolerance="10" inkscape:current-layer="Layer_1" inkscape:cx="204.26976" inkscape:cy="122.38718" inkscape:pageopacity="0" inkscape:pageshadow="2" inkscape:window-height="480" inkscape:window-maximized="0" inkscape:window-width="686" inkscape:window-x="0" inkscape:window-y="0" inkscape:zoom="0.9641533" objecttolerance="10" pagecolor="#ffffff" showgrid="false"/>
  <g id="Layer_2">
    <g id="Layer_1-2">
      <path id="path1212" class="st0" d="M132.54,114.42c1.75,0,3.71,0,5.46-.44-.44,5.46-.44,11.14-.87,24.24v16.59c0,10.26.87,16.59,1.75,19.22,3.49,8.08,10.7,15.72,23.36,15.28,11.14-.44,18.78-3.93,23.36-13.1,3.06-6.33,3.49-10.7,3.93-26.86v-10.26c-.44-8.95-.87-14.85-1.31-25.11,1.31.22,2.62.44,3.93.44s2.62,0,3.93-.44c-.44,3.49-.87,22.93-.87,22.93v12.23c0,16.16-.87,19.65-2.62,25.11-1.09,4.15-3.49,7.86-6.77,10.7-5.46,6.33-14.41,9.39-25.11,9.39-9.83,0-19.22-2.62-24.67-7.64-5.9-5.9-8.08-11.14-8.08-23.36v-27.29c0-8.08-.87-17.47-1.31-22.05,1.97.44,3.93.66,5.9.44Z"/>
      <path id="path1214" class="st0" d="M86.69,111.36s3.06,8.08,5.9,14.41c4.59,8.95,11.57,25.55,14.41,32.32,2.62,6.33,9.83,21.62,9.83,21.62l6.33,13.54c-2.18,0-3.93-.44-6.33-.44-2.18,0-4.15,0-6.33.44l-4.59-11.57c-.87-3.06-2.18-6.11-3.71-8.95-1.31-3.93-3.06-7.64-5.02-11.14h-29.91c-.44,1.31-2.62,6.77-4.15,10.7-3.06,6.99-5.68,14.19-7.64,21.62-1.31-.44-2.62-.87-4.15-.87-1.31,0-2.62,0-4.15.44,0,0,2.18-5.9,5.02-11.14,3.49-8.08,8.52-18.78,12.66-27.73,3.06-7.21,18.78-41.92,18.78-42.8h3.06v-.44ZM79.92,132.76c-1.75,3.71-10.7,23.8-10.7,23.8h26.42s-4.59-10.48-7.21-17.03c-3.93-8.95-5.9-12.66-5.9-12.01-.66,1.75-1.53,3.71-2.62,5.24Z"/>
      <path id="path1216" class="st0" d="M218.57,114.85h5.9l8.95-.44,7.64-.44h2.18c15.28,0,22.05,1.75,29.7,8.95,7.64,7.21,11.79,17.25,11.57,27.95,0,12.88-5.68,25.11-15.72,33.19-8.08,6.77-17.03,8.95-37.34,8.52h-15.72c-2.18,0-4.15.22-6.33.44.44-1.75.87-18.78.87-22.93v-19.65c0-4.59,0-16.59-.44-23.36,0-3.93-.44-12.66-.44-12.66,3.28.44,6.11.66,9.17.44h0ZM233.86,188.66c4.15.22,8.3,0,12.66-.44,6.33-.66,12.23-3.71,16.59-8.52,6.77-6.33,9.83-16.16,9.83-27.51-.44-11.57-3.06-22.49-11.14-28.39-6.33-4.37-9.83-5.46-22.49-5.9-6.11,0-12.23.44-18.34,1.31l-.87.44c0,2.18-.44,13.54-.44,22.05v34.06c.44,5.46.44,8.52.87,12.23,4.37.66,8.95.87,13.32.66Z"/>
      <path id="path1218" class="st0" d="M296.74,113.98c10.7.44,15.28.44,20.31.44h19.65c0,.87-.44,2.18-.44,3.06s0,3.06.44,3.06c-2.62-.44-5.46-.44-9.39-.87-10.7-.44-13.54-.44-17.03-.44h-4.37v13.97c-.44,2.4-.66,4.8-.44,7.21,0,3.93.44,8.08.44,8.08h19.22c3.06-.22,5.9-.44,8.95-.44-.44,0-.44,1.31-.44,3.06,0,1.31.44,3.06,0,3.06-4.15-.44-13.1-.87-20.09-.87h-7.86v16.59c0,4.37.44,7.64.44,8.08,0,3.06,0,6.33.44,9.39h0c1.09.44,2.4.44,3.49.44,9.17-.22,18.34-1.09,27.29-2.18-.22,1.09-.44,2.18-.44,3.06v3.49h-31.22c-3.49-.22-7.21,0-10.7.44.44,0,1.31-9.39,1.31-15.72v-9.83l.44-14.41s-.87-34.5-1.31-39.09h1.31v.44Z"/>
      <path id="path1220" class="st0" d="M16.16,188h5.9c3.06.22,6.33,0,9.39-.44,6.33,0,10.7-.87,12.01-.87v6.33h-2.62c-3.06,0-6.33-.22-9.39-.44H9.83c-6.33,0-9.39.44-9.83.44.44-3.93,1.31-24.24,1.31-39.09s-1.31-39.96-1.31-39.96c1.75,0,4.15.44,5.9.44s5.9-.44,5.9-.44c-1.09,11.57-1.53,22.93-1.31,34.5,0,0,0,28.82.44,37.34l.44,1.75c-.22.44,1.97.44,4.8.44Z"/>
      <path id="path1222" class="st0" d="M360.94,154.81v13.97l.44,11.14.44,12.23v.87c-1.97-.22-3.93-.44-5.9-.44-1.75,0-3.71,0-5.46.44l.44-12.23c.44-8.95.44-17.03.44-31.01,0-8.95,0-13.54-.44-23.8,0-3.93-.44-11.57-.44-11.57,2.84.44,5.68.44,8.52.44,2.18,0,5.9-.44,8.95-.44,5.46-.44,8.95-.44,9.83-.44,18.78,0,24.24,8.95,24.24,17.9,0,10.7-9.39,18.78-25.11,22.05v.44l8.52,10.26,7.64,9.39,8.52,10.7c3.49,4.59,4.59,6.33,6.77,8.52h-12.66l-13.54-18.56c-3.49-5.02-15.72-19.65-16.16-19.65l-5.02-.22ZM367.27,150.88c8.95,0,12.23-1.31,16.16-3.71,5.24-2.84,8.3-8.52,8.08-14.41-.44-8.52-5.46-14.85-18.78-14.85-3.93,0-7.86.44-11.79,1.31v31.01c1.97.66,4.15.66,6.33.66h0Z"/>
      <path id="path1224" class="st0" d="M76.86,15.72c-10.04.44-15.72,5.9-15.72,14.41,0,5.9,3.49,11.14,8.95,13.54,2.62.87,6.77,3.06,10.7,4.59,13.1,4.15,18.34,10.26,18.34,19.65,0,14.85-12.66,25.55-28.39,25.55-7.21.22-14.19-2.18-19.65-6.77,0,0,1.31-6.33,1.75-8.95,0,0,8.08,12.66,19.65,12.01,9.61.44,17.69-7.21,17.9-16.81v-.66c0-8.08-5.02-13.1-16.59-17.03s-16.59-8.52-18.78-12.23c-1.75-3.06-2.62-6.33-2.62-9.83,0-12.66,10.26-21.62,25.11-21.62,12.01,0,17.9,5.9,17.9,5.9-1.31,2.84-2.4,5.9-3.06,8.95.22,0-4.37-10.7-15.5-10.7Z"/>
      <path id="path1226" class="st0" d="M138.22,19.22l-.44,13.1-.44,15.72c-.22,5.24-.22,10.48,0,15.72-.22,9.61.22,19.22.87,28.82,0,0-3.49-.44-5.9-.44-1.75,0-3.71.22-5.46.44.44-6.33.87-13.1.87-28.39v-31.88s-.44-9.83-.44-13.1h0l-12.45.44c-4.15,0-8.52.22-12.66.87,0-1.31.22-2.4.44-3.71,0-1.09-.22-2.18-.44-3.06,1.09.44,28.82.44,28.82.44h3.71c9.83,0,27.73-.44,27.73-.44v3.28c0,1.31.22,2.4.44,3.71-5.46-.87-8.52-.87-13.97-1.31h-10.7v-.22Z"/>
      <path id="path1228" class="st0" d="M1.75,13.97c10.7.44,14.85.44,20.09.44,3.06,0,16.16,0,18.34-.44h1.31c0,.87-.44,2.18-.44,3.06v3.06c-3.06,0-5.9,0-8.95-.44-10.48-.44-13.76-.44-16.81-.44h-4.59v1.31l-.44,12.66v14.85c0,.22.22.44.44.44h10.7c1.31,0,3.49,0,8.52-.44h8.52v5.9c-4.59,0-13.1-.44-20.74-.87-2.4,0-4.8,0-7.21.44h-.22v7.64l.44,8.95v8.08c0,1.75.44,5.9.44,8.95l.44.44h3.71c9.39,0,22.93-1.31,27.29-1.75-.22,1.09-.44,2.18-.44,3.06v3.49h-9.83l-7.64-.44-14.41.44H0s.87-8.95.87-15.28l.44-9.83v-14.41S.87,18.34.44,13.76h1.31v.22Z"/>
      <polygon id="polygon1230" class="st0" points="172.94 5.02 214.64 5.02 214.64 0 172.94 0 172.94 5.02"/>
      <path id="path1232" class="st0" d="M174.68,13.97c10.7.44,15.28.44,20.31.44,3.06,0,16.59,0,18.34-.44h1.75c-.44,1.09-.44,2.18-.44,3.06v3.06c-3.06,0-6.33,0-9.39-.44-10.26-.44-13.54-.44-17.03-.44h-4.37v29.26h11.14c1.31,0,3.06,0,8.52-.44h8.3c0,.87-.22,1.75-.44,2.62,0,1.09.22,2.18.44,3.06-4.59,0-13.1-.44-20.74-.87-2.62,0-5.02,0-7.64.44h0v7.86l.44,8.95v8.08c0,1.75.44,5.9.44,8.95v.44h3.93c8.95,0,22.93-1.31,26.86-1.75-.22,1.09-.44,2.18-.44,3.06,0,1.31,0,2.4.44,3.49h-9.83l-7.64-.44-14.41.44h-10.26s.87-8.95.87-15.28v-9.83l.44-14.41s-.44-34.5-1.31-39.09l1.75.22Z"/>
      <path id="path1234" class="st0" d="M229.49,13.97c10.7.44,15.28.44,20.09.44,3.06,0,16.59,0,18.34-.44h1.75c-.44,1.09-.44,2.18-.44,3.06v3.06c-3.06,0-6.33,0-9.39-.44-10.26-.44-13.54-.44-17.03-.44h-4.37v29.26h11.14c1.31,0,3.06,0,8.52-.44h8.52c0,.87-.22,1.75-.44,2.62,0,1.09.22,2.18.44,3.06-4.59,0-13.1-.44-20.74-.87-2.62,0-5.02,0-7.64.44h0v7.86l.44,8.95v8.08c0,1.75.44,5.9.44,8.95v.44h3.93c8.95,0,22.93-1.31,26.86-1.75-.22,1.09-.44,2.18-.44,3.06,0,1.31,0,2.4.44,3.49h-9.83l-7.64-.44-14.41.44h-10.26s.87-8.95.87-15.28v-9.83l.44-14.41s-.44-34.5-1.31-39.09l1.75.22Z"/>
      <path id="path1236" class="st0" d="M27.95,238.88l-.87,3.06c-3.06,1.97-6.77,2.84-10.26,2.62-10.26,0-16.59-6.33-16.59-16.59,0-4.59,1.75-9.17,5.02-12.66,3.71-2.84,8.3-4.37,13.1-3.93,3.49-.22,6.77.44,9.83,1.75-.44,1.09-.87,2.4-.87,3.49h-.44c-2.4-2.4-5.68-3.71-9.17-3.49-3.71-.22-7.42,1.53-9.83,4.37-2.18,3.06-3.28,6.55-3.06,10.26-.22,3.93,1.09,7.64,3.49,10.7,2.18,2.62,5.46,4.15,8.95,3.93,3.93,0,7.42-1.31,10.26-3.93l.44.44Z"/>
      <path id="path1238" class="st0" d="M84.94,227.96c0,10.26-6.77,16.59-17.47,16.59s-17.9-6.33-17.9-16.59,6.77-16.59,17.9-16.59,17.47,6.33,17.47,16.59ZM56.99,217.7c-1.97,3.06-2.84,6.77-2.62,10.26-.22,3.49.66,6.99,2.62,10.04,2.18,3.49,6.11,5.46,10.26,5.46,3.93,0,7.64-1.97,9.83-5.46,1.97-2.84,2.84-6.33,2.62-9.83.22-3.71-.87-7.21-2.62-10.26-2.18-3.28-5.9-5.02-9.83-5.02-3.93-.22-7.86,1.75-10.26,4.8h0Z"/>
      <path id="path1240" class="st0" d="M113.98,211.37l1.31,2.62c.87,1.31,1.31,2.62,2.18,3.93l.87,2.18c3.06,5.46,2.18,4.59,4.37,8.08,1.31,2.84,2.84,5.46,4.59,8.08h0c1.09-1.97,2.4-3.93,3.71-5.9.87-2.18,1.97-4.37,3.06-6.33l.87-2.18,1.31-1.75,1.31-2.18c.87-1.97,1.97-3.93,3.06-5.9l.44-.87h.87c.44.87.44.44.44,2.62.22,2.18.44,4.59.87,6.77v1.75l.44,1.75v3.49c.44,1.53.66,3.28.87,5.02v1.75l.44,3.71c.44,2.62.44,3.93.87,5.9-.66-.22-1.53-.44-2.18-.44s-1.53.22-2.18.44c0-2.18,0-4.59-.44-6.77q-.44-7.21-1.75-17.47c-1.09,1.31-1.97,2.84-2.62,4.59l-1.75,3.49c-.87,1.97-1.97,3.71-3.06,5.46-3.06,6.33-3.93,7.64-5.02,9.83h-.44q-.44-.87-1.75-3.93c-.44-.87.87,1.31-3.71-7.21-.87-1.97-1.75-3.71-3.06-5.46l-.87-1.75-.87-1.75-.87-1.75-.44-.44h0v-.22c-.87,4.15-1.53,8.3-1.75,12.66-.44,6.33-.44,8.08-.87,11.14-.87-.66-2.18-.66-3.06,0,.44-1.75.44-3.06.87-5.46,1.31-8.08.87-5.9.87-7.21.44-1.09.44-1.97.44-3.06l.44-1.75c.87-5.46.44-2.62,1.31-8.08q.44-4.59.87-7.21v-.22Z"/>
      <path id="path1242" class="st0" d="M176.43,230.36v11.14c.44.87.44,1.75.44,2.62-.66-.22-1.53-.44-2.18-.44-.87,0-1.75.22-2.62.44.44-1.97.44-3.93.44-5.9,0-3.06.44-8.52.44-10.7,0-4.37-.44-7.64-.44-10.7,0-1.75-.22-3.28-.44-5.02,1.31.44,2.62.44,3.93.44s2.4-.22,3.71-.44h2.62c7.21,0,10.7,2.62,10.7,8.08-.22,3.06-1.53,5.9-3.93,7.64-2.84,1.31-6.11,1.97-9.39,1.75h-3.06v1.09h-.22ZM176.43,227.52h2.18c6.77,0,9.83-2.62,9.83-7.64,0-3.93-2.62-6.33-8.08-6.33-1.31,0-2.4,0-3.71.44-.22,1.09-.44,2.18-.44,3.06l.22,10.48h0Z"/>
      <path id="path1244" class="st0" d="M225.34,211.37c.44,1.31,0,0,1.31,3.71.66,1.75,1.31,3.28,2.18,5.02,4.59,10.26,3.06,7.21,4.59,10.7l.87,2.62c2.62,5.02,1.75,3.49,2.18,5.02,1.31,3.06,1.75,3.06,2.62,5.9-.66-.44-1.53-.44-2.18-.44-.87,0-1.75,0-2.62.44-.44-2.18-1.09-4.37-2.18-6.33-.66-2.18-1.53-4.37-2.62-6.33h-11.57c-2.18,5.46-2.18,5.02-5.02,12.66-.44-.44-.87-.44-1.31-.44-.66,0-1.31.22-1.75.44.87-2.18,1.75-3.93,3.49-8.08,1.31-2.62,2.18-5.46,3.71-8.08,1.75-3.93,3.06-6.77,3.49-8.08,1.09-1.53,1.75-3.28,2.18-5.02.66-.87,1.09-1.75,1.31-2.62h0l.44-.44v-.44l.87-.22ZM218.57,229.49h10.26c-.44-.66-.87-1.53-1.31-2.18-2.18-5.9-1.31-3.93-2.18-5.46-.44-1.31-1.09-2.84-1.75-3.93l-5.02,11.57h0Z"/>
      <path id="path1246" class="st0" d="M262.24,211.37l.44.44c1.53,1.31,2.84,2.62,3.93,3.93,1.31,1.75,2.84,3.49,4.59,5.02l1.31,1.75,1.75,1.31,1.31,1.75c1.75,1.53,3.49,3.49,5.02,5.46l5.02,5.02v-.44c.44-.87,0,.44.44-3.93v-5.9c0-3.71,0-7.42-.44-11.14v-2.84c.44.22,1.09.44,1.75.44.44,0,.87,0,1.31-.44v3.93c-.44,2.84-.44,5.68-.44,8.52-.44,3.49-.44,7.21-.44,10.7v6.77c0,.87.22,1.75.44,2.62h-.87c-1.97-2.62-3.93-5.02-6.33-7.21-2.18-2.18-4.59-5.46-6.77-7.21-.87-1.31.44.44-4.59-5.02l-3.06-3.06c-3.06-3.71-2.18-2.62-2.62-2.62l-.44-.44h0v12.23c0,3.28,0,6.55.44,9.83v3.06c-.44-.44-.87-.44-1.75-.44-.44,0-.87,0-1.31.44,0-1.97,0-3.93.44-5.9v-10.7l.44-1.75v-14.19h.44Z"/>
      <path id="path1248" class="st0" d="M318.36,212.24c.66,0,1.53,0,2.18-.44,0,1.75,0,3.71-.44,5.46v21.18c0,2.18.44,3.49.44,5.9-.66-.22-1.53-.44-2.18-.44s-1.53,0-2.18.44v-5.9c0-1.75.22-3.71.44-5.46v-7.21c0-2.84,0-5.68-.44-8.52v-5.46c.66.44,1.31.44,2.18.44h0Z"/>
      <path id="path1250" class="st0" d="M355.04,243.68h-5.02c-1.09-.22-2.18,0-3.06.44,0-2.18.44-4.59.44-8.95v-17.9c.22-1.75,0-3.71-.44-5.46,1.31,0,1.75.44,3.49.44h10.26c1.75,0,1.75-.44,2.62-.44v2.62h-3.49c-.87,0-2.18-.44-4.15-.44h-4.37v7.64c-.44,2.62-.44,1.75,0,1.75q-.44.87-.44,1.31c0,.44,0,.87.44.87.44.44,1.09.44,1.75.44,1.09,0,2.18-.22,3.06-.44h6.33v2.62c-2.62-.44-5.46-.66-8.08-.44h-3.49c.22.22.44.66.44.87l-.44,3.71c0,1.53.22,2.84.44,4.37v4.59c.44.22,1.09.44,1.75.44,1.31,0,2.62-.22,4.15-.44,2.18.22,4.59,0,6.77-.44v3.06h-.44v-.44l-8.52.22h0Z"/>
      <path id="path1252" class="st0" d="M400.02,217.26c-.87-2.4-3.28-3.93-5.9-3.93-2.84-.22-5.46,1.75-5.9,4.8v.66c-.22,1.75.44,3.49,1.75,4.59,1.75,1.09,3.49,1.97,5.46,2.62,1.97.66,3.93,1.75,5.46,3.06,1.31,1.31,2.18,3.06,2.18,5.02,0,6.33-5.02,10.7-11.79,10.7-2.84,0-5.46-.87-7.64-2.62.44-1.31.66-2.62.87-3.93h.44c1.31,2.62,4.15,4.37,7.21,4.59,3.49.22,6.55-2.4,6.77-5.9v-.44c0-1.53-.44-3.28-1.31-4.59-1.75-1.09-3.49-1.97-5.46-2.62-5.9-2.18-7.64-4.37-7.64-8.95,0-2.4.87-4.59,2.62-6.33,2.18-1.53,4.59-2.18,7.21-2.18,2.62-.22,5.24.66,7.21,2.18-.87,1.09-1.31,2.18-1.31,3.71l-.22-.44Z"/>
    </g>
  </g>
</svg>