<?xml version="1.0" encoding="UTF-8"?>
<svg id="Layer_1" xmlns="http://www.w3.org/2000/svg" version="1.1" viewBox="0 0 175 40">
  <!-- Generator: Adobe Illustrator 29.8.5, SVG Export Plug-In . SVG Version: 2.1.1 Build 2)  -->
  <defs>
    <style>
      .st0 {
        fill: #fff;
      }
    </style>
  </defs>
  <path class="st0" d="M175,14.67v3.33l-4.67.33v11.67h-3.67v-15c1.02.15,2.52-.23,3.44,0,.26.06.22.68.4.68.76.02,3.09-1.68,4.49-1.02Z"/>
  <path class="st0" d="M0,26c2.52-5.48,8.75-6.74,14-4.5-4.18.37-8.99,2.13-9.67,6.83,2.56,0,4.38-1.05,5.05-3.61,4.65-.84,2.26,3.47-.47,4.36s-6.22-.39-8.91-1.08v-2Z"/>
  <path class="st0" d="M19,40c-3.28-2.65-4.05-6.65-2.83-10.66.18-.59,1.99-4.29,2.33-4.33.7-.07.22.95.18,1.17-.69,4.37-.79,7.74,3.65,10.16-.1-1.27.24-2.8-.15-4.02-.36-1.15-1.78-1.29-1.86-2.15-.32-3.43,3.2-2.16,3.66.35.77,4.16-1.52,5.99-2.98,9.48h-2Z"/>
  <path class="st0" d="M0,12c1.23-.12,3.5-1.32,4.31-.14.37.54.35,1.55.73,2.26,1.51,2.82,5.88,4.34,8.96,4.21-.1.59-.67.58-1.12.71-5.4,1.63-9.98.14-12.88-4.72v-2.33Z"/>
  <path class="st0" d="M21,0l1.35,3.16c-.06.6-2.22,1.96-2.83,2.86-.73,1.07-1.43,3.21-1.45,4.48-.03,1.47.73,3.05.76,4.5-.56.05-.79-.57-1.04-.96-2.9-4.54-3.23-10.45,1.21-14.04h2Z"/>
  <path class="st0" d="M140,29.67v6.33c-1.29-.17-3.03.48-4-.5V15c1.31.27,3.69-.69,4.16.67,7.86-3.92,11.39,3.39,9.34,10.33-1.22,4.14-5.79,5.23-9.5,3.67ZM140,26.67c4.79,1.45,6.45-1,6.02-5.52-.37-3.87-2.92-3.41-6.02-2.82v8.33Z"/>
  <path class="st0" d="M57.33,28.5c-.45,1.55-7.06,1.96-8.46,1.8-7.17-.84-8.69-8-7.46-14.05,1.46-7.18,9.83-7.55,15.57-5.9l-.66,3.66c-4.57-1.35-9.48-1.95-10.9,3.6-1.49,5.85,1.55,10.29,7.9,9.07v-6h4v7.83Z"/>
  <path class="st0" d="M102.33,8.67v21.33c-1.03-.15-2.51.22-3.45,0-.26-.06-.23-.67-.37-.66-.49.05-1.59.85-2.37.97-5.54.86-7.61-3.28-7.5-8.16.15-6.22,4.11-9.01,10.02-6.82v-6.67h3.67ZM98.67,18.33c-5.04-1.44-6.48.73-6.02,5.52.35,3.67,3.23,3.95,6.02,2.32v-7.83Z"/>
  <path class="st0" d="M118,10.33l-.66,3.53c-2.57-.15-5.13-1.51-7.6-.12-1.86,3.7,3.04,3.91,5.33,5.01,3.3,1.58,5.05,4.82,3.14,8.3-1.72,3.14-5.4,3.59-8.68,3.25-.64-.07-3.9-.82-4.21-1.12-.83-.8.28-2.51.35-3.51,2.13.85,9.01,2.45,9.01-1.17s-8.7-2.85-9.6-7.74c-1.39-7.51,7.78-8.09,12.92-6.42Z"/>
  <path class="st0" d="M164.33,23.33h-9.67c.51,4.86,4.52,3.89,8.14,3.05,2.21,2.94.08,3.62-2.68,3.92-7.12.77-9.8-2.59-9.15-9.48.49-5.08,4.39-6.81,9.1-6.07,4.09.64,5.18,5.09,4.25,8.59ZM160.67,20.67c.36-3.77-5.7-3.69-5.67,0h5.67Z"/>
  <path class="st0" d="M63.33,15v10.5c0,2.11,4.13,1.84,5.33.67v-11.17h4v15c-1.12-.17-2.77.24-3.78,0-.26-.06-.22-.67-.37-.66-1.92.2-2.81,1.39-5.6.91-1.22-.21-3.58-1.96-3.58-3.09v-12.17h4Z"/>
  <path class="st0" d="M124.33,15v10.5c0,2.01,4.49,1.83,5.67.67v-11.17h3.67v15c-1.02-.15-2.52.23-3.44,0-.26-.06-.22-.67-.41-.68-1.33-.07-3.08,1.52-5.9.94-1.27-.26-3.24-1.71-3.24-3.09v-12.17h3.67Z"/>
  <path class="st0" d="M86.67,8.67v21.33h-4V9.5c0-1.06,3.26-.87,4-.83Z"/>
  <path class="st0" d="M23.67,21.67c1,.08,1.64.88,2.57,1.26,3.21,1.29,6.17,1.53,8.75-1.09-.81-1.02-2.23-1.29-3.49-1.18-1.5.13-2.5,1.81-3.69.37-1.96-2.35,2.36-2.98,4.21-2.55,2.52.59,3.96,3.65,6,5,1.35,2.26-1.17,3.18-3.02,3.7-4.21,1.17-8.05-1.11-10.84-4.17-.42-.46-.63-.63-.5-1.33Z"/>
  <path class="st0" d="M16,16c-1.11-.59-1.14-2.17-1.71-3.12-1.62-2.67-4.73-4.71-7.95-3.72.66.73,1.37,2.33,2.2,2.8,1.26.71,3.14-.2,3.46,1.55.3,1.63-.33,1.95-1.83,1.84-4.32-.32-4.91-7.66-4.79-10.97,6.8-1.5,11.01,5.46,10.62,11.62Z"/>
  <path class="st0" d="M21.67,16c2.79-2.91,5.87-5.91,4.15-10.32-.49-1.26-1-.52-1.63.35-1.22,1.69-.86,3.04-.67,4.97-2.42,2.07-3.1.95-2.87-1.85.19-2.27,1.31-3.14,3.12-4.21,1.5-.88,3.94-1.99,5.56-2.46,1.32.68,1.16,4.64.97,5.99-.49,3.59-5.23,6.97-8.64,7.53Z"/>
  <rect class="st0" x="75.67" y="15" width="4" height="15"/>
  <path class="st0" d="M12.56,33.9c-1.49,1.3-5.49,2.96-7.25,1.55.03-1.07.06-4.07,1.25-4.38.64-.17,2.42.19,3.51-.15,1.23-.38,3.37-2.5,4.07-3.6.65-1.01.83-2.57,1.84-3.32.29,3.01-1.12,7.89-3.43,9.9Z"/>
  <path class="st0" d="M23.33,18.33c2.03-2.93,5.69-5.92,9.45-5.87,1.42.02,5.33,1.09,5.56,2.73.36.95-1.81,3.09-2.53,3.16-1.09-.02-1.45-1.05-2.48-1.52-1.95-.9-3.61-.8-5.6-.25-1.69.46-2.77,1.49-4.41,1.76Z"/>
  <path class="st0" d="M21.67,24.66c-1.39-1.57,3.2.49,3.51.66,4.07,2.32,5.62,5.12,5.17,9.86-.37,3.92-2.77,1.87-4.87.48-.27-.43.8-2.25.87-3.17.23-3.2-1.71-5.48-3.85-7.5-.26-.25-.78-.29-.82-.33Z"/>
  <path class="st0" d="M76.91,9.07c3.4-.77,3.76,4.02,1.18,4.54-3.25.66-3.7-3.97-1.18-4.54Z"/>
</svg>