<?xml version="1.0" encoding="UTF-8"?>
<svg id="Layer_1" xmlns="http://www.w3.org/2000/svg" version="1.1" viewBox="0 0 428.98 76.9">
  <!-- Generator: Adobe Illustrator 30.3.0, SVG Export Plug-In . SVG Version: 2.1.3 Build 182)  -->
  <defs>
    <style>
      .st0 {
        fill: #fff;
      }
    </style>
  </defs>
  <g id="Logo">
    <g>
      <g>
        <path class="st0" d="M106.83,59.64c-2.74,2.75-6.32,5.49-9.83,6.61-3.31,1.07-12.76,1.89-15.54-5.91-.6-1.69-.11-2.21,1.42-2.66,2.28-.68,8.15-2.4,14.35-4.73,5.62-2.1,10.64-4.67,12.21-5.72,2.81-1.85,3.23-4.45,2-7.24-3.95-8.87-12.88-18.16-27.72-15.33-11.8,2.25-20.25,12.87-20.25,25.02,0,15.04,9.06,23.84,20.6,26.57,10.66,2.54,23.21-2.63,28.57-11.32,2.12-3.37-3.87-7.34-5.81-5.29ZM80.12,47.8c-1.16-3.19-.23-12.95,5.15-14.8,5.66-1.94,9.13.98,10.82,6.68.63,2.11.49,4.34-.2,5.19-1,1.21-2.79,1.94-4.4,2.48l-4.24,1.41c-4.17,1.41-6.15,1.7-7.13-.96Z"/>
        <path class="st0" d="M245.01,59.64c-2.74,2.75-6.32,5.49-9.83,6.61-3.31,1.07-12.76,1.89-15.54-5.91-.6-1.69-.11-2.21,1.42-2.66,2.28-.68,8.15-2.4,14.35-4.73,5.62-2.1,10.64-4.67,12.21-5.72,2.81-1.85,3.23-4.45,2-7.24-3.95-8.87-12.88-18.16-27.72-15.33-11.8,2.25-20.25,12.87-20.25,25.02,0,15.04,9.07,23.84,20.6,26.57,10.66,2.54,23.2-2.63,28.57-11.32,2.12-3.37-3.87-7.34-5.81-5.29ZM218.29,47.8c-.69-1.91-.64-6.16.66-9.67.88-2.36,2.19-4.2,4.48-5.12,2.59-1.04,4.8-.75,6.53.24,1.98,1.14,3.39,3.39,4.29,6.44.63,2.11.49,4.34-.2,5.19-1,1.21-2.57,1.83-4.4,2.48-1.83.66-3.47,1.18-4.24,1.43-4.18,1.3-6.14,1.67-7.12-.99Z"/>
        <path class="st0" d="M350.34,59.64c-2.74,2.75-6.32,5.49-9.83,6.61-3.31,1.07-12.76,1.89-15.54-5.91-.6-1.69-.11-2.21,1.42-2.66,2.28-.68,8.15-2.4,14.35-4.73,5.62-2.1,10.64-4.67,12.21-5.72,2.81-1.85,3.23-4.45,2-7.24-3.95-8.87-12.88-18.16-27.72-15.33-11.8,2.25-20.25,12.87-20.25,25.02,0,15.04,9.06,23.84,20.6,26.57,10.66,2.54,23.21-2.63,28.57-11.32,2.12-3.37-3.87-7.34-5.81-5.29ZM323.62,47.8c-.69-1.91-.64-6.16.67-9.67.88-2.36,2.19-4.2,4.48-5.12,2.59-1.04,4.8-.75,6.53.24,1.98,1.14,3.39,3.39,4.29,6.44.63,2.11.49,4.34-.2,5.19-1,1.21-2.57,1.83-4.4,2.48-1.83.66-3.46,1.18-4.24,1.43-4.19,1.3-6.15,1.67-7.13-.99Z"/>
        <path class="st0" d="M39.62,62.5c0,2.02-.63,4.23-2.19,4.92l-3.36,1.52c-.6.28-.77.72-.77,1.39,0,.17,0,.27.05.5l.4,3.82c.18,1.04.89,1.21,2.26,1.21h24.37c1.38,0,2.09-.17,2.26-1.21l.4-3.82c.03-.23.05-.33.05-.5,0-.67-.17-1.11-.77-1.39l-3.36-1.52c-1.55-.69-2.19-2.9-2.19-4.92V20.29c0-2.02.63-4.23,2.19-4.92l3.36-1.52c.6-.27.77-.72.77-1.39,0-.17,0-.27-.05-.5l-.4-2.87c-.18-1.04-.89-1.21-2.26-1.21h-23.24c-1.38,0-2.09.17-2.26,1.21l-.4,2.87c-.03.23-.05.33-.05.5,0,.67.17,1.11.77,1.39l2.74,1.52c1.57.9,1.67,2.91,1.67,4.92v11.77c0,.82-.66,1.48-1.48,1.48h-13.2c-.82,0-1.48-.66-1.48-1.48v-11.77c0-2.02.1-4.02,1.67-4.92l2.74-1.52c.6-.27.77-.72.77-1.39,0-.17-.01-.27-.05-.5l-.4-2.87c-.18-1.04-.89-1.21-2.26-1.21H2.71c-1.38,0-2.09.17-2.26,1.21L.05,11.96c-.03.23-.05.33-.05.5,0,.67.17,1.11.77,1.39l3.36,1.52c1.55.69,2.19,2.91,2.19,4.92v42.21c0,2.02-.63,4.23-2.19,4.92l-3.36,1.52C.17,69.22,0,69.66,0,70.33c0,.17,0,.27.05.5l.4,3.82c.18,1.04.89,1.21,2.26,1.21h24.37c1.38,0,2.09-.17,2.26-1.21l.4-3.82c.03-.23.05-.33.05-.5,0-.67-.17-1.11-.77-1.39l-3.36-1.52c-1.55-.69-2.19-2.9-2.19-4.92v-17.16c0-.82.66-1.48,1.48-1.48h13.2c.82,0,1.48.66,1.48,1.48v17.16h0Z"/>
        <g>
          <path class="st0" d="M135.67,14.99c0,4.69-3.94,8.49-8.8,8.49s-8.79-3.8-8.79-8.49,3.94-8.49,8.79-8.49c4.86,0,8.8,3.8,8.8,8.49Z"/>
          <path class="st0" d="M117.26,75.85c-1.32,0-2-.16-2.17-1.16l-.38-3.81c-.03-.22-.03-.32-.03-.48,0-.64.18-1.03.72-1.33l2.62-1.46c1.45-.7,2.1-2.79,2.1-4.72v-24.1c0-2.02-.35-4.59-2.12-5.48l-1.68-.97c-.6-.27-.77-.72-.77-1.38,0-.17.01-.27.05-.5l.4-2.87c.18-1.04.89-1.21,2.26-1.21h16.46c.82,0,1.48.66,1.48,1.48v35.03c0,1.94.65,4.02,2.1,4.72l2.62,1.46c.55.3.72.69.72,1.33,0,.16,0,.27-.03.48l-.38,3.81c-.17,1-.85,1.16-2.17,1.16h-21.8Z"/>
        </g>
        <path class="st0" d="M167.08,28.95s.93-.45,2.59-1.26c3.3-1.55,9.75-4.32,15.08-2.62,4.62,1.48,8.61,4.83,8.61,13.63v26.67c0,1.14.05,1.61.58,1.9.71.39,1.94-.77,3.12-1.38,1.19-.61,1.85.11,2.58.91.64.71,1.4,1.7.78,3.01-1.97,4.13-6.38,6.5-11.55,6.5-4.88,0-11.09-2.8-11.09-10.11v-25.68c0-3.92-2.85-5.29-5.06-5.01-3.34.41-5.77,3.21-5.77,8.19v19.19c0,1.94.65,4.02,2.1,4.72l2.62,1.46c.55.3.72.69.72,1.33,0,.16,0,.27-.03.48l-.38,3.81c-.17,1-.85,1.16-2.17,1.16h-21.81c-1.32,0-2-.16-2.17-1.16l-.38-3.81c-.03-.22-.03-.32-.03-.48,0-.64.18-1.03.72-1.33l2.62-1.46c1.45-.7,2.1-2.79,2.1-4.72v-24.1c0-2.02-.34-4.59-2.11-5.48l-1.68-.97c-.6-.27-.77-.72-.77-1.38,0-.17,0-.27.05-.5l.4-2.87c.18-1.04.89-1.21,2.26-1.21h15.51c1.22,0,1.69.7,2.04,1.48l.52,1.09Z"/>
        <path class="st0" d="M379.91,28.95s.93-.45,2.59-1.26c3.3-1.55,9.75-4.32,15.08-2.62,4.62,1.48,8.61,4.83,8.61,13.63v26.67c0,1.14.05,1.61.58,1.9.71.39,1.94-.77,3.12-1.38,1.19-.61,1.85.11,2.58.91.64.71,1.4,1.7.78,3.01-1.97,4.13-6.38,6.5-11.55,6.5-4.88,0-11.09-2.8-11.09-10.11v-25.68c0-3.92-2.85-5.29-5.06-5.01-3.34.41-5.77,3.21-5.77,8.19v19.19c0,1.94.65,4.02,2.1,4.72l2.62,1.46c.55.3.72.69.72,1.33,0,.16.01.27-.03.48l-.38,3.81c-.17,1-.85,1.16-2.17,1.16h-21.81c-1.32,0-2-.16-2.17-1.16l-.38-3.81c-.03-.22-.03-.32-.03-.48,0-.64.18-1.03.72-1.33l2.62-1.46c1.45-.7,2.1-2.79,2.1-4.72v-24.1c0-2.02-.34-4.59-2.12-5.48l-1.68-.97c-.6-.27-.77-.72-.77-1.38,0-.17.01-.27.05-.5l.4-2.87c.18-1.04.89-1.21,2.26-1.21h15.51c1.22,0,1.69.7,2.04,1.48l.53,1.09Z"/>
        <path class="st0" d="M300.93,63.56c1.16,1.86,2.57,3.35,4.02,4.06l2.62,1.46c.55.3.72.69.72,1.33,0,.16,0,.27-.03.48l-.38,3.81c-.17,1-.85,1.16-2.17,1.16h-13.17c-2.25,0-2.42-.65-3.44-2.49l-11.04-20.1-4.15,3.98v5.66c0,1.94.91,3.96,2.42,4.72l2.62,1.46c.55.3.72.69.72,1.33,0,.16.01.27-.03.48l-.38,3.81c-.17,1-.85,1.16-2.17,1.16h-21.79c-1.32,0-2-.16-2.17-1.16l-.38-3.81c-.03-.22-.03-.32-.03-.48,0-.64.18-1.03.72-1.33l2.62-1.46c1.45-.7,2.1-2.79,2.1-4.72V19.76c0-1.93-.6-3.95-2.1-4.72l-2.62-1.46c-.55-.3-.72-.69-.72-1.33,0-.16,0-.26.03-.48l.38-2.72c.17-1,.85-1.16,2.17-1.16h15.81c1.55,0,2.81,1.26,2.81,2.81v32.76l7.03-6.35c1-.86,2.64-2.3,3.28-2.94.64-.64.77-1.59-.14-1.97l-2.48-1.12c-.55-.25-.71-.65-.71-1.26,0-.15.01-.25.04-.46l.36-3.48c.16-.95.81-1.1,2.06-1.1h18.93c1.25,0,1.9.15,2.06,1.1l.36,3.48c.03.21.04.31.04.46.04.75-.85,1.12-1.4,1.37,0,0-1.35.39-2.57,1.09s-2.53,1.74-4.17,3.22l-7.3,7.01,11.62,21.05Z"/>
      </g>
      <g>
        <path class="st0" d="M402.82,13.06h0c0,7.23,5.86,13.09,13.08,13.09s13.08-5.86,13.08-13.09-5.86-13.06-13.08-13.06-13.08,5.84-13.08,13.06h0ZM415.89,23.35h0c-5.69,0-10.29-4.6-10.29-10.29s4.6-10.28,10.29-10.28,10.29,4.6,10.29,10.28c0,5.69-4.61,10.29-10.29,10.29h0Z"/>
        <path class="st0" d="M410.51,19.42h3.23v-5.5s.2.02,1.29.07c1.62.07,2.46.36,2.94,1.87.34,1.05.5,2.03,1.17,3.56,1.43.03,1.83.03,3.31.03-.35-.88-.88-1.94-1.11-3.43-.24-1.55-.77-2.4-1.92-3.18,1.05-.38,2.11-1.68,2.11-3.58,0-2.99-3.12-3.92-4.26-3.92h-6.75v14.08h-.01ZM416.36,11.11h-2.61v-3.21h2.28c.99,0,2.18.42,2.18,1.53,0,.98-.76,1.68-1.85,1.68h0Z"/>
      </g>
    </g>
  </g>
</svg>