<?xml version="1.0" encoding="UTF-8"?>
<svg id="Layer_1" xmlns="http://www.w3.org/2000/svg" version="1.1" viewBox="0 0 250 250">
  <!-- Generator: Adobe Illustrator 29.8.6, SVG Export Plug-In . SVG Version: 2.1.1 Build 1)  -->
  <g>
    <path d="M188.01,39.73c1.53-3.65,2.33-6.59,2.39-8.82-.18-1.42-.82-2.12-1.95-2.12h-1.05c-5.17,0-11.29,3.85-18.34,11.56-4.77,5.64-8.21,10.34-10.32,14.11-3.95,6.18-7.62,13.55-11.03,22.14-4.7,12.05-7.05,22.23-7.05,30.51,0,7.52,2.14,12.49,6.44,14.9.93.45,1.93.79,2.99.98.87.17,1.78.25,2.74.25,2.93,0,5.94-.67,9-2.02.02-.13.06-.27.1-.4.81-3.57,2.05-7.23,3.69-10.97,1.47-3.19,3.94-7.8,7.4-13.86.41-.75.62-1.32.62-1.67-.12-.23-.21-.35-.27-.35l-9.52,2.56c-1.53.24-2.82.35-3.88.35-3.77,0-6.32-1.44-7.68-4.32-.76-1.64-1.14-3.88-1.14-6.7,0-1.53.87-2.56,2.64-3.09,1.24.06,2.11.1,2.64.1,4.82,0,10.61-.68,17.38-2.03,6.58-1.3,11.25-1.94,14.03-1.94h.97c4.17,0,6.88,1.26,8.12,3.79.11.24.21.62.25,1.15,0,1.3-1.34,4.23-4.06,8.82-5.86,11.1-9.78,20.48-11.76,28.17-1.03,3.97-1.55,7.49-1.55,10.54v1.5c0,3.77.93,7.29,2.82,10.59v.08c-.94,1.07-3.29,1.59-7.06,1.59h-.52c-6.47,0-10.79-1.76-12.97-5.29l-.44-1.49c-5.35,2.58-10.44,3.88-15.26,3.88-2.23,0-4.32-.22-6.3-.67-9.56-2.11-16.15-9.35-19.8-21.74-.96-3.56-1.59-7.34-1.89-11.31-.16-1.91-.23-3.88-.23-5.87,0-.53,0-1.08.02-1.62.07-3.6.41-7.3,1.03-11.11.62-3.84,1.5-7.79,2.66-11.85.42-1.51.9-3.04,1.41-4.58,1.93-5.86,4.4-11.93,7.4-18.21,1.01-1.99,2.07-3.97,3.2-5.94,1.64-2.87,3.39-5.72,5.27-8.54,2.24-3.52,5.89-8.02,10.94-13.49,10.24-10.16,20.14-15.25,29.72-15.25h.44c8.71,0,16.09,3.44,22.14,10.31,3.46,4.42,5.21,8.38,5.21,11.92,0,10.28-3.29,20.23-9.88,29.81-3.52,4.53-6.12,7.09-7.76,7.67-1.94.94-4.2,1.42-6.78,1.42-4.59,0-9.08-1.24-13.49-3.71-1.83-1.24-2.74-2.3-2.74-3.17v-.18c.06-.7,2.14-2.97,6.26-6.8,5.71-5.87,9.15-9.87,10.32-11.99,1.94-2.58,3.44-5.11,4.49-7.58Z"/>
    <path d="M126.17,17.32c-1.3-.87-3.56-1.32-6.8-1.32h-.62c-7.87,0-16.19,2.82-24.95,8.47-2.82,1.71-6.59,4.86-11.29,9.44-4.42,4.88-7.51,8.91-9.27,12.09-4.12,7.47-6.18,13.74-6.18,18.79s2.06,10.34,6.18,15.35c4,4.35,7.23,6.53,9.7,6.53h.44c.24,0,.45-.06.62-.18.82-.35,1.24-1.11,1.24-2.29v-.08c-.53-3.89-.79-6.8-.79-8.73,0-13.35,5.46-24.93,16.4-34.75,3.94-3.54,7.46-6.15,10.59-7.85-8.36,19.63-17.05,43.3-26.1,70.99-.3.12-1.25.36-2.82.71-7.76,1.05-13.68,2.14-17.73,3.26-3.94,1.24-7.15,2.59-9.62,4.06-1.71.94-3.65,2.59-5.81,4.94-1.05,1.36-1.93,2.73-2.6,4.09-1.27,2.53-1.9,5.08-1.9,7.63v1.32c0,3.83,1.42,7.41,4.24,10.77,4.47,4.7,10.11,7.05,16.93,7.05,7.17,0,14.28-2.43,21.34-7.32l3.52-3,.05-.05c2.74-2.91,4.72-5.55,5.95-7.89,2.41-4.18,4.74-10.32,6.98-18.44,0-.64.41-1.05,1.24-1.24,2.11-1.02,4.46-2.41,7.05-4.18,1.45-.98,2.98-2.1,4.59-3.32.45-.35.93-.74,1.44-1.17.38-.33.76-.68,1.17-1.07.69-.63,1.42-1.34,2.19-2.13.52-.52,1.07-1.09,1.64-1.7,2.58-4.61,2.4-10.54,4.06-15.21-.52.84-1.25,1.83-2.23,2.98-.86,1.01-1.88,2.12-3.08,3.37-.52.55-1.08,1.11-1.67,1.71-.35.33-.7.64-1.05.94-2.27,1.97-4.51,3.63-6.73,4.98-1.55.94-3.11,1.72-4.65,2.36h-.17c.93-2.7,1.76-5.08,2.47-7.13,2.25-6.01,4.75-12.28,7.51-18.84,2.2-5.24,4.58-10.67,7.12-16.27,1.37-3.05,2.62-5.85,3.72-8.42,4.64-10.77,6.95-17.31,6.95-19.63v-.7c0-2.88-3.09-5.85-9.25-8.91ZM78.2,123.34c-4.06,7.23-8.44,10.84-13.14,10.84-.35,0-.94-.02-1.77-.08-2.88-.93-4.32-2.56-4.32-4.85s1.74-4.45,5.21-6.26c1.54-.67,3.49-1.39,5.85-2.17,2.87-.96,6.36-2,10.47-3.13h.08c-.35.92-.78,1.96-1.28,3.13-.33.79-.69,1.62-1.09,2.52Z"/>
  </g>
  <path d="M90.94,137.22l-.05.05-3.52,3c-7.06,4.88-14.17,7.32-21.34,7.32s-12.46-2.35-16.93-7.05c-2.82-3.36-4.24-6.94-4.24-10.77v-1.32c0-2.56.63-5.1,1.9-7.63h23.27c-2.36.78-4.31,1.5-5.85,2.17-3.46,1.82-5.21,3.9-5.21,6.26s1.44,3.91,4.32,4.85c.82.06,1.42.08,1.77.08,4.7,0,9.08-3.61,13.14-10.84.4-.9.76-1.73,1.09-2.52h2.8l8.85,16.4Z"/>
  <path d="M202.51,120.82v112.1h-41.63v-53.33l-30.58,53.33h-27.23l-30.58-53.33v53.33H30.83v-112.1h9.34c-.92,2.51-1.38,5.06-1.38,7.63v1.32c0,5.28,1.91,10.21,5.66,14.67l.12.13.12.13c5.63,5.94,12.82,8.94,21.33,8.94s16.73-2.82,24.78-8.39l.25-.17,2.82-2.41.42.78,13.87,25.69,8.5,15.75,20.45-37.85c3.19.91,6.35,1.24,9.25,1.24,4.15,0,8.45-.79,12.85-2.36,3.55,3.5,8.84,5.27,15.82,5.27h.52c3.9,0,8.73-.41,11.58-3.61l1.54-1.82v-3.91l-.8-1.39c-1.36-2.39-2.02-4.86-2.02-7.58v-1.5c0-2.94.58-6.47,1.74-10.54h14.9Z"/>
</svg>