<?xml version="1.0" encoding="UTF-8"?>
<svg xmlns="http://www.w3.org/2000/svg" version="1.1" viewBox="0 0 4000 1486">
  <!-- Generator: Adobe Illustrator 30.3.0, SVG Export Plug-In . SVG Version: 2.1.3 Build 182)  -->
  <g id="Layer_1">
    <g>
      <path d="M269.94,776.77c-14.89,7.97-20.21,14.88-20.21,18.73,0,1.77.35,2.16.74,2.6.69.77,2.7,2.59,7.78,4.55,4.08.27,5.89.3,6.56.3,9.64,0,19.18-4,29.16-12.23,9.06-7.49,18.16-18.25,27.16-32.1-21.49,6.72-38.62,12.8-51.19,18.15ZM249.73,795.5c0,1.77.35,2.16.74,2.6.69.77,2.7,2.59,7.78,4.55,4.08.27,5.89.3,6.56.3,9.64,0,19.18-4,29.16-12.23,9.06-7.49,18.16-18.25,27.16-32.1-21.49,6.72-38.62,12.8-51.19,18.15-14.89,7.97-20.21,14.88-20.21,18.73ZM269.94,776.77c-14.89,7.97-20.21,14.88-20.21,18.73,0,1.77.35,2.16.74,2.6.69.77,2.7,2.59,7.78,4.55,4.08.27,5.89.3,6.56.3,9.64,0,19.18-4,29.16-12.23,9.06-7.49,18.16-18.25,27.16-32.1-21.49,6.72-38.62,12.8-51.19,18.15ZM1067.03,756.82l-.49-.64-.44-.67c-5.44-8.21-10.09-16.58-13.96-25.08h-69.76c-9.27,12.31-19.16,24.53-29.56,36.53l-.37.43-.38.4c-40.45,42.68-88.16,64.32-141.8,64.32-21.73,0-41.99-2.85-60.71-8.53l-159.74,295.81-135.84-251.57-.6.52-23.5,19.97-.96.81-1.04.73c-51.12,35.34-103.81,53.26-156.61,53.26s-96.61-18.47-131.22-54.9l-.53-.55-.48-.59c-22.68-26.92-34.17-56.54-34.17-88.04v-8.81c0-20.14,4.74-40.14,14.14-59.79h-50.39v680.68h252.82v-323.81l185.73,323.81h165.31l185.73-323.81v323.81h252.82v-610.78c-16.05-11.47-30.79-26.04-44-43.51Z" fill="#fff"/>
      <path d="M1869.5,1153.42v-86.09l-.95.48-1.18.6-5.42,2.75h-9.61c-23.23,0-44.56-6.09-63.43-18.07-18.1-11.52-33.97-28.6-47.13-50.77l-.59-1-.5-1.04c-1.93-4.05-3.68-8.11-5.23-12.17h-332.71v-63.2h324.14c2.65-19.46,11.72-55.7,39.72-134.79,4.67-13.89,9.31-27.57,13.9-41.02-9.01,8.31-17.65,15.64-25.9,21.96l-.18.14-.18.13c-55.14,40.72-112.79,61.36-171.34,61.36h-7.65c-29.87,0-54.83-5.53-74.21-16.48-35.32-17.63-60.5-46.49-74.88-85.78h-11.14c-57.66,67.49-125.8,101.68-202.61,101.68-22.11,0-43.05-3.68-62.49-10.96v589.96h719.57v-194.48h-466.75v-63.21h466.75Z" fill="#fff"/>
      <path d="M2638.58,827.17c-5.63,1.34-11.15,2-16.59,2h-8.8c-19.12,0-37.16-4.56-53.61-13.54-15.84-8.65-30.3-21.51-43.01-38.21l-.46-.62-.44-.65c-7.1-10.64-12.4-21.58-15.86-32.75-30.35-8.59-62.17-12.87-94.39-12.96-12.14,28.3-15.24,45.49-15.24,55.66v9.4c0,.28.03,1.93.46,6.21l1.81,17.6-15.86,7.82-1.18.58-5.32,2.63h-14.16c-20.03,0-38.71-4.57-55.51-13.6-16.41-8.81-31.11-21.94-43.69-39.04l-.36-.48-.32-.49c-9.82-14.72-16.18-30.24-19.01-46.3h-31.56c-15.67,18.82-32.01,35.16-48.74,48.72-43.8,35.53-91.88,53.54-142.87,53.54h-1.78c-28.12,0-55.05-5.58-80.4-16.63-2.55,7.31-5.82,16.82-9.98,29.21-9.31,27.89-17,53.76-23.05,77.53v488.31h505.65c164.33,0,318.94-108.91,318.94-340.34,0-106.88-32.98-187.64-84.67-243.6ZM2326.52,1197.18h-175.03v-252.82h175.03c54.45,0,143.91,0,143.91,126.41s-89.46,126.41-143.91,126.41Z" fill="#fff"/>
      <path d="M2752.42,730.43v680.68h252.82v-680.68h-252.82Z" fill="#fff"/>
      <path d="M3682.03,730.43h-177.76c-9.12,30.63-13.71,57.08-13.71,79.18v9.97c0,20.77,5.05,39.7,15.44,57.85l3.36,5.87v17.03l-6.44,7.24c-1.73,1.94-3.64,3.72-5.75,5.34l75.95,200.64h-157.53l74.18-195.98c-12.14,6.23-29.2,9.1-52.84,9.1h-3.53c-46.66,0-80.61-12.67-101.13-37.7-30.89,12.17-60.99,18.32-89.75,18.32-3.04,0-6.06-.06-9.04-.17l-208.8,503.99h278.11l46.68-122.53h289.77l46.68,122.53h278.1l-281.99-680.68Z" fill="#fff"/>
    </g>
  </g>
  <g id="Layer_2">
    <path d="M3615.48,83.66c23.1,29.37,34.66,55.81,34.66,79.29,0,68.53-21.95,134.71-65.79,198.52-23.5,30.16-40.74,47.2-51.7,51.1-12.93,6.27-27.99,9.4-45.2,9.4-30.57,0-60.51-8.21-89.87-24.66-12.15-8.21-18.21-15.28-18.21-21.14v-1.18c.39-4.69,14.29-19.76,41.69-45.22,37.98-39.14,60.89-65.77,68.72-79.87,12.93-17.21,22.9-34.06,29.97-50.52,10.17-24.28,15.46-43.84,15.85-58.73-1.18-9.38-5.49-14.1-12.92-14.1h-7.04c-34.46,0-75.19,25.65-122.17,76.94-31.72,37.59-54.64,68.92-68.73,93.97-26.24,41.12-50.71,90.27-73.41,147.42-31.33,80.28-46.99,148.02-46.99,203.22,0,50.12,14.28,83.2,42.88,99.25,11.34,5.49,24.06,8.22,38.16,8.22,19.57,0,39.54-4.5,59.92-13.51,5.48-24.66,13.89-49.91,25.25-75.76,9.77-21.15,26.21-51.89,49.33-92.22,2.74-5.07,4.11-8.79,4.11-11.15-.79-1.57-1.37-2.36-1.76-2.36l-63.42,17.04c-10.19,1.58-18.81,2.35-25.84,2.35-25.06,0-42.1-9.59-51.11-28.79-5.1-10.96-7.62-25.83-7.62-44.63,0-10.17,5.86-17.02,17.61-20.55,8.22.39,14.09.58,17.62.58,32.11,0,70.67-4.5,115.7-13.51,43.85-8.6,74.99-12.93,93.39-12.93h6.46c27.79,0,45.81,8.43,54.04,25.26.77,1.58,1.36,4.12,1.75,7.63,0,8.62-9.01,28.21-27.01,58.74-59.12,111.99-88.69,197.94-88.69,257.84v9.98c0,25.06,6.26,48.56,18.8,70.49v.58c-6.27,7.04-21.95,10.58-46.99,10.58h-3.53c-43.08,0-71.86-11.76-86.34-35.24l-2.93-10c-35.64,17.25-69.5,25.85-101.61,25.85-86.54,0-144.49-49.72-173.84-149.19-9.4-35.24-14.1-73.41-14.1-114.53,0-94.36,27.8-199.48,83.39-315.39,16.44-32.5,35.24-64.6,56.38-96.33,14.88-23.48,39.16-53.43,72.85-89.86,68.12-67.73,134.09-101.6,197.92-101.6h2.93c57.95,0,107.1,22.91,147.43,68.72Z" fill="#fff"/>
    <path d="M2933.85,345.03c4.31,1.17,6.46,5.28,6.46,12.33,0,27.01-38.57,104.35-115.69,232-91.63,142.91-159.18,214.37-202.64,214.37h-8.79c-29.77,0-55.23-13.89-76.36-41.7-10.97-16.44-16.45-33.27-16.45-50.5v-1.78c0-12.12,5.28-31.11,15.86-56.96,57.56-158.96,86.35-240.22,86.35-243.75.39-2.33.58-4.89.58-7.62v-2.35c-.79-3.51-2.35-5.28-4.7-5.28-15.68,3.91-47.18,36.8-94.56,98.66-52.87,72.05-92.4,132.34-118.63,180.9-27.02,49.34-40.53,86.93-40.53,112.77v9.4c0,1.96.19,4.9.59,8.81l-1.17.58h-8.22c-31.72,0-57.97-14.09-78.71-42.28-10.95-16.44-16.44-33.67-16.44-51.69,0-11.35,5.68-31.51,17.04-60.49,82.61-231.02,137.82-383.13,165.62-456.36,22.31-56.39,39.93-96.72,52.86-121,3.51-5.48,8.79-8.21,15.86-8.21,15.67,0,37.2,10.58,64.6,31.72,10.96,9.4,16.46,19.78,16.46,31.13,0,14.88-13.31,53.26-39.94,115.12-40.74,99.07-68.14,165.81-82.22,200.28h.58c26.22-41.1,59.51-84.96,99.84-131.56,52.87-57.56,96.92-86.35,132.15-86.35,11.74,0,28.97,7.05,51.68,21.14,21.54,13.7,32.31,28,32.31,42.88s-14.88,56.78-44.63,125.69c-31.34,72.44-58.35,140-81.04,202.63-12.15,34.85-20.18,62.06-24.08,81.63v1.17c0,3.53,1.36,5.29,4.1,5.29,14.48,0,55.98-42.09,124.53-126.28,34.06-42.67,61.86-80.07,83.39-112.17,25.05-36.42,44.25-67.94,57.56-94.57,10.58-18.39,19.37-27.59,26.41-27.59Z" fill="#fff"/>
    <path d="M2299.9,265.73c-28.22-24.27-59.15-36.43-92.8-36.43s-71.28,20.19-110.43,60.52v-.6c5.09-9.38,7.64-17.22,7.64-23.49,0-8.6-4.71-16.05-14.1-22.32-19.97-9.78-45.04-14.69-75.18-14.69-11.35,0-22.51,12.35-33.46,37.01-8.9,22.79-17.93,46.51-27.1,71.14-8.03,21.6-16.16,43.92-24.4,66.92-6.69,18.68-13.44,37.82-20.27,57.44-7.09,11.02-14.24,21.82-21.49,32.38-1.97,2.88-4.02,5.81-6.13,8.77-7.6,10.7-16.06,21.95-25.37,33.72-19.3,24.44-42.29,51.19-68.93,80.27-67.74,69.7-121,104.55-159.76,104.55h-5.29c-5.09,0-10.97-1.18-17.62-3.53-19.59-7.43-29.37-26.04-29.37-55.8,0-23.88,6.26-57.36,18.8-100.43h.59c20.75,19.18,43.66,28.78,68.72,28.78h7.04c22.32,0,46.01-7.82,71.07-23.49,11.35-7.44,24.47-19.97,39.36-37.59,42.29-58.74,63.43-112.38,63.43-160.93v-5.28c0-14.88-1.97-28.99-5.89-42.31-6.27-23.48-16.44-39.72-30.52-48.73-37.59-25.85-76.35-38.77-116.3-38.77-23.11,0-42.69,5.29-58.74,15.86-10.57,4.71-27.01,18.6-49.32,41.7-20.76,25.07-37.02,48.55-48.76,70.47-12.97,22.58-25.38,48.13-37.21,76.64-6.51,15.63-12.84,32.15-18.99,49.55-3.65,10.29-7.23,20.9-10.76,31.81-.74,2.33-1.47,4.63-2.19,6.91-6.94,9.11-14.2,18.48-21.79,28.1-6.4,8.12-13.04,16.42-19.9,24.9-3.28,4.07-6.62,8.18-10.02,12.33,0-39.15-22.14-91.81-66.37-158-19.3-28.47-33.06-52.19-41.3-71.17-6.14-14.15-9.22-25.66-9.22-34.53,0-1.96.14-3.91.41-5.87.58-4.3,1.82-8.62,3.71-12.92,6.98-9.32,13.21-15.17,18.67-17.56,8.27-3.61,13.58-11.89,13.62-20.91v-.3c-1.17-19.18-1.75-31.13-1.75-35.83v-7.65c0-8.6-3.34-12.9-9.97-12.9h-12.35c-21.54,0-44.25,9-68.13,27.01-36.42,32.9-54.61,68.52-54.61,106.88,0,15.66,3.32,33.25,10,52.76,1.62,4.76,3.43,9.61,5.46,14.59,1.82,4.5,3.8,9.09,5.94,13.77-2.74,3.93-5.57,7.93-8.48,11.99-1.86,2.62-3.77,5.26-5.71,7.92-.89,1.29-1.78,2.56-2.66,3.82-26.97,38.51-51.3,68.89-72.96,91.13-.44.46-.89.92-1.33,1.36-4.16,3.91-8.13,7.51-11.92,10.77-13.28,11.5-24.18,19.06-32.71,22.71-2.86,1.38-5.61,2.65-8.24,3.82-15.41,6.87-26.96,10.29-34.64,10.29,34.06-84.18,52.66-157.98,55.8-221.43,1.96-39.53-2.95-68.12-14.68-85.75-31.33-48.16-74.98-72.24-130.98-72.24-63.9,0-121.93,34.98-174.07,104.94-3.55,4.76-7.08,9.68-10.57,14.77-13.44,19.56-26.48,41.52-39.12,65.88-8.85,18.87-16.81,37.09-23.86,54.67-3.88,5.96-7.82,11.82-11.8,17.57-3.42,6.08-8.95,13.61-16.58,22.62-5.66,6.67-12.47,14.13-20.43,22.42-3.49,3.62-7.22,7.41-11.16,11.34-27.81,25.47-55.41,43.87-82.81,55.21h-1.18c6.26-18,11.75-33.86,16.46-47.56,27.01-72.06,59.51-149.98,97.48-233.76,47.38-105.32,71.07-167.59,71.07-186.77v-4.7c0-19.19-20.56-38.94-61.67-59.32-8.61-5.86-23.68-8.82-45.21-8.82h-4.13c-52.46,0-107.87,18.79-166.2,56.38-18.79,11.37-43.86,32.32-75.18,62.86-29.37,32.51-49.94,59.33-61.67,80.46-27.42,49.74-41.12,91.44-41.12,125.1s13.7,68.92,41.12,102.2c26.61,28.99,48.15,43.47,64.61,43.47h2.93c1.56,0,2.93-.39,4.11-1.18,5.48-2.36,8.22-7.43,8.22-15.27v-.59c-3.53-25.85-5.29-45.22-5.29-58.14,0-88.88,36.41-166.01,109.25-231.41,26.23-23.5,49.72-40.93,70.48-52.27-55.62,130.79-113.56,288.38-173.84,472.8-1.97.79-8.24,2.35-18.8,4.69-51.69,7.05-91.04,14.29-118.06,21.72-26.24,8.25-47.57,17.25-64.02,27.04-11.36,6.27-24.29,17.23-38.76,32.88-19.96,25.86-29.95,51.89-29.95,78.12v8.81c0,25.45,9.4,49.34,28.19,71.65,29.75,31.32,67.34,46.98,112.77,46.98,47.76,0,95.13-16.24,142.14-48.74l23.48-19.97c18.41-19.57,31.72-37.19,39.94-52.85,16.05-27.8,31.51-68.72,46.4-122.77,0-4.3,2.74-7.04,8.23-8.22,21.92-10.57,47.76-27.21,77.51-49.92,5.25-4.01,11.08-8.99,17.5-14.93,4.56-4.23,9.42-8.96,14.57-14.18,4.94-5,10.14-10.44,15.62-16.34-1.46,7.61-2.66,15.04-3.62,22.29-.9,6.84-1.59,13.52-2.06,20.04-.19,2.63-.34,5.24-.46,7.81-2.36,52.49,8.99,96.13,34.06,130.99,31.32,37.2,73.2,55.8,125.69,55.8,46.58,0,87.71-18.79,123.32-56.39,15.28-17.61,29.18-35.43,41.72-53.44h15.26c15.79,0,32-3.46,48.65-10.39,4.02-1.67,8.06-3.54,12.13-5.61,4.03-2.05,8.09-4.31,12.17-6.76.3,4.59.85,9.15,1.65,13.68.77,4.34,1.77,8.67,3.01,12.96,3.97,13.88,10.36,27.46,19.14,40.75,32.89,43.47,74.58,65.2,125.1,65.2,70.86,0,133.13-32.3,186.77-96.93,5.37-6.99,10.65-13.95,15.82-20.88,3.75-5.05,7.46-10.08,11.1-15.09,4.18-5.74,8.29-11.46,12.31-17.16v5.57c0,5.06.25,10.13.77,15.21.6,5.9,1.54,11.8,2.83,17.73,1.82,8.36,4.34,16.77,7.54,25.2,12.15,34.08,33.3,58.55,63.45,73.42,15.65,9.02,36.4,13.51,62.25,13.51h7.65c53.23,0,105.32-18.79,156.22-56.38,18.18-13.95,38.36-33.06,60.53-57.33,6.48-7.08,13.12-14.6,19.93-22.56.88-1.07,1.74-2.14,2.61-3.19,8.62-10.61,16.87-21.13,24.73-31.53-4.43,12.35-8.93,24.96-13.47,37.83-3.8,10.73-7.63,21.64-11.48,32.73-10.18,29.27-20.63,59.8-31.31,91.61-26.23,74.02-39.35,120.6-39.35,139.8,0,16.83,4.12,33.85,12.33,51.09,22.33,37.59,51.89,56.39,88.69,56.39h3.53l1.18-.6c0-1.57-.21-5.88-.6-12.9,0-47.78,13.7-112.79,41.12-195.01,11.73-34.85,18.58-53.83,20.55-56.97,28.98,18.03,60.3,27.02,93.97,27.02h1.78c90.44,0,169.14-63.82,236.09-191.48,52.46-112.36,78.7-199.48,78.7-261.35v-11.16c0-34.45-9.58-60.29-28.76-77.53ZM1625.78,480.1c53.64-117.45,93.77-176.2,120.39-176.2h1.17c9,0,13.51,7.84,13.51,23.51v5.86c0,18.03-5.09,42.69-15.26,74.01-8.62,23.11-17.04,41.11-25.26,54.03-30.94,48.16-58.35,72.24-82.21,72.24h-.6c-10.19,0-19.59-4.31-28.2-12.93,2.74-7.82,8.22-21.32,16.46-40.52ZM352.31,756.15c-27.01,48.16-56.18,72.25-87.5,72.25-2.36,0-6.28-.2-11.76-.6-19.18-6.25-28.77-17.02-28.77-32.3s11.55-29.55,34.65-41.7c22.7-9.79,58.92-21.53,108.66-35.23h.58c-3.91,10.18-9.2,22.71-15.86,37.58ZM804.98,726.2l-5.28-.59c-13.31-10.96-19.21-34.65-17.62-71.07,1.55-24.66,6.64-54.81,15.26-90.45,5.87-24.27,9.4-36.4,10.57-36.4,0,1.17,1.16,4.7,3.52,10.57,7.45,20.76,19.58,44.25,36.43,70.47,9.78,14.89,22.11,29.58,37,44.05-28.99,48.95-55.6,73.42-79.88,73.42ZM981.76,346.78c-2.74,54.43-18.99,122.76-48.75,204.99-13.7-14.09-24.28-27.02-31.72-38.77-24.27-43.46-35.63-81.84-34.05-115.12.38-14.09,4.88-26.83,13.5-38.18,27.79-45.03,53.24-70.68,76.35-76.95,3.9,0,7.05.6,9.4,1.78,11.74,7.83,16.84,28.58,15.27,62.25ZM1256.47,675.1c-23.11,19.58-47.97,29.36-74.6,29.36-10.19,0-21.33-2.15-33.48-6.45-15.14-7.94-25.64-18.46-31.48-31.56-1.86-4.15-3.26-8.57-4.16-13.24-.92-4.59-1.37-9.44-1.37-14.54v-1.39c4.15-3.85,8.32-7.89,12.51-12.11.18-.2.35-.38.51-.57,5.57-6.14,10.98-12.29,16.24-18.46,30.47-35.73,55.98-72.03,76.49-108.88.26-.44.49-.86.73-1.3,2.13-3.97,4.21-7.86,6.23-11.67,2.4-4.5,4.72-8.89,6.97-13.18,2.45,4.19,5.01,8.42,7.68,12.71.82,1.31,1.63,2.61,2.45,3.92,1.94,2.69,3.82,5.36,5.63,8.01,27.58,40.17,41.36,75.67,41.36,106.52,0,28.2-10.58,52.48-31.71,72.83ZM2155.4,504.18c-22.32,62.65-48.56,115.12-78.7,157.41-32.89,37.59-57.56,56.38-74,56.38-15.29,0-22.91-13.7-22.91-41.1,0-39.16,13.5-94.17,40.53-165.04,57.55-135.87,104.93-203.81,142.12-203.81,3.53,0,6.86.4,10,1.18,10.58,4.7,15.87,18.59,15.87,41.69,0,36.43-10.98,87.53-32.91,153.29Z" fill="#fff"/>
  </g>
</svg>