<svg version="1.1" id="Layer_1" focusable="false" xmlns="http://www.w3.org/2000/svg" xmlns:xlink="http://www.w3.org/1999/xlink" x="0px" y="0px" viewBox="0 0 351.4 63.6" style="enable-background:new 0 0 351.4 63.6;" xml:space="preserve">
 <style type="text/css">
  .st0{fill:#FFFFFF;}
 </style>
 <polygon class="st0" points="191.2,59.3 236.5,59.3 236.5,53.8 199,53.8 199,36 227.2,36 227.2,30.4 199,30.4 199,14.1 236.5,14.1 
	236.5,8.6 191.2,8.6 ">
 </polygon>
 <polygon class="st0" points="214.8,0.4 208.6,7.3 227.9,0.4 ">
 </polygon>
 <polygon class="st0" points="305.6,8.6 305.6,59.3 351.4,59.3 351.4,53.8 312.7,53.8 312.7,8.6 ">
 </polygon>
 <path class="st0" d="M258.7,39.8l12.2-24.2l12.3,24.2L258.7,39.8z M265.9,8.6l-25.8,50.7h8.8l6.6-13.1h30.9l6.6,13.1h8.6L275.9,8.6
	H265.9z">
 </path>
 <path class="st0" d="M160.5,32h-23.7V14.6h24.5c5.6,0,8.8,2.6,10,6c0.7,2.5,0.3,5.1-1,7.4C168.3,31.3,164.4,32.1,160.5,32
	 M166.6,38.1c11.6-3.1,12.8-11.8,12.7-14.8c-0.7-9.1-6.8-14.7-17.8-14.7h-32v50.7h7.3V38h20.8l15.3,21.3h9.2
	C182.1,59.3,171.1,45,166.6,38.1">
 </path>
 <path class="st0" d="M85.7,0C65.2,0,51.1,14.5,51.1,32.1c0,18.5,15.5,31.5,34.6,31.5s34.6-12.9,34.6-31.5C120.3,14.5,106.1,0,85.7,0
	z M85.5,57.3c-14.2,0-25.9-11.4-25.9-25.2S70.7,6.3,86,6.3c14.2-0.1,25.9,11.3,26,25.5c0,0.1,0,0.2,0,0.3
	C112,45.9,99.7,57.3,85.5,57.3z">
 </path>
 <polygon class="st0" points="32.8,26.5 38,26.5 47.6,8.6 39.9,8.6 ">
 </polygon>
 <polygon class="st0" points="0,8.6 0,59.3 45.8,59.3 45.8,53.8 7.1,53.8 7.1,8.6 ">
 </polygon>
</svg>