<?xml version="1.0" encoding="UTF-8"?>
<svg id="Layer_1" xmlns="http://www.w3.org/2000/svg" version="1.1" viewBox="0 0 65 48">
  <!-- Generator: Adobe Illustrator 30.3.0, SVG Export Plug-In . SVG Version: 2.1.3 Build 182)  -->
  <defs>
    <style>
      .st0 {
        fill: #fff;
        fill-rule: evenodd;
      }
    </style>
  </defs>
  <path class="st0" d="M33.71,3c1.01.03.9.74.73.98-2.98,4.63-10.01,12.79-15.14,21.74-.85,1.45-1.48,2.52-1.48,4.11,0,2.16,1.35,4.71,4.05,5.8,1.78.71,2.9.73,4.82.76,14.26.44,19.98.06,32.74-.38.74,0,1.42-.5,1.67-.8,2.47-2.57,3.89-7.2,3.89-11.28,0-9.09-6.55-17.27-16.76-21.21l-1.64,2.1c8.95,3.7,13.57,11.09,13.57,19,0,1.78-.3,3.5-.85,5.15-.41,1.15-.9,1.81-2.35,1.83-10.4.22-16.29.39-26.71.11-1.34-.03-1.78-.52-2-1.58-.17-.63-.03-1.16.41-1.95,5.53-9.8,15.16-21,17.06-23.65.36-.49.19-1.48-1.04-1.81-3.61-1.07-7.66-1.5-11.77-1.5C14.33.51,1.21,10.97.91,23.94c.74,15.58,14.29,23.62,32.01,23.62,10.84,0,20.77-3.83,26.58-9.91l-5.37.22c-4.96,4.41-12.9,6.76-21.11,6.76-14.97,0-27.16-7.44-27.16-20.81C5.87,12.34,18.05,2.98,33.02,2.98l.69.03Z"/>
</svg>