<?xml version="1.0" encoding="UTF-8"?>
<svg id="Layer_1" xmlns="http://www.w3.org/2000/svg" version="1.1" viewBox="0 0 115.11 44.24">
  <!-- Generator: Adobe Illustrator 29.8.5, SVG Export Plug-In . SVG Version: 2.1.1 Build 2)  -->
  <defs>
    <style>
      .st0 {
        fill: #fff;
      }
    </style>
  </defs>
  <path class="st0" d="M76.26,22.22s.82-.53.96-.64c3.38-2.69,6.55-5.69,9.91-8.41.19-.13,1.71-.75,1.8-.75h7.99c.05-.17-.21-.26-.21-.32v-6.39c0-.25.39-1.7.53-2.03,1.2-2.8,6.22-2.91,7.74-.5.16.26.67,1.48.67,1.67v7.56h6.07c.08,0,1.25.39,1.44.48,2.06.91,2.08,3.42,1.87,5.39-.08.75-.59,1.56-1.18,2.02-.24.19-1.53.85-1.71.85h-6.5v19.7c0,.07-.31,1.16-.38,1.33-.86,2.08-3.52,2.21-5.47,1.96-1.39-.18-2.54-1.36-2.84-2.7-.05-.22-.26-1.37-.26-1.45v-18.85h-5.43c-.4,0-3.72,3.29-4.49,3.61l-.08.3,7.76,13.33c.95,2.44-.78,5.5-3.41,5.76-2.35.24-3.53-.63-4.76-2.49-2.21-3.34-3.97-7.58-6.25-10.79-.11-.15-.36-.53-.5-.54-.34-.02-2.74,2.32-3.28,2.66-.27,2.55.28,5.57-.04,8.06-.38,2.93-2.93,3.35-5.43,3.11s-3.16-2.41-3.31-4.58c-.72-10.86.57-22.51,0-33.46.2-1.64.37-3.33,1.99-4.19s5.03-.57,6.08,1.04c.12.18.67,1.38.67,1.46v17.78Z"/>
  <path class="st0" d="M48.57,15.83c2.21-2.14,5-3.85,8.21-3.63,12.71.89,7.88,19.56,8.84,27.81-.05,1.88-1.1,3.87-3.11,4.13-3.39.44-5.6-.52-5.86-4.13-.38-5.3.31-11.05,0-16.4-.75-4.57-6.65-4.79-7.82-.39-.37,5.35.34,11.06-.04,16.36-.03.46-.17,1.42-.26,1.87-.55,2.57-2.91,2.89-5.18,2.72-1.61-.13-3.07-1.22-3.28-2.9-.29-2.3-.14-20.05.04-25.71,1-4.39,7.81-4.16,8.47.27Z"/>
  <path class="st0" d="M8.95,35.21h14.59c.06,0,1.02.26,1.18.31,1.1.38,2.04,1.47,2.29,2.61.52,2.36-.04,5.24-2.66,5.98l-20.82.03c-2.08-.45-3.37-2.01-3.53-4.13L.05,4.48C.57,1.24,5.39.71,7.57,2.41c.44.34,1.38,1.77,1.38,2.24v30.56Z"/>
  <path class="st0" d="M32.54,12.68c1.69-.23,3.6.22,4.63,1.66.47.66.76,1.84.76,2.65,0,7.86,0,15.44,0,23.23-.05,1.58-1.2,3.68-2.89,3.93-.66.1-2.53.1-3.18,0-1.65-.24-2.78-1.92-2.89-3.5l.02-24.48c.26-2.04,1.54-3.2,3.55-3.48Z"/>
  <path class="st0" d="M32.11.11c1.3-.22,2.92-.16,4.04.55,3.25,2.06,3.13,6.93-.35,8.68-2.79,1.4-6.37.04-7.21-3.03-.67-2.47.86-5.74,3.52-6.19Z"/>
</svg>