<?xml version="1.0" encoding="UTF-8"?>
<svg id="Layer_1" xmlns="http://www.w3.org/2000/svg" version="1.1" viewBox="0 0 640 113">
  <!-- Generator: Adobe Illustrator 30.3.0, SVG Export Plug-In . SVG Version: 2.1.3 Build 182)  -->
  <defs>
    <style>
      .st0 {
        fill: #fff;
      }
    </style>
  </defs>
  <path class="st0" d="M457.78,113h-65.91l-25.12-54.56-.52,54.56h-31V3.62l55.93.34c15.38.09,27.57,12.92,30.49,26.21,3.35,15.21-3.93,29.69-17.4,36.99l22.21,44.61.26-108.03,31.33.09-.28,109.18h.01ZM379.85,53.16c7.22-.13,11.68-6.54,11.2-12.5-.46-5.75-5.38-10.8-11.76-10.83l-12.87-.04.17,23.61,13.26-.24h0Z"/>
  <path class="st0" d="M158.23,0l1.97.85c12.96,2.64,24.33,9.56,29.71,21.39l.16-18.63,68.97.04.23,25.18-19.1.11-.35,84.06h-32.01l.05-84.08-16.37-.12-.13,7.21-28.75-.03c.28-3.51.07-7.05-1.52-9.34-1.76-2.53-5.65-4.1-8.82-4.42-5.85-.59-10.37,2.44-11.28,7.28-1.02,5.45,1.68,9.88,7.27,11.54,11.36,3.37,22.25,7.09,32.52,13.52,14.62,9.15,18.32,29.94,7.5,43.41-7.59,9.46-19.22,13.02-30.07,15.03l-15.9-.37c-19.57-2.49-34.13-14.56-31.78-35.41l28.86.07c-.43,4.91.02,8.6,2.65,11.34,2.28,2.37,6.42,3.92,10.06,3.81,6.24-.19,10.38-4.47,10.87-9.99,1.14-12.92-17.31-9.89-37.28-22.92-14-9.13-19.94-27.39-10.95-42.06,6.37-10.4,18.08-15.33,29.56-17.11L158.2,0h.03Z"/>
  <polygon class="st0" points="555.81 113 520.23 113 496.31 64.4 495.82 113 466.84 113 466.98 3.69 496.76 3.59 524.84 57.22 524.96 3.58 556.54 3.62 555.81 113"/>
  <polygon class="st0" points="330.78 113 263.23 113 263.54 3.57 330.89 3.6 330.88 28.89 296.4 28.89 296.45 45.12 324.88 45.14 324.89 70.11 296.36 70.14 296.55 87.31 330.78 87.32 330.78 113"/>
  <polygon class="st0" points="632.78 113 564.88 113 565.48 3.58 632.72 3.58 632.75 28.88 598.4 28.9 598.41 45.1 626.8 45.18 626.83 70.12 598.37 70.14 598.51 87.31 632.78 87.32 632.78 113"/>
  <polygon class="st0" points="69.23 113 7.23 113 7.22 4 39.64 3.59 39.65 87.3 69.57 87.34 69.23 113"/>
  <polygon class="st0" points="105.23 113 74.23 112.99 73.91 3.62 105.42 3.6 105.23 113"/>
</svg>