<?xml version="1.0" encoding="UTF-8"?>
<svg id="Layer_1" xmlns="http://www.w3.org/2000/svg" version="1.1" viewBox="0 0 208.1 55.9">
  <!-- Generator: Adobe Illustrator 30.3.0, SVG Export Plug-In . SVG Version: 2.1.3 Build 182)  -->
  <defs>
    <style>
      .st0 {
        fill: #fff;
        fill-rule: evenodd;
      }
    </style>
  </defs>
  <g id="LOGO-white">
    <g id="Group-24">
      <g id="Group-3">
        <path id="Fill-1" class="st0" d="M204.86,51.68h.3c.4,0,.6-.1.6-.4s-.2-.4-.6-.4h-.4v.8h.1ZM204.86,53.18h-.6v-2.8c.3,0,.6-.1,1.1-.1s.8.1.9.2c.2.1.3.3.3.6s-.3.6-.6.7h0c.3.1.4.3.5.7.1.4.2.6.2.7h-.7c-.1-.1-.1-.3-.2-.7,0-.3-.2-.4-.6-.4h-.3v1.1ZM203.16,51.78c0,1.2.9,2.2,2.2,2.2,1.2,0,2.1-1,2.1-2.2s-.9-2.2-2.1-2.2c-1.3,0-2.2,1-2.2,2.2h0ZM208.16,51.78c0,1.6-1.3,2.8-2.8,2.8-1.6,0-2.9-1.2-2.9-2.8s1.3-2.8,2.9-2.8c1.5,0,2.8,1.2,2.8,2.8h0Z"/>
      </g>
      <g id="Group-6">
        <path id="Fill-4" class="st0" d="M187.87,6.25c-.6,3.4-1.8,6.6-4.4,9.4-1.3,1.3-3.1,2.7-4.8,3.2h3.7c6.7,0,10.1-1.1,12.4-3.4,4.1-4.3,4.1-9,5-15.4h-6.2c-1.7-.1-4.7,0-5.7,6.2"/>
      </g>
      <path id="Fill-7" class="st0" d="M127.3,44.1c1.1-4.2,2.5-8.5,4.1-12.5,1.7,3.5,3.1,7.9,4.3,12.5h-8.4ZM137.1,23.9h-9.5c-4,7.2-7.1,18.1-9.8,31.3h7.4c.3-1.9.6-3.9,1-5.9h10.7c.4,2.1.8,4.1,1.2,5.9h9c-2.4-11.4-6.3-24.1-10-31.3h0Z"/>
      <path id="Fill-9" class="st0" d="M162,18.8H34.6v35.9c-.7.4-2.8.6-4.3.6-7,0-9.1-4.9-9.6-5.9L7.7,25.5v29.8H0V13.3c.9-.4,2.8-.6,4.3-.6,5.1,0,6.9,1.3,9.6,6.1l13.1,24.4V13h145.7c0,3.8-6.1,5.8-10.7,5.8"/>
      <g id="Group-13">
        <path id="Fill-11" class="st0" d="M191.63,50.04c-3.2,0-5.1-.3-6.1-1.7-.9-1.3-.9-3.4-.9-5.9h12.1v-5.9h-12.1v-6.7h14v-5.9h-22.3v18.6c0,4.4.7,8.3,2.6,10.2,2.4,2.3,6.5,3.2,12,3.2,2.9,0,5.9-.5,7.9-1.4v-5.5c-2.4.6-4.8,1-7.2,1"/>
      </g>
      <g id="Group-16">
        <path id="Fill-14" class="st0" d="M49.37,48.24c-.9-1.3-.9-3.4-.9-5.9h12.1v-5.9h-12.1v-6.7h14v-5.9h-22.3v18.6c0,4.4.7,8.3,2.6,10.2,2.4,2.3,6.5,3.2,12,3.2,2.9,0,5.9-.5,7.9-1.4v-5.5c-2.3.7-4.7,1-7.1,1-3.3.1-5.2-.2-6.2-1.7"/>
      </g>
      <g id="Group-19">
        <path id="Fill-17" class="st0" d="M73.89,31.45c.4-2.2,2.6-2.3,4.8-2.3,3.3,0,6.1.6,9,1.5v-5.7c-1.3-.9-4.7-1.8-9.4-1.8-3.8,0-7.4.5-10.1,3.1-2.5,2.3-3,10.4-.3,13.3,2,2.1,6.3,3.2,9.7,4.4,1.3.5,4,1.1,3.9,3.4-.2,2.9-2.6,2.8-4.8,2.8-3.3,0-6.6-.7-9.7-1.5v5.5c1.5.9,4.7,1.7,9.8,1.7,3.5,0,7.7-.7,10.1-2.5,3.2-2.5,3.8-10.1.8-13.5-2-2.3-7.3-3.4-10.7-4.9-2-.8-3.6-1.1-3.1-3.5"/>
      </g>
      <path id="Fill-20" class="st0" d="M103.4,48.3c-.9-1.4-1.2-4.3-1.2-8.8s.3-7.3,1.2-8.8c.9-1.3,3.1-1.6,5.4-1.6,2.1,0,4.1.3,6.3,1v-5.6c-1.7-.9-4.4-1.3-6.9-1.3-4.6,0-9.2.7-11.7,3.3-2.4,2.5-3.2,7.7-3.2,13.1s.8,10.6,3.2,13.1c2.5,2.7,7.1,3.3,11.7,3.3,2.3,0,4.7-.3,6.3-1.1l1.3-5.8c-2.3.7-4.3,1-6.9,1-2.5-.1-4.7-.4-5.5-1.8"/>
      <path id="Fill-22" class="st0" d="M150.2,50.7c0,4.6,3.9,5.2,8.3,5.2v-13.5h12.8v-5.9h-12.8v-6.7h14v-5.9h-22.3v26.8Z"/>
    </g>
  </g>
</svg>