<?xml version="1.0" encoding="UTF-8"?>
<svg id="Layer_1" xmlns="http://www.w3.org/2000/svg" version="1.1" viewBox="0 0 450 113.31">
  <!-- Generator: Adobe Illustrator 30.3.0, SVG Export Plug-In . SVG Version: 2.1.3 Build 182)  -->
  <defs>
    <style>
      .st0 {
        fill: #fff;
      }
    </style>
  </defs>
  <polygon class="st0" points="50.92 8.52 82.97 8.52 82.97 113.31 32.51 68.22 32.51 105.42 0 105.42 0 .29 50.92 45.64 50.92 8.52"/>
  <rect class="st0" x="111.49" y="8.52" width="31.85" height="96.9"/>
  <polygon class="st0" points="149.16 8.52 182.46 8.52 204.02 51.24 225.33 8.52 258.5 8.52 204.36 108.83 149.16 8.52"/>
  <polygon class="st0" points="263.89 8.52 326.31 8.52 326.31 33.16 296.32 33.16 296.32 46.15 326.31 46.15 326.31 64.98 296.32 64.98 296.32 79.4 326.31 79.4 326.31 105.42 263.89 105.42 263.89 8.52"/>
  <path class="st0" d="M333.09,105.42L391.68,0l58.32,105.42h-33.43l-5.5-10.95h-39.35l-5.37,10.95h-33.25ZM391.65,54.22l-12.09,23.8h23.45l-11.36-23.8Z"/>
</svg>