<?xml version="1.0" encoding="UTF-8"?>
<svg id="Layer_1" xmlns="http://www.w3.org/2000/svg" version="1.1" viewBox="0 0 450 450">
  <!-- Generator: Adobe Illustrator 30.3.0, SVG Export Plug-In . SVG Version: 2.1.3 Build 182)  -->
  <defs>
    <style>
      .st0, .st1 {
        fill: #fff;
      }

      .st1 {
        fill-rule: evenodd;
      }
    </style>
  </defs>
  <path class="st0" d="M334.24,182.17c9.62,0,18.08,1.95,25.36,5.85,7.29,3.9,12.95,9.24,16.99,16.01l-21.86,8.11c-2.72-3.43-5.96-6.1-9.7-8.02-3.74-1.92-7.82-2.88-12.22-2.88-3.22,0-5.86.53-7.9,1.58s-3.06,2.43-3.06,4.12,1.29,3.01,3.88,3.96c2.59.95,7.74,2.17,15.46,3.65,4.4.91,8.26,1.85,11.58,2.82,3.31.97,6.52,2.18,9.63,3.62,3.11,1.45,5.65,3.06,7.63,4.83,1.97,1.78,3.54,3.9,4.7,6.38,1.16,2.48,1.74,5.24,1.74,8.3,0,8.05-3.6,14.62-10.79,19.7-7.2,5.08-16.88,7.62-29.04,7.62-10.62,0-19.79-2.02-27.51-6.07-7.72-4.05-13.57-9.56-17.57-16.54l21.79-7.87c2.22,3.34,5.47,6.09,9.74,8.24,4.27,2.15,9.19,3.22,14.78,3.22,3.45,0,6.2-.52,8.24-1.55,2.04-1.03,3.06-2.44,3.06-4.21s-1.48-3.25-4.43-4.3c-2.95-1.05-8.78-2.45-17.5-4.18-10.85-2.23-19.02-5.31-24.51-9.26-5.49-3.94-8.24-9.26-8.24-15.95,0-5.2,1.73-9.88,5.17-14.03,3.45-4.15,8.2-7.38,14.27-9.69,6.06-2.31,12.83-3.47,20.32-3.47Z"/>
  <g>
    <path class="st0" d="M88.31,185.07h-50.7v39.09c0,5.08-.21,9.68,0,13.6v30.08h27.49v-16.35c22.69-3.54,53.75-18.85,53.75-38.31h0c0-16.87-13.67-28.1-30.54-28.1ZM88.01,214.84c0,8.69-18.02,14.2-18.02,14.2l-3.97,1.53v-25.04h14.66c4.05,0,7.33,3.28,7.33,7.33,0,0,0,1.99,0,1.99Z"/>
    <path class="st0" d="M259.94,185.07h-50.7v39.09c0,5.08-.21,9.68,0,13.6v30.08h27.49v-16.35c22.69-3.54,53.75-18.85,53.75-38.31h0c0-16.87-13.67-28.1-30.54-28.1ZM259.64,214.84c0,8.69-18.02,14.2-18.02,14.2l-3.97,1.53v-25.04h14.66c4.05,0,7.33,3.28,7.33,7.33v1.99h0Z"/>
    <polygon class="st0" points="153.47 235.19 189.37 235.19 189.37 216.75 153.47 216.75 153.47 204.8 199.45 204.8 199.45 184.17 127.01 184.17 127.01 267.52 200.24 267.52 200.24 246.89 153.47 246.89 153.47 235.19"/>
    <polygon class="st0" points="386.1 190.94 386.1 267.9 413.61 267.9 413.61 182.69 386.1 190.94"/>
  </g>
  <g>
    <path class="st1" d="M413.32,143.88c-27.1-7.34-58.1-11.49-91.05-11.49s-63.68,4.12-90.7,11.39c-4.36,1.17-8.62,2.42-12.77,3.75-.05.03-.11.04-.18.05-26.03,6.94-55.63,10.87-87.02,10.87-34.62,0-67.05-4.77-94.92-13.11C67.16,71.17,140.14,18.93,225.32,18.93c32.23,0,62.71,7.48,89.81,20.81,44.03,21.64,79.12,58.71,98.19,104.14Z"/>
    <path class="st1" d="M36.68,306.12c27.1,7.34,58.1,11.49,91.05,11.49s63.68-4.12,90.7-11.39c4.36-1.17,8.62-2.42,12.77-3.75.05-.03.11-.04.18-.05,26.03-6.94,55.63-10.87,87.02-10.87,34.62,0,67.05,4.77,94.92,13.11-30.48,74.18-103.45,126.42-188.63,126.42-32.23,0-62.71-7.48-89.81-20.81-44.03-21.64-79.12-58.71-98.19-104.14Z"/>
  </g>
  <path class="st0" d="M225,450C100.93,450,0,349.06,0,225S100.93,0,225,0s225,100.93,225,225-100.93,225-225,225ZM225,6.87C104.72,6.87,6.87,104.72,6.87,225s97.85,218.13,218.13,218.13,218.13-97.85,218.13-218.13S345.28,6.87,225,6.87Z"/>
</svg>