<?xml version="1.0" encoding="UTF-8"?>
<svg id="svg2" xmlns="http://www.w3.org/2000/svg" version="1.1" xmlns:cc="http://creativecommons.org/ns#" xmlns:dc="http://purl.org/dc/elements/1.1/" xmlns:inkscape="http://www.inkscape.org/namespaces/inkscape" xmlns:rdf="http://www.w3.org/1999/02/22-rdf-syntax-ns#" xmlns:sodipodi="http://sodipodi.sourceforge.net/DTD/sodipodi-0.dtd" xmlns:svg="http://www.w3.org/2000/svg" viewBox="0 0 125.27 25.53">
  <!-- Generator: Adobe Illustrator 30.3.0, SVG Export Plug-In . SVG Version: 2.1.3 Build 182)  -->
  <defs>
    <style>
      .st0 {
        fill: #fff;
      }
    </style>
  </defs>
  <sodipodi:namedview id="base" bordercolor="#666666" borderopacity="1.0" fit-margin-bottom="0" fit-margin-left="0" fit-margin-right="0" fit-margin-top="0" inkscape:current-layer="layer1" inkscape:cx="62.633686" inkscape:cy="12.7675" inkscape:document-units="px" inkscape:pageopacity="0.0" inkscape:pageshadow="2" inkscape:window-height="706" inkscape:window-maximized="1" inkscape:window-width="1366" inkscape:window-x="-8" inkscape:window-y="-8" inkscape:zoom="7.25051" pagecolor="#ffffff" showgrid="false" showguides="false" units="px"/>
  <g id="layer1" inkscape:groupmode="layer" inkscape:label="Layer 1">
    <g id="g8062">
      <path class="st0" d="M35.02,25.04H9.85L2.21,4.99c2.76,4.7,9.99,5.2,10.77,12.52.04.3.27.54.57.59.29.04.57.09.86.15h.01c.49.1.98.2,1.46.33.47.12.93.25,1.4.4.34.11.69.23,1.03.36.2.07.4.14.6.23.28.11.55.22.82.34.22.1.44.2.66.31.25.11.49.23.74.36.23.12.45.24.67.36.76.43,1.51.89,2.24,1.41.21.15.42.3.63.46.17.12.33.24.49.37.04.04.09.07.13.11h.01s.05.03.08.03.06,0,.08-.04c.05-.04.06-.12,0-.17-2.44-2.57-5.43-4.62-8.78-5.97l-1.01-.41c-.53-.21-.89-.73-.88-1.33.02-.86.85-1.31,1.87-1.61.03-.01.07-.02.1-.03.16-.04.32-.08.48-.12.34-.08.69-.15,1.02-.21.08-.02.17-.03.25-.05.08-.02.16-.03.24-.05.88-.17,1.61-.36,1.79-.72l.09-.18c-1.06-.91-2.33-1.59-3.72-1.98-.01.06-.04.31.24.77.05.09.08.18.08.28,0,.27-.22.54-.57.54-.22,0-.49-.11-.79-.38l-.08-.07C10.56,6.79,6.31,7.46,3.34,5.06c-.12-.1-.24-.21-.36-.32l-.37-.38c-.09-.09-.18-.19-.26-.29l-.11-.13c-.09-.12-.18-.24-.27-.38-.11-.15-.21-.31-.31-.48-.11-.17-.2-.34-.3-.53-.1-.19-.19-.38-.28-.59-.06-.13-.12-.26-.17-.4-.02-.03-.03-.06-.04-.09-.01-.02-.02-.03-.02-.05l-.03-.09h-.01s-.31-.83-.31-.83h4.22c3.8,0,7.45,1.6,10.13,4.28l20.17,20.26Z"/>
      <path class="st0" d="M.91,1.56l1.3,3.43L.87,1.47s.02.06.04.09Z"/>
      <path class="st0" d="M25.29,23.29c-.21-.17-.41-.33-.62-.48.17.12.33.24.49.37.04.04.09.07.13.11Z"/>
      <path class="st0" d="M.82,1.33l.03.09s-.03-.06-.04-.09h.01Z"/>
      <path class="st0" d="M2.21,4.99L.87,1.47s.02.06.04.09l1.3,3.43Z"/>
      <path id="path4993" class="st0" d="M44.16,18.12c1.2-.98,1.83-2.13,1.83-3.55,0-3.16-3.35-5.7-8.28-5.7s-8.27,2.53-8.27,5.83,3.16,5.83,8.13,5.83h6.66c1.17,0,1.72-.46,2.16-1.21l.7-1.2h-2.93ZM37.71,17.89c-2.71,0-5-1.35-5-3.19s2.29-3.19,5-3.19,5.01,1.35,5.01,3.19-2.29,3.19-5.01,3.19Z" inkscape:connector-curvature="0"/>
      <path id="path4997" class="st0" d="M58.31,11.13c-.43-.75-1.04-1.32-2.27-1.32h-1.22c-1.23,0-1.84.57-2.27,1.32l-5.43,9.4h3.24l1.12-1.97h7.83l1.11,1.97h3.32l-5.43-9.4ZM52.81,16.2l2.4-4.27c.05-.1.1-.13.18-.13.09,0,.13.03.19.13l2.4,4.27h-5.17Z" inkscape:connector-curvature="0"/>
      <path id="path5001" class="st0" d="M79.2,9.81v10.72h-2.9l-8.52-7.1v7.1h-2.9v-10.72h1.82c.93,0,1.4.24,1.93.7l7.68,6.39v-7.09h2.9Z" inkscape:connector-curvature="0"/>
      <path id="path5005" class="st0" d="M89.52,12.23v8.3h-2.9v-8.3h-5.95v-2.42h14.79v2.42h-5.95Z" inkscape:connector-curvature="0"/>
      <path id="path5009" class="st0" d="M104.13,11.13c-.43-.75-1.04-1.32-2.27-1.32h-1.22c-1.23,0-1.84.57-2.27,1.32l-5.43,9.4h3.24l1.12-1.97h7.83l1.11,1.97h3.32l-5.43-9.4ZM98.63,16.2l2.4-4.27c.05-.1.1-.13.18-.13.09,0,.13.03.19.13l2.4,4.27h-5.17Z" inkscape:connector-curvature="0"/>
      <path id="path5013" class="st0" d="M110.56,19.76l-.27-.09.73-2.33c2.09.67,4.32.94,6.33.94,3.3,0,4.12-.39,4.12-.8,0-.17-.11-.3-.37-.39-.33-.11-1.24-.3-3.95-.74-2.99-.49-4.33-.73-5.32-1.19-.99-.46-1.59-1.19-1.59-2.26,0-.82.4-1.47,1.04-1.99,1.14-.89,3.1-1.24,5.23-1.24,2.74,0,5.05.23,7.6.86l.23.07-.61,2.27c-2.86-.61-4.45-.79-6.62-.82-1.53-.01-2.59.1-3.14.27-.32.1-.44.24-.44.42,0,.16.1.3.42.4.34.11.9.24,3.83.71,3.17.52,4.22.73,5.09,1.07,1.19.46,1.9,1.3,1.9,2.36,0,1.33-1.03,2.32-2.82,2.86-1.1.33-2.57.52-4.23.52-2.6,0-5.38-.34-7.16-.92h0Z" inkscape:connector-curvature="0"/>
    </g>
  </g>
</svg>