<?xml version="1.0" encoding="UTF-8"?>
<svg id="Layer_1" xmlns="http://www.w3.org/2000/svg" version="1.1" viewBox="0 0 798.36 402.79">
  <!-- Generator: Adobe Illustrator 30.3.0, SVG Export Plug-In . SVG Version: 2.1.3 Build 182)  -->
  <defs>
    <style>
      .st0 {
        fill: #fff;
      }
    </style>
  </defs>
  <path class="st0" d="M97.28,322.29l-46.43-.36-.54,22.88-.28,42.46c-.03,4.8-2.44,10.78-8.24,10.8l-32.04.09c-4.68.01-9.67-4.02-9.67-9.57L0,205.4c0-5.56,4.6-10.08,10-10.06l103.02.32c37.11.11,62.7,31.55,57.07,67.68-2.54,16.29-9.76,30.32-25.37,38.81,14.24,7.57,19.96,21.14,22.43,35.87.78,9.17.84,17.65,2.65,28.1l62.9-165.92c1.13-2.97,6.36-4.89,9.11-4.89h34.94c5.11.01,8.21,3.69,9.92,8.25l56.94,151.74.24-149.06c-.54-5.5,3.45-10.81,9.28-10.83l50.62-.18c4.18.77,7.73,2.85,9.16,7.03l41.34,120.8,39.49-121.78c1.14-3.53,5.08-5.28,8.29-6l50.75.06c5.24,0,9.92,4.55,9.92,9.99v124.16c3.4-1.69,6.78-3.26,9.99-3.24l27.93.2c13.82.1,3.69,24.24,28.37,32.8,17.3,6,46.62,4.59,53.51-9.15,2.77-5.52,3.33-12.24-.57-17.09-16.18-20.12-78.8-16.01-103.05-45.95-19.76-24.39-13.61-60.96,11.28-79.57,15.38-11.51,33.45-16.24,52.73-16.48,31-.4,62.57,8.51,77.34,36.78,2.48,4.74,1.66,10.69-3.3,13.56-8.43,4.88-17.31,8.97-26.52,12.36-9.84,3.63-12.41-11.13-23.86-17.24-17.04-9.1-45.04-7.04-49.65,8.41-1.45,4.86-1.24,11.13,2.78,14.54,3.28,2.78,8.39,5.12,12.72,6.28l51.37,13.74c17.78,4.75,35.29,15.11,43.41,32.04,16.58,34.57-2.49,73.28-38.49,84.89-27.55,8.89-57.8,8.78-84.94-1.9-20.05-7.89-33.46-22.89-40.77-43.12l-.46,36.71c-.05,3.77-3.57,9.81-7.77,9.86l-28.88.34c-6.84.08-10.94-4.4-10.96-11.13l-.35-109.72-39.37,112.01c-1.65,4.68-3.8,8.73-9.49,8.7l-26.76-.13c-3.43-.02-6.37-4.5-7.43-7.49l-39.55-111.76-.68,51.02-.49,60.37c-.04,5.16-5.33,8.06-9.89,8.05l-67.96-.09c-4.4,0-6.93-4.28-8.13-7.76l-12.41-36.09-68.47.1-12.3,34.8c-1.1,3.11-3.43,8.89-7.95,8.89l-70.82.11c-20.25.03.55-75.58-35.56-75.86ZM120.35,259.83c.68-13.61-6.78-22.37-19.91-23.6l-49.71-.18-.04,48.16,48.72-.11c6.3-1.11,12.39-2.9,16.05-6.99,4.13-4.62,4.58-10.92,4.9-17.27ZM278.5,315.21l-19.89-57.8-20.76,57.94,40.66-.14Z"/>
  <path class="st0" d="M615.31,101.72l-18.04-8.17c17.99-26.69,57.62-28.15,82.17-10.12,8.65,6.35,14.45,15.1,16.21,25.38l-12.3,12.97c-4.69,4.94,1.42,11.99,6.87,15.68-7.33,13.52-19.47,22.88-33.82,28.41-34.72,13.39-74.63,6-102.28-18.78-18.96-16.99-27.9-41.76-21.68-66.44,11.2-44.51,52.42-72.65,97.24-78.72,26.07-3.53,52.92-2.39,78.36,5.11,34.29,25.24,36.98,79.53,19.98,116.89,2.33-24.87-6.72-45.66-26.49-59.81-31.03-22.21-74.48-22.39-105.73-.19-11.91,8.46-18.93,20.93-20.04,35.17-1.25,15.92,6.68,30.16,20.75,37.56,16.03,8.43,35.57,9.35,51.83,1.25,11.88-5.92,20.48-20.57,13.41-32.72-9.5-16.32-32.98-17.15-46.46-3.46Z"/>
  <path class="st0" d="M736.73,228.52c-8.42-21.48-24.98-36.88-47.44-45.02,21.36-15.89,35.97-36.8,46.93-61.05,7.1-15.73,8.95-32.84,8.89-50.23-.07-22.09-6.79-42.46-21.61-59.32,58.32,26.29,88.43,81.93,68.95,144.15-10.69,28.41-29.76,52.77-55.72,71.47Z"/>
  <polygon class="st0" points="717.05 126.42 701.93 140.98 686.7 126.07 701.81 110.98 717.05 126.42"/>
</svg>