<?xml version="1.0" encoding="UTF-8"?>
<svg id="Art" xmlns="http://www.w3.org/2000/svg" version="1.1" viewBox="0 0 518.44 112.52">
  <!-- Generator: Adobe Illustrator 30.3.0, SVG Export Plug-In . SVG Version: 2.1.3 Build 182)  -->
  <defs>
    <style>
      .st0 {
        fill: #fff;
      }
    </style>
  </defs>
  <path class="st0" d="M517.41,66.02c-4.65,15.94-14.61,22.58-28.83,22.58-19.26,0-31.35-14.61-31.35-35.07s12.49-35.6,31.35-35.6c20.86,0,30.95,19.26,29.76,39.72h-44.5c.4,11.69,5.84,17.14,15.01,17.14,5.05,0,9.17-2.52,11.69-5.45,1.73-2.13,4.12-3.32,6.64-3.32h10.23ZM501.87,46.36c-1.73-9.17-5.05-14.21-13.42-14.21-10.89,0-13.82,9.17-13.82,14.21h27.23Z"/>
  <path class="st0" d="M437.84,25.11c2.92-4.12,6.64-7.17,10.49-7.17v64.83c0,10.89-3.72,29.76-31.75,29.76-12.09,0-26.3-6.24-27.23-21.79h11.29c2.92,0,5.84,1.73,7.17,4.12,2.52,3.72,6.24,5.05,10.89,5.05,9.17,0,13.82-7.17,13.42-16.74v-8.77h-.4c-3.72,7.17-10.89,10.49-18.46,10.49-18.46,0-26.3-15.01-26.3-33.48,0-20.46,12.09-33.48,30.55-33.48,8.24,0,14.88,2.52,20.32,7.17M432.4,52.74c0-10.89-3.32-20.46-14.21-20.46-9.56,0-13.82,9.17-13.82,19.26,0,9.56,3.32,20.06,13.82,20.06,9.3-.53,14.21-9.3,14.21-18.86"/>
  <path class="st0" d="M300.22,74.79c11.29,0,15.01-10.89,15.01-21.39s-3.32-21.79-15.01-21.79-14.61,10.89-14.61,21.79c-.4,10.63,2.92,21.39,14.61,21.39M300.22,17.93c19.26,0,31.75,14.21,31.75,35.6s-12.49,35.07-31.75,35.07-31.75-14.21-31.75-35.07,12.62-35.6,31.75-35.6"/>
  <path class="st0" d="M258.91,66.02c-4.65,15.94-14.61,22.58-28.83,22.58-19.26,0-31.35-14.61-31.35-35.07s12.49-35.6,31.35-35.6c20.86,0,30.95,19.26,29.76,39.72h-43.97c.4,11.69,5.84,17.14,15.01,17.14,5.05,0,9.17-2.52,11.69-5.45,1.73-2.13,4.12-3.32,6.64-3.32h9.7ZM242.97,46.36c-1.73-9.17-5.05-14.21-13.42-14.21-10.89,0-13.82,9.17-13.82,14.21h27.23Z"/>
  <path class="st0" d="M45.56,39.32c-3.32,0-5.84-1.73-7.57-4.65-2.13-3.72-5.84-4.65-10.49-4.65-3.72,0-9.17.8-9.17,6.24,0,6.64,9.56,7.57,19.26,10.1,10.1,2.52,19.26,6.24,19.26,18.86,0,17.53-13.82,23.38-28.03,23.38S.8,82.76,0,65.22h15.94c0,7.97,6.24,11.29,13.02,11.29,5.05,0,10.89-2.13,10.89-8.37,0-5.45-7.17-7.57-19.26-10.49C11.03,55.13.93,51.41.93,39.72c0-17.14,13.42-21.79,26.83-21.79s25.9,5.05,27.23,21.39h-9.43Z"/>
  <path class="st0" d="M88.21,20.06h12.09v3.72c0,4.65-3.72,8.37-8.37,8.37h-3.72v33.08c0,6.24,1.2,7.97,7.17,7.97,1.73,0,3.32,0,5.05-.4v14.21c-2.92.4-6.64.8-10.1.8-10.49,0-19.26-2.52-19.26-15.94v-39.72h-10.1v-3.72c0-4.65,3.72-8.37,8.37-8.37h1.73V0h8.37c4.65,0,8.37,3.72,8.37,8.37v11.69h.4Z"/>
  <path class="st0" d="M179.87,25.11c2.92-4.12,6.64-7.17,10.49-7.17v64.83c0,10.89-3.32,29.76-31.75,29.76-12.09,0-26.3-6.24-27.23-21.79h11.29c2.92,0,5.84,1.73,7.17,4.12,2.52,3.72,6.24,5.05,10.89,5.05,9.17,0,13.82-7.17,13.42-16.74v-8.77h-.4c-3.72,7.17-10.89,10.49-18.46,10.49-18.46,0-26.3-15.01-26.3-33.48,0-20.46,12.09-33.48,30.55-33.48,8.1,0,14.88,2.52,20.32,7.17M174.42,52.74c0-10.89-3.32-20.46-14.21-20.46-9.56-.4-13.82,8.77-13.82,18.86,0,9.56,3.32,20.06,13.82,20.06,9.17-.13,14.21-8.9,14.21-18.46"/>
  <path class="st0" d="M126.73,79.44c0,5.05-4.12,9.17-9.17,9.17s-9.17-4.12-9.17-9.17,4.12-9.17,9.17-9.17c4.92,0,9.17,4.12,9.17,9.17"/>
  <path class="st0" d="M357.61,55.13v31.75h-16.74V17.8s5.84-.8,11.69,8.37c2.92-3.32,10.1-8.37,19.66-8.37,11.29,0,17.53,5.45,17.53,5.45,0,0-2.52,3.32-4.12,7.57-2.13,3.72-3.32,7.97-3.32,7.97,0,0-4.12-3.72-9.17-3.72-5.98,0-15.54,4.65-15.54,20.06Z"/>
</svg>