<?xml version="1.0" encoding="UTF-8"?>
<svg id="Layer_1" xmlns="http://www.w3.org/2000/svg" version="1.1" viewBox="0 0 306.5 61.1">
  <!-- Generator: Adobe Illustrator 29.8.5, SVG Export Plug-In . SVG Version: 2.1.1 Build 2)  -->
  <defs>
    <style>
      .st0 {
        fill: #fff;
      }
    </style>
  </defs>
  <path class="st0" d="M38.8,54.5c7-1.4,11.3-6,11.3-13.5,0-9-5.8-11.6-16.3-16.6-5-2.4-6.2-3-6.2-4.5,0-1,.8-2,2.3-2l17.7.3V6.5s-10.8-.2-14.6-.2c-1.9,0-4.7,0-6.3.2-7.7,1-12.9,6.1-12.9,13.3,0,9.4,6.7,12.3,15.2,16.3,5.3,2.5,7.2,3.2,7.2,5.1,0,1.1-.8,2.1-2.5,2.1l-18.8-.1v-6.4L0,48.9l14.8,12.2v-6.4l16.8.1c2.1.1,5.3,0,7.2-.3M117.9,44.2h-7.3v-9.2h7.3c2.7,0,4,1.7,4,4.6,0,2.7-1.3,4.6-4,4.6M120.8,21.3c0,2.5-1.1,4.4-3.6,4.4h-6.6v-8.7h6.6c2.4,0,3.6,1.7,3.6,4.3M120.3,55c9.6,0,16-5.2,16-14.8,0-5.1-2.5-8.6-6.7-10.9,3.6-2.4,5.4-5.7,5.4-9.6,0-7.5-5.3-13.3-15.5-13.3h-23v48.6h23.8ZM72.3,56c-13.3,0-19.6-7.2-19.6-14.9V6.4h14.2v33.6c0,2.2,1.8,3.9,5.4,3.9s5.4-1.8,5.4-3.9V6.4h14.3v34.7c0,7.7-7.1,14.9-19.7,14.9"/>
  <path class="st0" d="M281.1,52c.2,0,.3.1.3.2s-.1.2-.3.2h-.4v-.4h.4ZM280,51.4v2.4h.7v-.8h0l.6.8h.8l-.7-.8c.4-.1.7-.4.7-.7,0-.5-.3-.8-1-.8h-1.1v-.1ZM281,54.6c-1.1,0-2-.9-2-1.9,0-1.1.9-2,2-2,1,0,1.9.9,1.9,2,.1,1-.8,1.9-1.9,1.9M281,50c-1.5,0-2.7,1.2-2.7,2.6s1.2,2.6,2.7,2.6,2.7-1.2,2.7-2.6-1.2-2.6-2.7-2.6M227.5,29.8h-10.7v-8.7c0-2.3,1.6-4,5.4-4s5.4,1.7,5.4,4l-.1,8.7ZM216.8,55v-14.1h10.7v14.1h14.2V20.3c0-8.8-7.3-15.3-19.5-15.3s-19.5,6.6-19.5,15.3v34.7h14.1ZM180.7,55.8c11.9,0,17.5-7.2,17.5-15.1V6.4h-14.2v33.9c0,1.5-.8,3.1-4,3.1s-4-1.7-4-3.1V6.4h-14.2v33.9c0,1.5-.8,3.1-4.1,3.1s-4-1.7-4-3.1V6.4h-14.2v34.3c0,7.9,5.2,15.1,17.9,15.1,4.8,0,8.6-1.5,11.4-3.8,2.9,2.3,6.8,3.8,11.9,3.8M259.3,25.5c0,1.8,1.2,4,5.5,4s5.5-2.1,5.5-4v-7.7c0-6.9,3.5-11.7,11.8-11.7h9.8V0l14.8,12.2-14.8,12.2v-6.1h-6.3c-.8,0-1.2.4-1.2,1.1v7.5c0,6.8-4.4,11.9-12.3,14v14h-14.4v-14c-7.8-2.1-12.4-7.3-12.4-14V6.4h14.1l-.1,19.1h0Z"/>
</svg>