<?xml version="1.0" encoding="UTF-8"?>
<svg id="Layer_1" xmlns="http://www.w3.org/2000/svg" version="1.1" xmlns:xlink="http://www.w3.org/1999/xlink" viewBox="0 0 353.2 101.8">
  <!-- Generator: Adobe Illustrator 29.8.5, SVG Export Plug-In . SVG Version: 2.1.1 Build 2)  -->
  <defs>
    <style>
      .st0 {
        fill: #fff;
      }

      .st1 {
        fill: url(#radial-gradient);
      }
    </style>
    <radialGradient id="radial-gradient" cx="-1001.13" cy="204.98" fx="-1001.13" fy="204.98" r="1.42" gradientTransform="translate(36187.05 -7296.39) scale(35.84)" gradientUnits="userSpaceOnUse">
      <stop offset="0" stop-color="#fff"/>
      <stop offset=".5" stop-color="#fff"/>
      <stop offset=".65" stop-color="#fff" stop-opacity=".5"/>
      <stop offset=".8" stop-color="#fff" stop-opacity=".2"/>
      <stop offset=".9" stop-color="#fff" stop-opacity=".08"/>
      <stop offset="1" stop-color="#fff" stop-opacity="0"/>
    </radialGradient>
  </defs>
  <path id="Shape" class="st0" d="M1,42.2c0,5.9,3.5,8.5,10.7,10.1l5.5,1.2c6.5,1.5,7.8,3,7.8,6.1,0,3.8-3.3,6.2-9.3,6.2-6.3,0-9.5-2.7-9.9-8.2H0C0,66.1,6.1,71,15.6,71c10.4,0,15.5-5.3,15.5-12.1,0-6.1-3.6-9.1-9.8-10.4l-5.8-1.3c-6.6-1.5-8.5-2.3-8.5-5.7s2.5-5.9,8.1-5.9c6.6,0,8.6,3,9.1,7.1h5.8c0-8.3-6.5-12.4-14.7-12.4-9.7-.1-14.3,5.4-14.3,11.9h0ZM33.6,31.2v23c0,11.8,5.6,16.6,15.3,16.6s15.3-4.9,15.3-16.6v-23h-6.3v23.8c0,7.6-3.2,10.5-9.3,10.5-5.4,0-8.7-3.1-8.7-10.5v-23.8h-6.3ZM68.5,31.2v38.6h5.8v-30l18.5,30h6.6V31.2h-5.8v29.8l-18.1-29.8h-7ZM136.6,43.2c-.7-7.7-6.9-12.9-16-12.9-11.2,0-18,8.1-18,20,0,13.8,7.6,20.5,17.5,20.5s15.9-6.8,16.7-14.8h-6.1c-1.2,6.1-4.6,9.4-10.3,9.4-6.4,0-11.6-4.3-11.6-14.4,0-10.6,4.8-15.4,11.6-15.4,5.9,0,8.9,2.8,10.1,7.6h6.1ZM139.3,50.6c0,13.2,7.6,20.3,18.6,20.3,11.7,0,18.8-8.3,18.8-20.9,0-13.9-8.1-19.9-18.7-19.9-10.7,0-18.7,7.2-18.7,20.5h0ZM145.6,50.9c0-9.9,5.1-15.3,12.6-15.3,6.8,0,12.3,4.9,12.3,14.6,0,10.3-5,15.4-12.1,15.4-7.9-.1-12.8-5-12.8-14.7h0ZM186,36.5h11.6c4.6,0,6.9,1.8,6.9,6.1s-2.3,6.2-7.5,6.2h-11.1l.1-12.3h0ZM179.9,31.2v38.6h6.1v-16.1h10.7c5.1,0,6.9,1.5,7,5.9l.3,5.4c.1,2.3.3,3.6.7,4.7h6.6c-.8-1.5-1.2-3.2-1.3-6.6l-.1-4.3c-.1-4.5-1.2-6.4-4.8-7.9,3.5-1.6,5.6-4.7,5.6-9.2,0-6.4-3.9-10.6-12.7-10.6h-18.1v.1ZM214.4,31.2v38.6h6.2v-15.5h10.8c8,0,12.1-4.5,12.1-11.6,0-7.5-4.6-11.4-11.9-11.4h-17.2v-.1ZM220.6,36.5h9.4c5,0,7.3,2.1,7.3,6.3s-2.3,6.4-7.3,6.4h-9.4v-12.7h0Z"/>
  <path id="Shape1" data-name="Shape" class="st1" d="M302.3,0c-28.1,0-50.9,22.8-50.9,50.9s22.8,50.9,50.9,50.9,50.9-22.8,50.9-50.9S330.4,0,302.3,0ZM302.3,76.4c-14.1,0-25.5-11.4-25.5-25.5s11.4-25.5,25.5-25.5,25.5,11.4,25.5,25.5c-.1,14.1-11.5,25.5-25.5,25.5Z"/>
</svg>