<svg version="1.1" id="Layer_1" xmlns:x="ns_extend;" xmlns:i="ns_ai;" xmlns:graph="ns_graphs;" xmlns="http://www.w3.org/2000/svg" xmlns:xlink="http://www.w3.org/1999/xlink" x="0px" y="0px" viewBox="0 0 227.1 65" style="enable-background:new 0 0 227.1 65;" xml:space="preserve">
 <style type="text/css">
  .st0{fill:#F5F5F5;}
 </style>
 <metadata>
  <sfw xmlns="ns_sfw;">
   <slices>
   </slices>
   <sliceSourceBounds bottomLeftOrigin="true" height="65" width="227.1" x="-64.4" y="0.7">
   </sliceSourceBounds>
  </sfw>
 </metadata>
 <g>
  <path class="st0" d="M57.3,37.5c1.9,1.6,3.9,2,5.3,2c2,0,3.2-0.9,3.2-2.2c0-3.8-9.9-1.5-9.9-8.3c0-3.5,2.6-6,6.5-6
		c1.6,0,4.3,0.4,6.4,2.2l-2,2.8c-1.7-1.2-3.4-1.5-4.4-1.5c-1.9,0-2.8,1-2.8,2c0,3.6,9.8,1.6,9.8,8.5c0,3.6-2.8,5.9-7,5.9
		c-2.8,0-5.3-1-7.3-2.5L57.3,37.5z">
  </path>
  <path class="st0" d="M85.8,23.4h3.8v11.3c0,6-3.3,8.2-8.6,8.2c-5.3,0-8.6-2.3-8.6-8.2V23.4h3.9v10.2c0,3.6,0.8,5.7,4.8,5.7
		c3.9,0,4.8-2.2,4.8-5.7V23.4z">
  </path>
  <path class="st0" d="M104.2,39.3c3.6,0,6.3-2.8,6.3-6.3c0-3.5-2.7-6.3-6.3-6.3c-3.6,0-6.3,2.8-6.3,6.3
		C97.9,36.4,100.5,39.3,104.2,39.3z M94,50.9V23.4h3.8v2.5c1.6-1.9,3.8-2.8,6.4-2.8c5.5,0,10.1,4.3,10.1,9.9c0,5.5-4.4,9.9-10.1,9.9
		c-2.6,0-4.8-0.9-6.4-2.8v10.8H94z">
  </path>
  <path class="st0" d="M131.8,31.2c-0.4-2.6-2.8-4.7-5.8-4.7c-3,0-5.2,2-5.8,4.7H131.8z M120.1,34.2c0.5,2.9,2.9,5.2,6.1,5.2
		c2.1,0,4.1-0.9,5.3-2.6l2.7,2.1c-1.7,2.5-4.8,4-8,4c-5.5,0-9.9-4.3-9.9-9.9c0-5.3,4.1-9.9,9.7-9.9c5.6,0,9.7,4.6,9.7,9.9
		c0,0.5,0,0.9-0.1,1.3H120.1z">
  </path>
  <path class="st0" d="M138.8,42.4v-19h3.8v2.3c1.8-2.2,3.7-2.6,7.4-2.6v3.7c-6.3,0-7.4,2.6-7.4,5.8v9.8H138.8z">
  </path>
  <path class="st0" d="M159.9,42.6c-0.6,0.1-1.3,0.3-2.1,0.3c-3.1,0-5-1.9-5-5.4V14.7h3.8v21.6c0,2,0.5,2.9,2.3,2.9c0.2,0,0.6,0,1,0
		V42.6z">
  </path>
  <path class="st0" d="M171.3,26.7c-3.6,0-6.2,3-6.2,6.4c0,3.4,2.7,6.3,6.2,6.3c3.5,0,6.2-2.9,6.2-6.4
		C177.5,29.5,174.8,26.7,171.3,26.7z M171.3,42.9c-5.5,0-9.9-4.4-9.9-9.9c0-5.4,4.4-9.9,9.9-9.9c5.5,0,10.1,4.5,10.1,9.9
		C181.3,38.4,176.8,42.9,171.3,42.9z">
  </path>
  <path class="st0" d="M193.4,26.7c-3.6,0-6.2,3-6.2,6.4c0,3.4,2.7,6.3,6.2,6.3c3.5,0,6.2-2.9,6.2-6.4
		C199.6,29.5,196.9,26.7,193.4,26.7z M193.4,42.9c-5.5,0-9.9-4.4-9.9-9.9c0-5.4,4.4-9.9,9.9-9.9c5.5,0,10.1,4.5,10.1,9.9
		C203.4,38.4,198.9,42.9,193.4,42.9z">
  </path>
  <path class="st0" d="M217,39.3c3.6,0,6.3-2.8,6.3-6.3c0-3.5-2.7-6.3-6.3-6.3c-3.6,0-6.3,2.8-6.3,6.3
		C210.8,36.4,213.3,39.3,217,39.3L217,39.3z M206.9,50.9V23.4h3.8v2.5c1.6-1.9,3.8-2.8,6.4-2.8c5.5,0,10.1,4.3,10.1,9.9
		c0,5.5-4.4,9.9-10.1,9.9c-2.6,0-4.8-0.9-6.4-2.8v10.8H206.9z">
  </path>
  <path class="st0" d="M24.6,19.9c1.7-1.7,3.9-2.6,6.3-2.6c2.3,0,4.5,0.9,6.2,2.5L49.4,7.6C44.3,2.5,37.6,0,30.9,0
		c-6.7,0-13.5,2.6-18.6,7.7C2.2,17.9,2.1,34.5,12.2,44.7l12.2-12.2c-1.6-1.7-2.5-3.9-2.5-6.2C22,23.9,22.9,21.6,24.6,19.9z">
  </path>
  <path class="st0" d="M0,57.4c10.3,10.2,26.9,10.1,37.1-0.1s10.2-26.8,0.1-37.1L24.9,32.5c3.4,3.5,3.4,9.1-0.1,12.6
		c-3.5,3.5-9,3.5-12.6,0.1L0,57.4z">
  </path>
 </g>
</svg>