<?xml version="1.0" encoding="UTF-8"?>
<svg id="Layer_1" xmlns="http://www.w3.org/2000/svg" version="1.1" viewBox="0 0 61 40">
  <!-- Generator: Adobe Illustrator 30.3.0, SVG Export Plug-In . SVG Version: 2.1.3 Build 182)  -->
  <defs>
    <style>
      .st0 {
        fill: #fff;
      }
    </style>
  </defs>
  <path class="st0" d="M30.29.27C13.72.27.28,8.96.28,19.68s13.44,19.42,30.01,19.42,30.01-8.69,30.01-19.42S46.86.27,30.29.27ZM30.29,30.77c-2.46,0-4.48-4.85-4.6-10.96,1.48.13,3.02.2,4.6.2s3.12-.07,4.6-.2c-.13,6.1-2.14,10.96-4.6,10.96ZM25.99,14.95c.67-4.32,2.34-7.38,4.3-7.38s3.63,3.06,4.3,7.38c-1.38.12-2.81.19-4.3.19s-2.92-.07-4.3-.19ZM30.29,3.08c-3.22,0-5.96,4.82-6.98,11.55-6.1-.95-10.36-3.12-10.36-5.64,0-3.4,7.76-6.16,17.34-6.16s17.34,2.76,17.34,6.16c0,2.52-4.26,4.69-10.36,5.64-1.01-6.73-3.76-11.55-6.98-11.55ZM4.58,18.96c0-3.29,1.27-6.38,3.47-9.03-.02.19-.04.37-.04.56,0,4.14,6.22,7.68,14.89,8.98,0,.3,0,.6,0,.91,0,7.73,2.17,14.27,5.16,16.49-13.15-.79-23.47-8.51-23.47-17.91ZM32.52,36.87c2.99-2.22,5.16-8.76,5.16-16.49,0-.31,0-.61,0-.91,8.67-1.3,14.89-4.83,14.89-8.98,0-.19-.02-.38-.04-.56,2.2,2.66,3.47,5.74,3.47,9.03,0,9.4-10.32,17.12-23.47,17.91Z"/>
</svg>