<?xml version="1.0" encoding="UTF-8"?>
<svg id="Layer_1" xmlns="http://www.w3.org/2000/svg" version="1.1" viewBox="0 0 400.27 226.77">
  <!-- Generator: Adobe Illustrator 30.3.0, SVG Export Plug-In . SVG Version: 2.1.3 Build 182)  -->
  <defs>
    <style>
      .st0 {
        fill: #fff;
      }
    </style>
  </defs>
  <path class="st0" d="M241.88,123.63c15.36,0,27.7-11.53,27.7-26.74s-12.33-26.74-27.7-26.74-27.7,11.53-27.7,26.74,12.33,26.74,27.7,26.74ZM241.88,84.07c7.1,0,12.95,5.8,12.95,12.82s-5.86,12.82-12.95,12.82-12.96-5.8-12.96-12.82,5.86-12.82,12.96-12.82Z"/>
  <path class="st0" d="M310.62,105.28c4.97-3.41,8.89-8.46,8.89-15.35,0-10.71-8.62-18.62-19.5-18.62h-23.5v51.16h14.06v-13.92h6.62l6.41,13.92h15.78l-8.75-17.19ZM300.01,95.94h-9.44v-12.07h9.44c3.17,0,5.24,3.55,5.24,6.07s-2.07,6-5.24,6Z"/>
  <rect class="st0" x="328.04" y="71.32" width="14.05" height="51.16"/>
  <path class="st0" d="M371.31,71.31l-23.7,51.16h15.07l2.47-5.8h17.58l2.47,5.8h15.07l-23.7-51.16h-5.27ZM369.43,104.53l4.36-9.96h.29l4.36,9.96h-9.01Z"/>
  <path class="st0" d="M182.96,122.47h14.06v-38.61h14.12v-12.55h-34.02L210.17,0H0l33.26,71.78h15.51l12.72,27.46,12.72-27.46h15.54l-23.28,50.24h-9.93l48.54,104.75,49.66-107.17c-3.85,2.23-8.32,3.51-13.09,3.51-15.01,0-26.93-11.32-26.93-26.26s11.92-26.26,26.93-26.26c9.58,0,17.95,5.16,22.51,12.8l-11.72,7.03c-2.21-3.61-6.23-6.16-10.79-6.16-6.97,0-12.59,5.7-12.59,12.6s5.63,12.6,12.59,12.6c4.55,0,8.57-2.48,10.79-6.16l7.72,4.63,11.15-24.05h11.66v38.61ZM108.33,122.02h-14.35v-50.24h14.35v50.24Z"/>
  <path class="st0" d="M191.29,164.7c-3.29,0-6.3-1.28-8.15-2.76l-2.65,4.11c2.74,2.21,6.91,3.34,10.78,3.34,5.5,0,10.47-2.69,10.47-8.33,0-4.46-3.58-6.41-8.15-7.16l-1.44-.24c-3.07-.51-5.28-1.08-5.28-2.96s2.03-3.07,4.9-3.07,5.25.93,7.26,2.17l2.41-4.17c-3.22-1.92-6.2-2.73-9.78-2.73-5.45,0-10.2,2.78-10.2,8.11,0,4.62,3.29,6.62,7.8,7.33l1.63.26c3.56.57,5.43,1.22,5.43,3,0,1.97-2.19,3.09-5.03,3.09Z"/>
  <path class="st0" d="M219.07,167.54l-1.76-3.73c-.97.59-2.19,1.15-3.33,1.15-1.48,0-2.65-.81-2.65-3.01v-6.47h6.41v-4.24h-6.41v-5.27h-4.77v5.27h-3.42v4.24h3.42v6.85c0,4.59,2.25,7.07,6.63,7.07,2.52,0,4.31-.81,5.87-1.87Z"/>
  <path class="st0" d="M238.44,168.95v-17.71h-4.66v1.95c-1.17-1.44-2.87-2.43-5.3-2.43-4.88,0-8.57,4-8.57,9.32s3.69,9.32,8.57,9.32c2.43,0,4.15-.98,5.3-2.41v1.96h4.66ZM229.35,164.96c-2.8,0-4.57-2.17-4.57-4.88s1.77-4.88,4.57-4.88,4.57,2.08,4.57,4.88-1.85,4.88-4.57,4.88Z"/>
  <path class="st0" d="M251.01,169.4c2.53,0,4.31-.81,5.87-1.87l-1.76-3.73c-.97.59-2.19,1.15-3.33,1.15-1.48,0-2.65-.81-2.65-3.01v-6.47h6.41v-4.24h-6.41v-5.27h-4.77v5.27h-3.42v4.24h3.42v6.85c0,4.59,2.25,7.07,6.63,7.07Z"/>
  <path class="st0" d="M271.66,163.64c-1.28,1.08-2.94,1.7-4.48,1.7-2.25,0-4.04-1.11-4.55-3.67h12.56c.05-.4.09-1.06.09-1.61-.02-5.52-3.51-9.3-8.61-9.3s-8.96,3.8-8.96,9.37,3.77,9.27,9.2,9.27c2.98,0,5.54-.84,7.54-2.69l-2.79-3.07ZM266.63,154.87c2.05,0,3.42,1.28,3.86,3.55h-7.84c.42-2.19,1.74-3.55,3.99-3.55Z"/>
  <path class="st0" d="M194.47,187.64v4.26h6.51c-.68,3.64-3.11,5.65-7.27,5.65-4.42,0-7.99-3.27-7.99-8.5s3.4-8.42,8.08-8.42c2.61,0,4.73,1.02,6.18,2.69l3.67-3.6c-2.27-2.47-5.65-3.93-9.71-3.93-7.86,0-13.51,5.54-13.51,13.27,0,8.26,6.29,13.25,13.38,13.25s12.5-5.47,12.5-13.21c0-.48-.02-.95-.07-1.44h-11.77Z"/>
  <path class="st0" d="M218.28,183.65c-5.5,0-9.56,3.99-9.56,9.32s4.06,9.32,9.56,9.32,9.59-3.98,9.59-9.32-4.07-9.32-9.59-9.32ZM218.28,197.85c-2.69,0-4.7-2.01-4.7-4.88s2.01-4.88,4.7-4.88,4.72,2.01,4.72,4.88-2.03,4.88-4.72,4.88Z"/>
  <polygon class="st0" points="238.13 196.81 233.54 184.13 228.35 184.13 235.35 201.84 240.85 201.84 247.78 184.13 242.75 184.13 238.13 196.81"/>
  <path class="st0" d="M257.22,183.65c-5.3,0-8.96,3.8-8.96,9.38s3.77,9.27,9.19,9.27c2.98,0,5.54-.84,7.55-2.69l-2.8-3.07c-1.28,1.08-2.94,1.7-4.48,1.7-2.25,0-4.04-1.12-4.55-3.67h12.55c.06-.4.09-1.06.09-1.61-.02-5.52-3.51-9.3-8.61-9.3ZM253.2,191.31c.42-2.19,1.74-3.55,3.99-3.55,2.05,0,3.41,1.28,3.86,3.55h-7.84Z"/>
  <path class="st0" d="M273.61,186.06v-1.94h-4.63v17.71h4.77v-9.65c0-2.63,1.52-3.99,3.73-3.99.97,0,2.1.22,2.89.57l.71-4.73c-.66-.24-1.46-.39-2.49-.39-2.17,0-3.87.75-4.99,2.41Z"/>
  <path class="st0" d="M293.46,183.65c-2.01,0-3.95.68-5.21,2.56v-2.08h-4.64v17.71h4.77v-9.71c0-2.67,1.7-4,3.75-4,2.17,0,3.45,1.41,3.45,3.97v9.74h4.77v-11.28c0-4.11-2.87-6.91-6.89-6.91Z"/>
  <path class="st0" d="M326.18,183.65c-2.32,0-4.64.79-6.01,3.03-1.19-1.88-3.29-3.03-5.85-3.03-2.01,0-3.95.68-5.21,2.56v-2.08h-4.64v17.71h4.77v-9.71c0-2.67,1.7-4,3.75-4,2.17,0,3.45,1.41,3.45,3.97v9.74h4.77v-9.71c0-2.67,1.7-4,3.75-4,2.16,0,3.45,1.41,3.45,3.97v9.74h4.75v-11.28c0-4.11-2.81-6.91-6.98-6.91Z"/>
  <path class="st0" d="M345.15,183.65c-5.3,0-8.96,3.8-8.96,9.38s3.77,9.27,9.2,9.27c2.98,0,5.54-.84,7.55-2.69l-2.8-3.07c-1.28,1.08-2.94,1.7-4.48,1.7-2.25,0-4.04-1.12-4.55-3.67h12.56c.05-.4.09-1.06.09-1.61-.02-5.52-3.51-9.3-8.61-9.3ZM341.13,191.31c.42-2.19,1.73-3.55,3.98-3.55,2.05,0,3.42,1.28,3.86,3.55h-7.84Z"/>
  <path class="st0" d="M366.77,183.65c-2.01,0-3.94.68-5.21,2.56v-2.08h-4.64v17.71h4.77v-9.71c0-2.67,1.7-4,3.75-4,2.18,0,3.45,1.41,3.45,3.97v9.74h4.77v-11.28c0-4.11-2.87-6.91-6.89-6.91Z"/>
  <path class="st0" d="M386.69,197.85c-1.48,0-2.65-.8-2.65-3.01v-6.47h6.42v-4.24h-6.42v-5.26h-4.77v5.26h-3.42v4.24h3.42v6.85c0,4.59,2.25,7.07,6.63,7.07,2.52,0,4.31-.8,5.87-1.87l-1.75-3.73c-.97.59-2.19,1.15-3.33,1.15Z"/>
</svg>