<?xml version="1.0" encoding="UTF-8"?>
<svg id="Layer_1" xmlns="http://www.w3.org/2000/svg" version="1.1" viewBox="0 0 478.8 142.27">
  <!-- Generator: Adobe Illustrator 29.8.5, SVG Export Plug-In . SVG Version: 2.1.1 Build 2)  -->
  <path d="M461.84,142.21c-.56.08-1.94.08-2.5,0-10.14-1.45-9.28-17.23,1.37-17.23s11.54,15.82,1.12,17.23ZM459.78,126.81c-8.73,1.05-7.28,14.55,1.66,13.62s7.48-14.72-1.66-13.62Z"/>
  <path d="M365.78,106.54c.24-4.41-.01-8.42,3.35-11.73.92-.9,4.72-3.36,5.86-2.86.51.22.98.83,1.87,1.14,5.37,1.86,8.58-1.92,11.47-5.77,2.06-2.75,5.35-6.18-.23-6.71-3.06-.29-8.39-.48-11.24.48-3.4,1.15-4.77,4.31-4.38,7.72-2.04.34-3.73,1.51-5.46,2.52l.98-12.57c7.58-2.44,5.23-9.07,2.88-14.61-.71-1.67-2.04-5.98-4.46-4.47-.79.49-4.18,5.83-4.77,6.95-1.4,2.66-2.31,4.82-1.08,7.83.8,1.95,2.19,2.64,3.47,4.03l-1.01,12.09-4.87-3.74c-.36-.58.37-2.04.36-2.84-.03-1.91-1.46-4.37-2.98-5.5-2.07-1.53-11.15-4.23-13.56-3.87-2.58.38-.05,4.83.64,6.31,2.23,4.77,4.78,9.45,10.82,8.89.75-.07,1.51-.62,2.18-.46,1.98.49,5.05,4.57,5.8,6.44,1.47,3.68.4,6.43.38,10.22-2.56-2.37-5.37-4.49-8.73-5.61-.42-2.3-1.12-4.02-3.01-5.47-3.01-2.3-8.89-2.14-12.59-1.9-.82.05-3.45.31-3.88.86-.55.77-.08,1.51.32,2.22,1.23,2.2,6.69,7.93,8.93,9.03,2.9,1.43,7.03,1.24,8.89-1.64,4.18,1.48,7.99,4.8,9.34,9.11l-1.25,16.1c-26.89-3.98-45.56-32.75-31.23-58.03,14.43-25.47,50.89-25.19,68.9-3.69,20.13,24.03,7.85,58.32-23.6,62.19-1.35.17-9.2.6-9.84.17-.27-.18-.24-.44-.22-.73.27-5.12,1.14-10.25,1.35-15.39,2.29-3.87,6.17-5.89,10.5-6.65,1.94,3.36,5.36,4.93,9.23,3.93,1.71-.44,9.86-5.75,10.29-7.17.22-.71.07-1.21-.44-1.71-.7-.69-5-1.96-6.2-2.28-4.06-1.1-9.61-2.6-12.34,1.74-.4.64-.63,1.86-1.1,2.14-.57.34-3.59.67-4.71,1.03-1.65.53-3.1,1.44-4.61,2.25Z"/>
  <path d="M225.3,119.26l1.74-19.7-2.89,4.97c-6.45,10.62-16.76,18.68-29.89,16.95-21.19-2.79-21.35-27.91-15.56-43.68,8.66-23.57,29.99-34.22,54.45-31.61,7,.75,14,2.57,20.6,4.9l-6.25,68.17h-22.21ZM229.52,57.68c-3.82-.87-7.87-.95-11.58.47-12.42,4.75-18.75,26.74-17.83,38.79.47,6.17,4.68,11.12,11.2,8.21,7.3-3.27,12.18-18.69,14.18-25.98,1.92-7.02,3.32-14.24,4.04-21.48Z"/>
  <path d="M159.43,28.72l-1.5,19.46,14.47-1-1.03,11.94-14.32,1.03-.26.49-3.35,41.54c.2,1.77-.49,4.47.5,5.98,2.45,3.78,10.26.24,13.35-1.35l5.6,10.56c-.09.42-7.05,2.89-8.04,3.2-14.29,4.57-36.92,7.58-35.12-14.41l3.49-44.02-11.98,1.25.78-11.56.59-.41,13.1-1.24,1.5-19.7,22.21-1.75Z"/>
  <path d="M319.36,55.17l-7.37,11.98c-2.09-1.1-4.04-2.65-6.18-3.8-5.14-2.76-16.82-7.27-20.99-1.19-5.08,7.42,11.32,13.55,16,16.15,6.76,3.77,16.33,9.37,17.77,17.66,1.93,11.15-5.92,19.59-15.81,23.04-14.6,5.11-31.86,1.16-45.52-5.02l4.48-14.44c3.76,2.24,7.56,4.34,11.66,5.92,5.75,2.22,17.04,6.01,21.52-.06,6.31-8.56-9.99-14.71-15.39-17.79-6.59-3.75-16.45-9.26-17.27-17.66-1.09-11.28,7.32-19.08,17.43-21.92,13.67-3.83,27.63.62,39.66,7.12Z"/>
  <polygon points="25.93 41.45 55.88 133.98 32.7 138.19 .1 47.94 0 46.94 25.93 41.45"/>
  <path d="M130.15,4.62c3.8,3.69,5.91,9.7,3.29,14.71-2.23,4.25-6.21,3.11-10.03,3.44-8.98.78-20.93,7.97-27.97,13.45-18.66,14.52-33.11,38.89-38.44,61.84-1.44,6.22-1.99,12.05-2.9,18.31-.04.28-.09,1.16-.47,1.15-2.59-7.22-2.57-15.45-2.26-23.08,1.27-31.74,15.64-68.46,42.35-87.11,9.06-6.33,27.5-11.36,36.42-2.7Z"/>
  <polygon points="441.88 90.33 461.85 64.26 478.8 68 449.02 103.83 445.12 138.47 423.43 134.71 427.09 99.97 400.71 52.92 425.03 57.16 441.88 90.33"/>
  <polygon points="112.27 52.92 108.25 126.71 84.83 129.99 88.57 55.66 112.27 52.92"/>
  <path d="M457.6,128.24c1.72.05,4.22-.58,5.62.74,1.2,1.14.83,4.06-.87,4.61l2.74,4.62c-1.95.18-2.34.04-3.4-1.46-.64-.9-.9-2.63-2.09-2.53v3.99h-2v-9.98ZM461.28,129.8c-.34-.34-1.22-.31-1.69-.31v3.24c1.93.65,2.8-1.81,1.69-2.94Z"/>
</svg>